<?xml version="1.0" standalone="no"?>
<!DOCTYPE svg PUBLIC "-//W3C//DTD SVG 1.1//EN" "http://www.w3.org/Graphics/SVG/1.1/DTD/svg11.dtd" >
<svg>
<metadata>
Created by FontForge 20120731 at Sat May 30 00:23:49 2020
 By fw_worker
GeSoft (c). 2017. All Rights Reserved
</metadata>
<defs>
<font id="eDes" horiz-adv-x="819" >
  <font-face 
    font-family="eDes"
    font-weight="400"
    font-stretch="normal"
    units-per-em="2048"
    panose-1="2 0 0 0 0 0 0 0 0 0"
    ascent="1638"
    descent="-410"
    x-height="2548"
    cap-height="2560"
    bbox="-2695 -1029 7167 2560.27"
    underline-thickness="150"
    underline-position="-142"
    unicode-range="U+001D-2653"
  />
<missing-glyph horiz-adv-x="0" 
 />
    <glyph glyph-name=".notdef" horiz-adv-x="0" 
 />
    <glyph glyph-name="glyph1" horiz-adv-x="2048" 
d="M2048 896h-386q-10 110 -48 208q-36 96 -96 176h324q34 140 140 560q-30 8 -124 32q-30 -116 -116 -464l-354 4q10 30 16 60q4 32 4 66q0 158 -112 270t-272 112t-272 -112t-112 -270q0 -34 4 -66q6 -30 14 -62q-2 0 -2 -2h-350q-30 116 -116 464q-30 -8 -124 -32
q34 -140 140 -560h324q-60 -80 -96 -176q-38 -98 -48 -208h-386v-128h386q6 -68 22 -132q18 -66 46 -124h-248q-34 -140 -140 -560q30 -8 124 -32q30 116 116 464h224q88 -116 218 -184q128 -70 276 -70t276 70q130 68 218 184h224q30 -116 116 -464q30 8 124 32
q-34 140 -140 560h-248q28 58 46 124q16 64 22 132h386v128z" />
    <glyph glyph-name="uni001D" horiz-adv-x="2048" 
d="M896 1664v32q0 40 -28 68t-68 28h-320q-40 0 -68 -28t-28 -68v-32h-384v-76v-180h384v-32q0 -40 28 -68t68 -28h320q40 0 68 28t28 68v32h1152v256h-1152v0zM512 1408v256h256v-256h-256v0zM1664 1056q0 40 -28 68t-68 28h-320q-40 0 -68 -28t-28 -68v-32h-1152v-76v-180
h1152v-32q0 -40 28 -68t68 -28h320q40 0 68 28t28 68v32h384v256h-384v32v0zM1280 768v256h256v-256h-256v0zM896 416q0 40 -28 68t-68 28h-320q-40 0 -68 -28t-28 -68v-32h-384v-76v-180h384v-32q0 -40 28 -68t68 -28h68h252q40 0 68 28t28 68v32h1152v256h-1152v32v0z
M512 128v256h256v-256h-256v0z" />
    <glyph glyph-name="glyph3" horiz-adv-x="2048" 
d="M1792 1024h32q40 0 68 28t28 68v320q0 40 -28 68t-68 28h-32v384h-256v-384h-32q-40 0 -68 -28t-28 -68v-320q0 -40 28 -68t68 -28h32v-1152h256v1152v0zM1536 1408h256v-256h-256v256v0zM1184 256q40 0 68 28t28 68v320q0 40 -28 68t-68 28h-32v1152h-256v-1152h-32
q-40 0 -68 -28t-28 -68v-320q0 -40 28 -68t68 -28h32v-384h256v384h32v0zM896 640h256v-256h-256v256v0zM544 1024q40 0 68 28t28 68v320q0 40 -28 68t-68 28h-32v384h-256v-384h-32q-40 0 -68 -28t-28 -68v-320q0 -40 28 -68t68 -28h32v-1152h256v1152h32v0zM256 1408h256
v-256h-256v256v0z" />
    <glyph glyph-name="space" unicode=" " horiz-adv-x="2733" 
d="M0 2048h342v-1708h-342v1196v512zM513 2048h170v-1708h-170v1708zM854 2048h171v-1708h-171v1708zM1367 2048h171v-1708h-171v1708zM2050 2048h171v-1708h-171v1708zM2563 2048h170v-1708h-170v1708zM1708 2048h86v-1708h-86v1708zM1196 2048h85v-1708h-85v1708z
M2306 2048h86v-1708h-86v1708zM0 169h171v-171h-171v120v51zM513 169h170v-171h-170v171zM854 169h171v-171h-171v171zM1708 169h171v-171h-171v171zM2563 169h170v-171h-170v171zM2050 169h342v-171h-342v171zM1196 169h342v-171h-342v171z" />
    <glyph glyph-name="space" unicode="&#xa0;" horiz-adv-x="2733" 
d="M0 2048h342v-1708h-342v1196v512zM513 2048h170v-1708h-170v1708zM854 2048h171v-1708h-171v1708zM1367 2048h171v-1708h-171v1708zM2050 2048h171v-1708h-171v1708zM2563 2048h170v-1708h-170v1708zM1708 2048h86v-1708h-86v1708zM1196 2048h85v-1708h-85v1708z
M2306 2048h86v-1708h-86v1708zM0 169h171v-171h-171v120v51zM513 169h170v-171h-170v171zM854 169h171v-171h-171v171zM1708 169h171v-171h-171v171zM2563 169h170v-171h-170v171zM2050 169h342v-171h-342v171zM1196 169h342v-171h-342v171z" />
    <glyph glyph-name="exclam" unicode="!" horiz-adv-x="2852" 
d="M1121 2560h609q64 0 108.5 -44t44.5 -108v-1675h886q64 0 79 -35t-25 -84l-1300 -1589q-39 -49 -97 -49t-97 49l-1301 1589q-39 49 -24 84t79 35h886v1675q0 64 44.5 108t107.5 44z" />
    <glyph glyph-name="quotedbl" unicode="&#x22;" horiz-adv-x="2048" 
d="M2048 683v-683h-683l262 261l-468 462l165 165l463 -467zM683 0h-683v683l261 -262l458 460l165 -165l-463 -455zM0 1365v683h683l-262 -261l454 -449l-165 -165l-449 454zM1365 2048h683v-683l-261 262l-458 -459l-165 165l463 454z" />
    <glyph glyph-name="numbersign" unicode="#" horiz-adv-x="3724" 
d="M3724 -1024l-1792 1792l1792 1792v-3584zM1792 -1024l-1792 1792l1792 1792v-3584z" />
    <glyph glyph-name="dollar" unicode="$" horiz-adv-x="3724" 
d="M3724 768l-1792 -1792v3584zM1792 768l-1792 -1792v3584z" />
    <glyph glyph-name="percent" unicode="%" horiz-adv-x="2286" 
d="M2286 -1024l-1792 1792l1792 1792v-3584zM421 -1024h-421v3584h421v-3584z" />
    <glyph glyph-name="ampersand" unicode="&#x26;" horiz-adv-x="2266" 
d="M2266 -1024h-401v3584h401v-3584zM1792 768l-1792 -1792v3584z" />
    <glyph glyph-name="quotesingle" unicode="'" horiz-adv-x="2354" 
d="M2354 301v-200q0 -42 -29.5 -71.5t-70.5 -29.5h-2153q-42 0 -71.5 29.5t-29.5 71.5v200q0 41 29.5 71t71.5 30h2153q41 0 70.5 -30t29.5 -71zM2354 1112v-201q0 -40 -29.5 -70t-70.5 -30h-2153q-42 0 -71.5 30t-29.5 70v201q0 41 29.5 70.5t71.5 29.5h2153
q41 0 70.5 -29.5t29.5 -70.5zM2354 1948v-201q0 -41 -29.5 -70.5t-70.5 -29.5h-2153q-42 0 -71.5 29.5t-29.5 70.5v201q0 40 29.5 70t71.5 30h2153q41 0 70.5 -30t29.5 -70z" />
    <glyph glyph-name="parenleft" unicode="(" horiz-adv-x="3388" 
d="M1692 2560l-1692 -817zM1692 2560l1696 -811l-1699 -828l-1689 822zM2531 221l857 -413l-1699 -832l-1689 826l846 409l844 -407zM3388 -192l-1699 -832l-1689 826l1690 -826zM3388 759l-1699 -832l-1689 826l1689 -827zM2488 1190l900 -431l-1699 -832l-1689 826
l887 429l802 -390z" />
    <glyph glyph-name="parenright" unicode=")" horiz-adv-x="1229" 
d="M1229 0h-410v2048h410v-2048zM410 0h-410v2048h410v-2048z" />
    <glyph glyph-name="asterisk" unicode="*" horiz-adv-x="3584" 
d="M3584 768q0 -740 -526 -1266t-1266 -526t-1266 526t-526 1266t526 1266t1266 526t1266 -526t526 -1266z" />
    <glyph glyph-name="plus" unicode="+" horiz-adv-x="1405" 
d="M1405 -1024h-1405v3584h1405v-3584z" />
    <glyph glyph-name="comma" unicode="," horiz-adv-x="3584" 
d="M2932 2560h-325v-326h-1630v326h-325v-326h-652v-3258h3584v3258h-652v326zM652 -698q-138 0 -232 94t-94 232v1629q0 137 94 229q94 97 232 97h2280q138 5 229 -95q97 -94 97 -231v-1629q5 -138 -94 -232q-94 -94 -232 -94h-2280zM1629 931v326h-326v-326h326zM2281 931
v326h-326v-326h326zM2932 931v326h-325v-326h325zM977 279v326h-325v-326h325zM1629 279v326h-326v-326h326zM2281 279v326h-326v-326h326zM2932 279v326h-325v-326h325zM977 -372v325h-325v-325h325zM1629 -372v325h-326v-325h326zM2281 -372v325h-326v-325h326z" />
    <glyph glyph-name="hyphen" unicode="-" horiz-adv-x="3329" 
d="M256 -767h575v576h-575v-576zM961 -767h639v576h-639v-576zM256 -63h575v640h-575v-640zM961 -63h639v640h-639v-640zM256 705h575v576h-575v-576zM1727 -767h641v576h-641v-576zM961 705h639v576h-639v-576zM2496 -767h575v576h-575v-576zM1727 -63h641v640h-641v-640z
M1024 1664v578q0 24 -19.5 43.5t-43.5 19.5h-130q-24 0 -43.5 -19.5t-19.5 -43.5v-578q0 -24 19.5 -43.5t43.5 -19.5h130q24 0 43.5 19.5t19.5 43.5zM2496 -63h575v640h-575v-640zM1727 705h641v576h-641v-576zM2496 705h575v576h-575v-576zM2560 1664v578q0 24 -19 43.5
t-45 19.5h-128q-26 0 -44.5 -19.5t-18.5 -43.5v-578q0 -24 18.5 -43.5t44.5 -19.5h128q26 0 45 19.5t19 43.5zM3329 1794v-2561q0 -105 -76.5 -181t-181.5 -76h-2815q-104 0 -180 76t-76 181v2561q0 103 76 179t180 76h257v193q0 131 93.5 224.5t224.5 93.5h130
q131 0 224.5 -93.5t93.5 -224.5v-193h769v193q0 131 94.5 224.5t225.5 93.5h128q133 0 226.5 -93.5t93.5 -224.5v-193h255q105 0 181.5 -76t76.5 -179z" />
    <glyph glyph-name="hyphen" unicode="&#xad;" horiz-adv-x="3329" 
d="M256 -767h575v576h-575v-576zM961 -767h639v576h-639v-576zM256 -63h575v640h-575v-640zM961 -63h639v640h-639v-640zM256 705h575v576h-575v-576zM1727 -767h641v576h-641v-576zM961 705h639v576h-639v-576zM2496 -767h575v576h-575v-576zM1727 -63h641v640h-641v-640z
M1024 1664v578q0 24 -19.5 43.5t-43.5 19.5h-130q-24 0 -43.5 -19.5t-19.5 -43.5v-578q0 -24 19.5 -43.5t43.5 -19.5h130q24 0 43.5 19.5t19.5 43.5zM2496 -63h575v640h-575v-640zM1727 705h641v576h-641v-576zM2496 705h575v576h-575v-576zM2560 1664v578q0 24 -19 43.5
t-45 19.5h-128q-26 0 -44.5 -19.5t-18.5 -43.5v-578q0 -24 18.5 -43.5t44.5 -19.5h128q26 0 45 19.5t19 43.5zM3329 1794v-2561q0 -105 -76.5 -181t-181.5 -76h-2815q-104 0 -180 76t-76 181v2561q0 103 76 179t180 76h257v193q0 131 93.5 224.5t224.5 93.5h130
q131 0 224.5 -93.5t93.5 -224.5v-193h769v193q0 131 94.5 224.5t225.5 93.5h128q133 0 226.5 -93.5t93.5 -224.5v-193h255q105 0 181.5 -76t76.5 -179z" />
    <glyph glyph-name="period" unicode="." horiz-adv-x="3584" 
d="M2354 760l1220 -1220l-589 -564l-1755 1755l1794 1800l560 -557zM2354 760l-1755 -1755l-589 566l1220 1220l-1230 1214l560 555z" />
    <glyph glyph-name="slash" unicode="/" horiz-adv-x="3584" 
d="M2206 2560v-551l-690 -690h-827v-275l1379 -1379h275v827l690 690h551v275l-1103 1103h-275zM0 -748l276 -276l1102 1103l-275 275z" />
    <glyph glyph-name="zero" unicode="0" horiz-adv-x="3583" 
d="M2933 -17v-233q0 -51 -23.5 -84.5t-59.5 -33.5h-2117q-36 0 -58.5 33.5t-22.5 84.5v233q0 51 22.5 84.5t58.5 33.5h2117q36 0 59.5 -33.5t23.5 -84.5zM3258 -290v2117q0 167 -120.5 287.5t-287.5 120.5h-2117q-167 0 -287.5 -120.5t-120.5 -287.5v-2117
q0 -167 120.5 -287.5t287.5 -120.5h2117q167 0 287.5 120.5t120.5 287.5zM3583 1827v-2117q0 -303 -215 -518t-518 -215h-2117q-303 0 -518 215t-215 518v2117q0 303 215 518t518 215h2117q303 0 518 -215t215 -518zM2933 1773v-233q0 -51 -23.5 -84.5t-59.5 -33.5h-2117
q-36 0 -58.5 33.5t-22.5 84.5v233q0 51 22.5 84.5t58.5 33.5h2117q36 0 59.5 -33.5t23.5 -84.5zM2933 873v-233q0 -51 -23.5 -84.5t-59.5 -33.5h-2117q-36 0 -58.5 33.5t-22.5 84.5v233q0 51 22.5 84.5t58.5 33.5h2117q36 0 59.5 -33.5t23.5 -84.5z" />
    <glyph glyph-name="one" unicode="1" horiz-adv-x="3584" 
d="M1212 -82h1177v337h-1177v-337zM1212 758h1177v505h-210q-53 0 -89.5 37t-36.5 89v211h-841v-842zM2725 675q0 34 -24.5 58.5t-58.5 24.5t-59.5 -24.5t-25.5 -58.5t25.5 -59t59.5 -25t58.5 25t24.5 59zM2894 674v-546q0 -17 -12.5 -29.5t-29.5 -12.5h-295v-210
q0 -52 -36.5 -89t-89.5 -37h-1261q-52 0 -89 37t-37 89v210h-294q-17 0 -29.5 12.5t-12.5 29.5v546q0 105 74 179t177 74h85v714q0 53 37 90t89 37h883q52 0 115.5 -26.5t100.5 -63.5l199 -199q36 -37 62.5 -100t26.5 -116v-336h84q105 0 179 -74t74 -179zM3259 -291v2118
q0 167 -120 287.5t-287 120.5h-2119q-167 0 -287 -120.5t-120 -287.5v-2118q0 -167 120 -287.5t287 -120.5h2119q167 0 287 120.5t120 287.5zM3584 1827v-2118q0 -303 -214.5 -518t-517.5 -215h-2119q-303 0 -518 215t-215 518v2118q0 303 215 518t518 215h2119
q303 0 517.5 -215t214.5 -518z" />
    <glyph glyph-name="two" unicode="2" horiz-adv-x="3583" 
d="M2933 -123v-162q0 -36 -23.5 -59.5t-59.5 -23.5h-2117q-36 0 -58.5 23.5t-22.5 59.5v162q0 36 22.5 59.5t58.5 23.5h2117q36 0 59.5 -23.5t23.5 -59.5zM3258 -290v2117q0 167 -120.5 287.5t-287.5 120.5h-2117q-167 0 -287.5 -120.5t-120.5 -287.5v-2117
q0 -167 120.5 -287.5t287.5 -120.5h2117q167 0 287.5 120.5t120.5 287.5zM3583 1827v-2117q0 -303 -215 -518t-518 -215h-2117q-303 0 -518 215t-215 518v2117q0 303 215 518t518 215h2117q303 0 518 -215t215 -518z" />
    <glyph glyph-name="three" unicode="3" horiz-adv-x="3585" 
d="M949 -292q0 -35 -23.5 -57.5t-59.5 -22.5h-162q-36 0 -59.5 22.5t-23.5 57.5v2130q0 36 23.5 59.5t59.5 23.5h162q36 0 59.5 -23.5t23.5 -59.5v-2130zM3260 -292v2119q0 167 -120.5 287.5t-287.5 120.5h-2119q-167 0 -287.5 -120.5t-120.5 -287.5v-2119
q0 -167 120.5 -287.5t287.5 -120.5h2119q167 0 287.5 120.5t120.5 287.5zM3585 1827v-2119q0 -303 -215 -518t-518 -215h-2119q-303 0 -518 215t-215 518v2119q0 303 215 518t518 215h2119q303 0 518 -215t215 -518zM2964 -292q0 -35 -23.5 -57.5t-59.5 -22.5h-162
q-36 0 -59.5 22.5t-23.5 57.5v2130q0 36 23.5 59.5t59.5 23.5h162q36 0 59.5 -23.5t23.5 -59.5v-2130zM2968 -122v-166q0 -37 -24 -61t-61 -24h-2172q-36 0 -59 24t-23 61v166q0 37 23 61t59 24h2172q37 0 61 -24t24 -61zM2968 1833v-166q0 -37 -24 -61t-61 -24h-2172
q-36 0 -59 24t-23 61v166q0 37 23 61t59 24h2172q37 0 61 -24t24 -61z" />
    <glyph glyph-name="four" unicode="4" horiz-adv-x="3585" 
d="M949 -292q0 -35 -23.5 -57.5t-59.5 -22.5h-162q-36 0 -59.5 22.5t-23.5 57.5v1215q0 36 23.5 59.5t59.5 23.5h162q36 0 59.5 -23.5t23.5 -59.5v-1215zM3260 -292v2119q0 167 -120.5 287.5t-287.5 120.5h-2119q-167 0 -287.5 -120.5t-120.5 -287.5v-2119
q0 -167 120.5 -287.5t287.5 -120.5h2119q167 0 287.5 120.5t120.5 287.5zM3585 1827v-2119q0 -303 -215 -518t-518 -215h-2119q-303 0 -518 215t-215 518v2119q0 303 215 518t518 215h2119q303 0 518 -215t215 -518zM2034 -292q0 -35 -23.5 -57.5t-59.5 -22.5h-162
q-36 0 -59.5 22.5t-23.5 57.5v1215q0 36 23.5 59.5t59.5 23.5h162q36 0 59.5 -23.5t23.5 -59.5v-1215zM2031 -122v-166q0 -37 -24 -61t-61 -24h-1235q-36 0 -59 24t-23 61v166q0 37 23 61t59 24h1235q37 0 61 -24t24 -61zM2031 923v-166q0 -37 -24 -61t-61 -24h-1235
q-36 0 -59 24t-23 61v166q0 37 23 61t59 24h1235q37 0 61 -24t24 -61z" />
    <glyph glyph-name="five" unicode="5" horiz-adv-x="3583" 
d="M2509 1760l-713 -712l-712 712l-285 -285l713 -712l-713 -712l285 -285l712 712l713 -712l284 285l-712 712l712 712zM3258 -290v2117q0 167 -120.5 287.5t-287.5 120.5h-2117q-167 0 -287.5 -120.5t-120.5 -287.5v-2117q0 -167 120.5 -287.5t287.5 -120.5h2117
q167 0 287.5 120.5t120.5 287.5zM3583 1827v-2117q0 -303 -215 -518t-518 -215h-2117q-303 0 -518 215t-215 518v2117q0 303 215 518t518 215h2117q303 0 518 -215t215 -518z" />
    <glyph glyph-name="six" unicode="6" horiz-adv-x="3557" 
d="M1750 -1024h910l897 924v886zM0 -1024h882l2675 2688v896zM3560 1664zM3560 1664z" />
    <glyph glyph-name="seven" unicode="7" horiz-adv-x="3583" 
d="M3258 -290v2117q0 167 -120.5 287.5t-287.5 120.5h-2117q-167 0 -287.5 -120.5t-120.5 -287.5v-2117q0 -167 120.5 -287.5t287.5 -120.5h2117q167 0 287.5 120.5t120.5 287.5zM3583 1827v-2117q0 -303 -215 -518t-518 -215h-2117q-303 0 -518 215t-215 518v2117
q0 303 215 518t518 215h2117q303 0 518 -215t215 -518z" />
    <glyph glyph-name="eight" unicode="8" horiz-adv-x="3884" 
d="M897 -726h2090v599h-2090v-599zM897 767h2090v896h-373q-94 0 -159.5 65.5t-65.5 159.5v373h-1492v-1494zM3584 619q0 60 -44 104t-104.5 44t-105 -44t-44.5 -104t44.5 -105t105 -45t104.5 45t44 105zM3884 618v-970q0 -31 -22.5 -53t-53.5 -22h-522v-374
q0 -92 -65.5 -157.5t-159.5 -65.5h-2240q-92 0 -157 65.5t-65 157.5v374h-523q-31 0 -53.5 22t-22.5 53v970q0 186 132 317.5t316 131.5h151v1268q0 94 65 159.5t157 65.5h1568q94 0 206.5 -47t177.5 -113l353 -353q66 -65 113 -177.5t47 -206.5v-596h149q185 0 317 -131.5
t132 -317.5z" />
    <glyph glyph-name="nine" unicode="9" horiz-adv-x="3589" 
d="M489 -128q-168 0 -288 -119.5t-120 -287.5t120 -288t288 -120t287.5 120t119.5 288t-119.5 287.5t-287.5 119.5zM1792 -128q-168 0 -288 -119.5t-120 -287.5t120 -288t288 -120t287.5 120t119.5 288t-119.5 287.5t-287.5 119.5zM1792 1175q-168 0 -288 -119.5
t-120 -287.5t120 -288t288 -120t287.5 120t119.5 288t-119.5 287.5t-287.5 119.5zM3100 -128q-168 0 -287.5 -119.5t-119.5 -287.5t119.5 -288t287.5 -120t288 120t120 288t-120 287.5t-288 119.5zM3100 1175q-168 0 -287.5 -119.5t-119.5 -287.5t119.5 -288t287.5 -120
t288 120t120 288t-120 287.5t-288 119.5zM977 -535.5q0 -203.5 -142.5 -346t-346 -142.5t-346 142.5t-142.5 346t142.5 346t346 142.5t346 -142.5t142.5 -346zM2280 -535.5q0 -203.5 -142.5 -346t-346 -142.5t-346 142.5t-142.5 346t142.5 346t346 142.5t346 -142.5
t142.5 -346zM977 767.5q0 -203.5 -142.5 -346t-346 -142.5t-346 142.5t-142.5 346t142.5 346t346 142.5t346 -142.5t142.5 -346zM2280 767.5q0 -203.5 -142.5 -346t-346 -142.5t-346 142.5t-142.5 346t142.5 346t346 142.5t346 -142.5t142.5 -346zM977 2070.5
q0 -203.5 -142.5 -346t-346 -142.5t-346 142.5t-142.5 346t142.5 346t346 142.5t346 -142.5t142.5 -346zM3589 -535.5q0 -203.5 -142.5 -346t-346 -142.5t-346 142.5t-142.5 346t142.5 346t346 142.5t346 -142.5t142.5 -346zM2280 2070.5q0 -203.5 -142.5 -346t-346 -142.5
t-346 142.5t-142.5 346t142.5 346t346 142.5t346 -142.5t142.5 -346zM3589 767.5q0 -203.5 -142.5 -346t-346 -142.5t-346 142.5t-142.5 346t142.5 346t346 142.5t346 -142.5t142.5 -346zM3589 2070.5q0 -203.5 -142.5 -346t-346 -142.5t-346 142.5t-142.5 346t142.5 346
t346 142.5t346 -142.5t142.5 -346z" />
    <glyph glyph-name="colon" unicode=":" horiz-adv-x="3577" 
d="M119 2444h1066q19 -3 19 -19v-290q0 -18 -19 -18h-524l693 -702v-9q0 -13 -216 -216h-9l-702 693v-524q0 -19 -18 -19h-290q-19 0 -19 19v1066q3 19 19 19zM2383 2444h1066q19 -3 19 -19v-1066q0 -19 -19 -19h-290q-18 0 -18 19v514h-10l-692 -683h-9q-13 0 -216 216v9
l693 702h-524q-19 0 -19 18v290q3 19 19 19zM1129 330h9q13 0 216 -216v-9l-693 -702h524q19 -2 19 -18v-290q0 -19 -19 -19h-1066q-19 0 -19 19v1066q3 19 19 19h290q18 -3 18 -19v-524zM2430 330h9l702 -693v524q2 19 18 19h290q19 -3 19 -19v-1066q0 -19 -19 -19h-1066
q-19 0 -19 19v290q3 18 19 18h524l-693 702v9q0 13 216 216z" />
    <glyph glyph-name="semicolon" unicode=";" horiz-adv-x="3577" 
d="M1336 1190h-1067q-19 3 -19 18v290q0 19 19 19h524l-693 702v9q0 13 215 215h10l702 -692l-1 524q0 19 19 19h290q19 0 19 -18v-1067q-3 -19 -18 -19zM3300 1190l-1067 -1q-18 3 -18 19l-1 1067q0 18 18 18l290 1q19 0 19 -19v-515h10l692 684h9q13 0 215 -215v-9
l-691 -703l523 1q19 0 19 -19v-290q-2 -19 -18 -19zM325 -923h-10q-13 0 -215 215v9l693 702h-524q-19 3 -19 18v290q0 19 19 19h1067q18 0 18 -19v-1067q-3 -18 -19 -18h-290q-19 3 -19 19l1 524zM3252 -924h-9l-702 693v-524q-2 -19 -18 -19h-290q-19 3 -19 19v1066
q0 19 19 19h1066q19 0 19 -19v-290q-3 -18 -19 -18h-524l693 -702v-9q0 -13 -216 -216z" />
    <glyph glyph-name="less" unicode="&#x3c;" horiz-adv-x="1792" 
d="M1792 -1024l-1792 1792l1792 1792v-3584z" />
    <glyph glyph-name="equal" unicode="=" horiz-adv-x="3699" 
d="M3699 -497v-351q0 -72 -52 -124t-124 -52h-3347q-72 0 -124 52t-52 124v351q0 71 52 123.5t124 52.5h3347q72 0 124 -52.5t52 -123.5zM3699 922v-351q0 -71 -52 -123.5t-124 -52.5h-3347q-72 0 -124 52.5t-52 123.5v351q0 72 52 124t124 52h3347q72 0 124 -52t52 -124z
M3699 2385v-352q0 -71 -52 -123t-124 -52h-3347q-72 0 -124 52t-52 123v352q0 71 52 123t124 52h3347q72 0 124 -52t52 -123z" />
    <glyph glyph-name="greater" unicode="&#x3e;" horiz-adv-x="1792" 
d="M1792 768l-1792 -1792v3584z" />
    <glyph glyph-name="question" unicode="?" horiz-adv-x="3583" 
d="M2090 -351v447q0 33 -21 54t-54 21h-447q-33 0 -54 -21t-21 -54v-447q0 -33 21 -54t54 -21h447q33 0 54 21t21 54zM2687 1216q0 205 -129.5 380t-323 270.5t-396.5 95.5q-567 0 -865 -496q-35 -56 18 -98l308 -234q17 -14 45 -14q37 0 58 28q124 159 200 215
q80 56 201 56q112 0 199.5 -60.5t87.5 -137.5q0 -89 -46.5 -142.5t-158.5 -105.5q-147 -65 -269.5 -201.5t-122.5 -292.5v-84q0 -33 21 -54t54 -21h447q33 0 54 21t21 54q0 44 50 115.5t127 115.5q75 42 114.5 66.5t107.5 81.5t104 112t65 141t29 189zM3583 768.5
q0 -487.5 -240.5 -899.5t-652 -652t-899 -240t-899 240t-652 652t-240.5 899.5t240.5 899t652 652t899 240.5t899 -240.5t652 -652t240.5 -899z" />
    <glyph glyph-name="at" unicode="@" horiz-adv-x="2588" 
d="M1703 -240v-672q0 -45 -33.5 -78.5t-78.5 -33.5h-672q-44 0 -78 33.5t-34 78.5v672q0 45 34 78.5t78 33.5h672q45 0 78.5 -33.5t33.5 -78.5zM2588 1440q0 -151 -43.5 -283t-98 -214.5t-154 -166.5t-161 -121.5t-170.5 -99.5q-115 -64 -192 -182t-77 -188
q0 -47 -33.5 -90.5t-78.5 -43.5h-672q-42 0 -71.5 52t-29.5 105v126q0 232 182 438t401 304q165 75 235 156.5t70 212.5q0 118 -130 207.5t-301 89.5q-182 0 -303 -81q-98 -70 -299 -322q-37 -45 -87 -45q-34 0 -70 23l-459 350q-37 28 -44 70t16 78q448 745 1299 745
q224 0 450.5 -87t408.5 -232.5t297 -357t115 -443.5z" />
    <glyph glyph-name="A" unicode="A" horiz-adv-x="3910" 
d="M0 -1029v3589h3910v-3583zM326 -703l3246 5l5 2607l-3251 1v-2613zM1 -1029l3908 5zM2914 1670h434v-162h-434v162zM554 -309h434v-162h-434v162zM2914 -309h434v-162h-434v162zM1737 1670h434v-162h-434v162zM1144 1670h434v-162h-434v162zM2337 1670h434v-162h-434v162
zM1739 -309h464v-162h-464v162zM1149 -309h434v-162h-434v162zM2343 -309h434v-162h-434v162zM3186 369v434h162v-434h-162zM554 1670h434v-162h-434v162zM554 936v434h162v-434h-162zM554 -192v434h162v-434h-162zM3186 941v434h162v-434h-162zM3186 -176v434h162v-434
h-162zM554 359v434h162v-434h-162z" />
    <glyph glyph-name="B" unicode="B" horiz-adv-x="3718" 
d="M3718 -457v-391q0 -72 -52 -124t-124 -52h-3366q-72 0 -124 52t-52 124v391q0 71 52 123.5t124 52.5h3366q72 0 124 -52.5t52 -123.5zM3718 942v-391q0 -71 -52 -123.5t-124 -52.5h-3366q-72 0 -124 52.5t-52 123.5v391q0 72 52 124t124 52h3366q72 0 124 -52t52 -124z
M3718 2385v-392q0 -71 -52 -123t-124 -52h-3366q-72 0 -124 52t-52 123v392q0 71 52 123t124 52h3366q72 0 124 -52t52 -123z" />
    <glyph glyph-name="C" unicode="C" horiz-adv-x="3584" 
d="M3392 1794q80 0 136 -56t56 -137v-2432q0 -81 -56 -137t-136 -56h-1920q-81 0 -137 56t-56 137v575h-1086q-81 0 -137 56t-56 137v1344q0 80 40.5 175.5t96.5 151.5l815 817q56 56 152.5 95.5t174.5 39.5h833q81 0 137 -56t56 -135v-656q135 81 255 81h832zM2305 1367
l-599 -599h599v599zM1024 2135l-599 -599h599v599zM1416 842l632 631v832h-769v-832q0 -80 -56 -136t-134 -56h-833v-1279h1023v511q0 80 40.5 176.5t96.5 152.5zM3329 -767v2303h-769v-831q0 -80 -56 -136t-136 -56h-831v-1280h1792z" />
    <glyph glyph-name="D" unicode="D" horiz-adv-x="2688" 
d="M168 2560h1623q897 -856 897 -1121v-2351q0 -112 -112 -112h-2464q-112 0 -112 112v3135q35 337 168 337zM447 432v-224q18 -113 113 -113h1568q112 0 112 113v224q0 112 -112 112h-1568q-113 -17 -113 -112z" />
    <glyph glyph-name="E" unicode="E" horiz-adv-x="3910" 
d="M0 279v2281h2932v-1303h978v-2281h-2934v1303h-976zM326 605h650v652h1631v653h-2281v-1305zM1302 -698h2282v1303h-2282v-1303z" />
    <glyph glyph-name="F" unicode="F" horiz-adv-x="2690" 
d="M477 -426v119h1734v-119h-1734zM477 51v119h1734v-119h-1734zM1734 2393v-787h787zM2690 1606v-2630h-2690v3584h1734zM1612 1485v957h-1493v-3347h2450v2390h-957zM477 528v122h1734v-122h-1734zM477 1008v119h1734v-119h-1734zM477 1485v121h777v-121h-777zM477 1965
v118h777v-118h-777z" />
    <glyph glyph-name="G" unicode="G" horiz-adv-x="4602" 
d="M0 -1024v2807q0 300 298 300h138q104 0 147.5 33t68.5 127l24 97q41 153 99 187q58 33 283 33h930q187 0 248.5 -35t95.5 -161l27 -104q34 -126 74 -151.5t205 -25.5h1668q170 0 233 -63t63 -235v-2809h-4602zM119 -896l4364 -17v2698q0 180 -179 180h-3989
q-196 0 -196 -180v-2681zM744 2083h1528l-49 184q-29 117 -70 146t-179 29h-889q-162 0 -212 -28t-79 -139z" />
    <glyph glyph-name="H" unicode="H" horiz-adv-x="5832" 
d="M0 -1024v2807q0 300 298 300h138q104 0 147.5 33t67.5 127l25 97q38 153 99 186q58 34 281 34h925q201 0 257 -31.5t97 -169.5l26 -89q42 -138 77 -162.5t195 -24.5h1673q172 0 234 -64t62 -241v-232h961q262 0 269 -92q2 -20 -85 -197l-1145 -2281h-4602zM119 -777
l1041 2030q114 220 177 256.5t327 36.5h2819v232q0 187 -182 187h-1683q-228 0 -281 26.5t-87 164.5l-29 111q-32 119 -72 147t-178 28h-896q-155 0 -208 -29q-53 -32 -82 -136l-29 -111q-39 -138 -86.5 -169.5t-209.5 -31.5h-150q-116 0 -153.5 -35.5t-37.5 -148.5v-2558z
M191 -905h4333l1073 2150q53 117 53 131q-7 51 -150 51h-3909q-140 0 -193.5 -31.5t-109.5 -142.5z" />
    <glyph glyph-name="I" unicode="I" horiz-adv-x="2689" 
d="M168 2560h1624q897 -857 897 -1121v-2351q0 -112 -114 -112h-2463q-112 0 -112 112v3136q35 336 168 336zM1121 1215v-559v-115q-252 -18 -668 -2l5 -465q-10 23 663 7q0 -657 1 -663l457 6q-4 0 -2 94q-6 160 -2 573q664 6 675 18l-5 433q-6 2 -677 7v666h-447z" />
    <glyph glyph-name="J" unicode="J" horiz-adv-x="3583" 
d="M2815 384q-264 0 -452 -188t-188 -451.5t188 -451.5t452 -188t452 188t188 451.5t-188 451.5t-452 188zM1535 -255.5q0 -319.5 -223.5 -543.5t-543.5 -224t-544 224t-224 543.5t224 543.5t544 224t543.5 -224t223.5 -543.5zM3582 -255.5q0 -319.5 -223.5 -543.5
t-543.5 -224t-544 224t-224 543.5t224 543.5t544 224t543.5 -224t223.5 -543.5zM1535 1792q0 -320 -223.5 -544t-543.5 -224t-544 224t-224 544t224 543.5t544 223.5t543.5 -223.5t223.5 -543.5zM3582 1792q0 -320 -223.5 -544t-543.5 -224t-544 224t-224 544t224 543.5
t544 223.5t543.5 -223.5t223.5 -543.5z" />
    <glyph glyph-name="K" unicode="K" horiz-adv-x="3584" 
d="M667 2560h55q292 0 417 -445q0 -258 -361 -472v-333q233 0 333 -361v-139q0 -118 -139 -278q84 0 139 -250v-139q0 -189 -333 -417v-28q9 -55 55 -55h834v361q-252 0 -333 472q0 104 138 278v28q-138 139 -138 361q0 104 138 278v28q-138 178 -138 333q95 417 333 417
v305q9 56 56 56h138q56 -9 56 -56v-305q256 0 333 -445q0 -115 -138 -305v-28q138 -139 138 -361q0 -104 -138 -278v-28q138 -161 138 -306q0 -312 -333 -444v-361h834q55 0 55 55v28q-333 228 -333 417v139q100 361 333 361v361q-233 0 -333 361v139q0 118 139 278
q-79 0 -167 333q125 445 417 445h55q445 -56 445 -445q0 -178 -139 -333q139 -170 139 -333q0 -276 -334 -473v-305q334 -196 334 -473v-27q-101 -389 -334 -389v-139h473q40 0 83 -84v-500q0 -40 -83 -83h-3418q-40 0 -83 83v500q0 40 83 84h473v139q-233 0 -334 389v83
q0 98 139 306q-69 0 -139 277v84q0 267 334 389v333q-334 203 -334 472q56 445 445 445zM445 2115q72 -222 222 -222q222 21 222 222q0 167 -222 223q-141 0 -222 -223zM2695 2088q0 -174 250 -195q83 0 194 195q-59 250 -222 250q-222 -48 -222 -250zM1584 1782v-83
q71 -139 222 -139q111 0 194 139v83q0 160 -194 222q-222 -40 -222 -222zM2695 1421q0 -174 222 -195h56q62 0 166 195q-27 222 -222 222h-83q-139 -71 -139 -222zM1584 1171v-139q0 -37 139 -139h138q38 0 139 139v139q0 37 -139 139h-138q-38 0 -139 -139zM445 893
q40 -222 222 -222h83q139 71 139 222q0 111 -139 195h-83q-160 0 -222 -195zM1584 504v-139q55 -139 194 -139h28q139 0 194 139v139q0 37 -139 139h-138q-38 0 -139 -139zM445 226q27 -222 222 -222h83q139 71 139 222q0 174 -222 195h-56q-62 0 -166 -195zM2695 198
q0 -111 139 -194h83q174 0 222 194q-55 187 -166 223h-56q-222 0 -222 -223zM222 -579v-223h3140v223h-3140z" />
    <glyph glyph-name="L" unicode="L" horiz-adv-x="2048" 
d="M0 1911h2048l-1024 -1773z" />
    <glyph glyph-name="M" unicode="M" horiz-adv-x="2050" 
d="M143 0v2048l1773 -1024z" />
    <glyph glyph-name="N" unicode="N" horiz-adv-x="3584" 
d="M2256 -1024h-926v929h926v-929zM3584 -1024h-927v929h927v-929zM929 -1024h-929v929h929v-929zM2256 306h-926v926h926v-926zM3584 306h-927v926h927v-926zM929 306h-929v926h929v-926zM2256 1633h-926v927h926v-927zM3584 1633h-927v927h927v-927zM929 1633h-929v927
h929v-927z" />
    <glyph glyph-name="O" unicode="O" horiz-adv-x="7167" 
d="M7167 -1024h-7167l3584 3583z" />
    <glyph glyph-name="P" unicode="P" horiz-adv-x="3584" 
d="M1537 -767h1792v1280h-833q-79 0 -135 56t-56 136v831h-768v-2303zM2048 2112v130q0 24 -18.5 43.5t-44.5 19.5h-1409q-26 0 -44.5 -19.5t-18.5 -43.5v-130q0 -24 18.5 -43.5t44.5 -19.5h1409q26 0 44.5 19.5t18.5 43.5zM2560 768h599l-599 599v-599zM3584 513v-1344
q0 -81 -56 -137t-136 -56h-1920q-81 0 -137 56t-56 137v320h-1086q-81 0 -137 56t-56 136v2688q0 79 56 135t137 56h2175q80 0 136 -56t56 -135v-656q42 -26 72 -56l816 -815q56 -56 96 -152.5t40 -176.5z" />
    <glyph glyph-name="Q" unicode="Q" horiz-adv-x="7167" 
d="M7167 2560l-3583 -3584l-3584 3584h7167z" />
    <glyph glyph-name="R" unicode="R" horiz-adv-x="2689" 
d="M168 2560h1624q897 -857 897 -1121v-2351q0 -112 -114 -112h-2463q-112 0 -112 112v3136q35 336 168 336zM1828 1113l-397 -394q-30 -29 -82 -81q-190 167 -471 474l-327 -331q9 24 470 -466q-467 -462 -470 -467l325 -321q-3 3 67 68q108 117 405 404q471 -469 487 -467
l305 308q-3 5 -471 486l474 468z" />
    <glyph glyph-name="S" unicode="S" horiz-adv-x="3584" 
d="M299 -1024l1155 1155q165 -119 368 -191q199 -68 418 -68q280 0 525 105t427 287t287 427t105 525t-105 523q-105 245 -287 427q-182 184 -427 289t-525 105t-523 -107q-245 -105 -427 -287q-184 -182 -289 -427q-105 -243 -105 -523q0 -219 70 -422q70 -196 189 -364
l-1155 -1155zM2240 171q-219 0 -408 81q-192 84 -332 224q-144 143 -224 332q-81 191 -81 408t84 406q79 191 224 331q140 145 331 224q189 84 406 84t408 -84q189 -84 334 -226q140 -140 222 -331q81 -189 81 -404q0 -217 -81 -408q-84 -189 -224 -334q-143 -140 -332 -222
q-191 -81 -408 -81z" />
    <glyph glyph-name="T" unicode="T" horiz-adv-x="3867" 
d="M3845 1861q22 -78 22 -156q0 -230 -160.5 -390.5t-390.5 -160.5q-85 0 -167 25l-538 -538l1221 -1167l-487 -487l-1169 1221l-511 -513q24 -83 24 -166q0 -232 -159.5 -392.5t-391.5 -160.5q-78 0 -156 22l424 424l-417 418l-424 -424q-23 78 -23 156q0 230 161 390.5
t393 160.5q78 0 156 -20l524 522l-758 792l383 384l790 -759l549 549q-20 76 -20 154q0 235 161 395.5t391 160.5q80 0 158 -22l-424 -424l415 -418zM1004 2196l-381 -381l-74 73l382 382zM2258 2134q-140 56 -290 56q-225 0 -370 -143l-835 -835l87 -87l-317 -319l-533 533
l317 317l98 -96l830 830q172 170 368 170q331 0 645 -426z" />
    <glyph glyph-name="U" unicode="U" horiz-adv-x="2689" 
d="M168 2560h1624q897 -857 897 -1121v-2351q0 -112 -114 -112h-2463q-112 0 -112 112v3136q35 336 168 336zM448 656v-447q17 -112 111 -112h1569q112 0 112 112v447q-726 783 -784 783h-223zM1233 992h223l560 -560q0 -112 -112 -112h-1121q-112 0 -112 112z" />
    <glyph glyph-name="V" unicode="V" horiz-adv-x="2689" 
d="M168 2560h1624q897 -857 897 -1121v-2351q0 -112 -114 -112h-2463q-112 0 -112 112v3136q35 336 168 336zM448 824v-560q438 -617 785 -617h223q345 0 784 617v560q-320 488 -560 615h-671q-241 -127 -561 -615zM1121 1160h447q448 -319 448 -616q0 -454 -672 -671
q-673 187 -673 727q0 208 450 560z" />
    <glyph glyph-name="W" unicode="W" horiz-adv-x="3910" 
d="M3910 279h-976v-1303h-2934v2281h978v1303h2932v-2281zM3584 605v1305h-2281v-653h1631v-652h650zM2608 -698v1303h-2282v-1303h2282z" />
    <glyph glyph-name="X" unicode="X" horiz-adv-x="3909" 
d="M3909 -1024h-3909v3584h3909v-3584zM3584 -698v2606h-3258v-2606h3258z" />
    <glyph glyph-name="Y" unicode="Y" horiz-adv-x="4781" 
d="M2389 220q0 -149 -85.5 -248t-212.5 -99h-1194q-127 0 -213 99t-86 248t20.5 273.5t68.5 240t141 182.5t228 67q12 -10 68 -42.5t88 -50t83 -41t100 -33.5t98 -10t98 10t101 33.5t83.5 41t87 50t69.5 42.5q133 0 227 -67t141.5 -182.5t68 -240t20.5 -273.5zM2024 1433.5
q0 -219.5 -155.5 -374.5t-375 -155t-374.5 155t-155 374.5t155 375t374.5 155.5t375 -155.5t155.5 -375zM4182 395v-151q0 -32 -21.5 -52.5t-53.5 -20.5h-1344q-33 0 -53 20.5t-20 52.5v151q0 33 20 53.5t53 20.5h1344q32 0 53.5 -20.5t21.5 -53.5zM4182 983v-130
q0 -37 -24.5 -61.5t-58.5 -24.5h-1326q-34 0 -58.5 24.5t-24.5 61.5v130q0 35 24.5 59.5t58.5 24.5h1326q34 0 58.5 -24.5t24.5 -59.5zM4182 1590v-149q0 -33 -21.5 -54.5t-53.5 -21.5h-1344q-33 0 -53 21.5t-20 54.5v149q0 33 20 53t53 20h1344q32 0 53.5 -20t21.5 -53z
M4481 -650v2836q0 31 -21.5 53.5t-52.5 22.5h-4033q-31 0 -53.5 -22.5t-22.5 -53.5v-2836q0 -31 22.5 -53.5t53.5 -22.5h821v225q0 32 21.5 52.5t53.5 20.5h149q33 0 53.5 -20.5t20.5 -52.5v-225h1793v225q0 32 21.5 52.5t53.5 20.5h149q33 0 53.5 -20.5t20.5 -52.5v-225
h823q31 0 52.5 22.5t21.5 53.5zM4781 2186v-2836q0 -155 -110.5 -264.5t-263.5 -109.5h-4033q-155 0 -264.5 109.5t-109.5 264.5v2836q0 155 109.5 264.5t264.5 109.5h4033q153 0 263.5 -109.5t110.5 -264.5z" />
    <glyph glyph-name="Z" unicode="Z" horiz-adv-x="3935" 
d="M2431 1190h1504l-1219 -843l469 -1371l-1217 851l-1217 -851l468 1371l-1219 845h1506l462 1368z" />
    <glyph glyph-name="bracketleft" unicode="[" horiz-adv-x="3819" 
d="M118 2560q117 -18 117 -117v-3232h3467q117 -18 117 -117q0 -118 -117 -118h-3584q-118 0 -118 118v3349q18 117 118 117zM1939 2208h411q118 -19 118 -118v-2468q0 -117 -118 -117h-411q-118 0 -118 117v2468q19 118 118 118zM764 1679h470q117 -19 117 -118v-1939
q0 -117 -117 -117h-470q-118 0 -118 117v1939q19 118 118 118zM2997 856h470q117 -18 117 -117v-1117q0 -117 -117 -117h-470q-118 0 -118 117v1117q18 117 118 117z" />
    <glyph glyph-name="backslash" unicode="\" horiz-adv-x="3363" 
d="M110 2560q111 -17 111 -110v-3253h3032q110 -18 110 -111q0 -110 -110 -110h-3143q-110 0 -110 110v3364q17 110 110 110zM607 2339h1047q110 -17 110 -110v-441q0 -110 -110 -110h-1047q-111 0 -111 110v441q17 110 111 110zM607 1292h2315q111 -17 111 -110v-386
q0 -111 -111 -111h-2315q-111 0 -111 111v386q17 110 111 110zM607 244h1819q110 -17 110 -110v-441q0 -110 -110 -110h-1819q-111 0 -111 110v441q17 110 111 110z" />
    <glyph glyph-name="bracketright" unicode="]" horiz-adv-x="3823" 
d="M153 2545l19 -23l7 -81v-2450l-1 -63q897 915 972 1007l100 103l867 -539l33 30l1434 1553q42 0 70 -22q23 -19 44 -49q17 -24 24 -46q6 -28 -19 -62q-1445 -1665 -1525 -1752q-801 498 -915 549q-543 -586 -1082 -1142l-2 -403h3524q137 2 120 -119l-15 -35l-48 -19
l-57 -6h-3584q-119 0 -119 119v3346q17 107 93 119h29z" />
    <glyph glyph-name="asciicircum" unicode="^" horiz-adv-x="3823" 
d="M153 2545l19 -23l7 -81v-2450l-1 -63q897 915 972 1007l100 103l867 -539l33 30l1434 1553q36 1 70 -22q23 -19 46 -51v-45v-61q-1 -1630 0 -1869v-879v0q140 2 123 -119l-15 -35l-48 -19l-57 -6h-3584q-119 0 -119 119v3346q17 107 93 119h29z" />
    <glyph glyph-name="underscore" unicode="_" horiz-adv-x="3722" 
d="M1654 643l1176 -1176q-228 -233 -533 -362t-643 -129q-450 0 -830 222t-602 602t-222 830t222 830.5t602 602t830 221.5v-1641zM2057 630h1665q0 -338 -129.5 -643t-361.5 -533zM3584 906h-1654v1654q450 0 830 -222t602 -602t222 -830z" />
    <glyph glyph-name="grave" unicode="`" horiz-adv-x="4754" 
d="M473 2560h75q89 0 199 -100h298l150 25q69 -60 497 -124q162 50 224 50h25q110 -75 174 -75q8 50 50 50l249 -75l100 50q144 -39 174 -150q68 0 448 -149h224q0 27 25 75q249 0 249 -174l124 24q75 -24 75 -49l50 25h24q56 0 100 -25l149 74q114 -48 125 -99l-50 -25
l25 -125v-24q-467 -424 -747 -424l-74 -99q24 -44 24 -100q-108 0 -398 -572q50 -216 199 -299v-25q-298 -190 -348 -472q25 -49 25 -75h-199q-133 -60 -299 -398h-25q0 49 -50 49h-74l-75 -49q-75 0 -75 25l-249 -25h-273q-75 -84 -349 -150q0 -105 -149 -149
q-174 0 -299 448q-97 85 -323 124l-25 50v150q2 30 174 224q-99 126 -99 149l124 298q-75 0 -149 224q-25 0 -25 25l50 25h149q0 16 50 150q-50 0 -50 49l75 100v299q0 13 224 224v49q-125 0 -125 125q-43 25 -99 25h-50l-75 -50l-224 25q-48 -25 -75 -25q-24 48 -24 75
q24 48 24 74h-24q-120 -30 -200 -99l-24 49v50q7 50 49 50l-25 50v74l25 50q-80 0 -149 199v25q92 150 348 150q0 102 125 149zM4604 917h75q36 0 75 -74l-50 -25q-150 25 -150 74zM4256 843h74q0 -100 125 -100q-66 -187 -125 -199q-149 0 -149 99l-50 -24h-25
q-49 0 -49 49q56 94 199 175zM3783 444l25 -49q0 -39 -100 -100q-49 0 -49 50q10 51 124 99z" />
    <glyph glyph-name="a" unicode="a" horiz-adv-x="3579" 
d="M3230 2560q140 0 244.5 -93t104.5 -233q0 -126 -89 -302q-664 -1257 -930 -1503q-194 -182 -436 -182q-252 0 -433 185t-181 438q0 256 184 424l1276 1158q118 108 260 108zM1412 493q78 -152 213 -260t301 -152l2 -142q8 -426 -259 -694t-697 -268q-246 0 -436 93
t-305 255t-173 366t-58 440q14 -10 82 -60t124 -89t118 -73t92 -34q82 0 110 74q50 132 115 225t139 152t176 95t206 51t250 21z" />
    <glyph glyph-name="b" unicode="b" horiz-adv-x="2695" 
d="M231 -1024q-47 0 -89 20t-73.5 53.5t-50 80t-18.5 100.5v3076q0 54 18.5 100.5t50 80.5t73.5 53.5t89 19.5h1332q35 0 58 -27t49 -52l998 -980q10 -21 18 -33.5t8 -40.5v-2197q0 -54 -18.5 -100.5t-51 -80t-73.5 -53.5t-85 -20h-2235zM2463 -796q3 5 5 8.5t2 17.5v1991
h-1014q-49 0 -80.5 32t-31.5 80v999h-1113q-3 -3 -5 -6.5t-2 -19.5v-3076q0 -14 2 -17.5t5 -8.5h2232zM1568 1445h807l-807 795v-795z" />
    <glyph glyph-name="c" unicode="c" horiz-adv-x="3584" 
d="M2934 849v-162q0 -36 -23.5 -59.5t-59.5 -23.5h-895v-895q0 -36 -23.5 -58t-59.5 -22h-162q-36 0 -59.5 22t-23.5 58v895h-895q-36 0 -58 23.5t-22 59.5v162q0 36 22 59.5t58 23.5h895v895q0 36 23.5 59.5t59.5 23.5h162q36 0 59.5 -23.5t23.5 -59.5v-895h895
q36 0 59.5 -23.5t23.5 -59.5zM3259 -291v2118q0 167 -120.5 287.5t-287.5 120.5h-2118q-167 0 -287.5 -120.5t-120.5 -287.5v-2118q0 -167 120.5 -287.5t287.5 -120.5h2118q167 0 287.5 120.5t120.5 287.5zM3584 1827v-2118q0 -303 -215 -518t-518 -215h-2118
q-303 0 -518 215t-215 518v2118q0 303 215 518t518 215h2118q303 0 518 -215t215 -518z" />
    <glyph glyph-name="d" unicode="d" horiz-adv-x="3584" 
d="M2934 849v-162q0 -36 -23.5 -59.5t-59.5 -23.5h-2118q-36 0 -58 23.5t-22 59.5v162q0 36 22 59.5t58 23.5h2118q36 0 59.5 -23.5t23.5 -59.5zM3259 -291v2118q0 167 -120.5 287.5t-287.5 120.5h-2118q-167 0 -287.5 -120.5t-120.5 -287.5v-2118q0 -167 120.5 -287.5
t287.5 -120.5h2118q167 0 287.5 120.5t120.5 287.5zM3584 1827v-2118q0 -303 -215 -518t-518 -215h-2118q-303 0 -518 215t-215 518v2118q0 303 215 518t518 215h2118q303 0 518 -215t215 -518z" />
    <glyph glyph-name="e" unicode="e" horiz-adv-x="3624" 
d="M2640 157h901q-172 -496 -595 -806.5t-965 -310.5q-532 0 -948 300.5t-598 781.5q-313 -654 -88 -910q290 -272 817 -5q-331 -192 -599.5 -225t-444.5 136q-204 229 -61 830.5t647 1266.5v0.5t0.5 1t1 1.5t1 1.5t2.5 0.5q35 47 79 96l9 12h0.5h1.5t1.5 0.5t1 1.5t0.5 3
q16 22 40 44q4 4 7 7.5t3 7.5q14 11 25 24l24 25q7 8 15 20q7 11 14 19l10 8q6 3 10 7l123 123q4 4 7 5l34 30q27 24 48 49q13 7 19 15l74 59q8 13 15 19l59 45l16 13q5 3 9 6q24 23 53 43q8 6 15 11q8 8 15 13q8 5 15 12l59 44q23 16 39 25q8 7 18 12q9 5 17 13l74 44
l19 20q38 22 77 44t76 44q-660 -280 -1319 -1048q-84 -98 -153 -197q105 604 554 998.5t1066 394.5q59 0 118 -5q447 204 799.5 229.5t518.5 -136.5q261 -274 64 -748q110 358 -98 576q-251 225 -812 -29q470 -186 761.5 -598t291.5 -933q0 -103 -10 -202h-2332
q28 -190 108 -329q229 -374 591 -374q199 0 377 80t282 294zM1292 944h1412q-66 341 -271 493t-452 152q-244 0 -433 -168.5t-256 -476.5z" />
    <glyph glyph-name="f" unicode="f" horiz-adv-x="2991" 
d="M153 2560h2688q63 0 106 -43.5t43 -106t-43 -106t-106 -43.5h-2688q-63 0 -106 43.5t-43 106t43 106t106 43.5zM1796 469v-896l-598 -597v1493l-1045 1494h2688z" />
    <glyph glyph-name="g" unicode="g" horiz-adv-x="2934" 
d="M815 932h1303v488q0 269 -191.5 460.5t-461 191.5t-460 -191.5t-190.5 -460.5v-488zM2934 687v-1466q0 -102 -71.5 -173.5t-173.5 -71.5h-2444q-102 0 -173.5 71.5t-71.5 173.5v1466q0 102 71.5 173.5t173.5 71.5h80v488q0 467 336.5 803.5t805.5 336.5t804 -336.5
t335 -803.5v-488h83q102 0 173.5 -71.5t71.5 -173.5z" />
    <glyph glyph-name="h" unicode="h" horiz-adv-x="2934" 
d="M245 932h1874v488q0 271 -190.5 461.5t-460 190.5t-461 -190.5t-191.5 -461.5q0 -65 -48 -114t-115 -49h-163q-66 0 -114 49t-48 114q0 472 334 806t805 334t806.5 -334t335.5 -806v-488h80q102 0 173.5 -71.5t71.5 -173.5v-1466q0 -102 -71.5 -173.5t-173.5 -71.5h-2444
q-102 0 -173.5 71.5t-71.5 173.5v1466q0 102 71.5 173.5t173.5 71.5z" />
    <glyph glyph-name="i" unicode="i" horiz-adv-x="3860" 
d="M1909 -37l-58 -80q-599 -907 -983 -907q-442 0 -868 718q58 -4 85 -4q503 0 1121 769l104 130l-135 146q-564 599 -564 1018q0 342 618 807q89 -596 526 -1160l116 -146l92 119q641 818 1164 818q407 0 618 -618q-61 7 -88 7q-185 0 -519 -247.5t-564 -558.5l-116 -158
l112 -107q618 -600 1290 -600q-361 -729 -753 -729q-353 0 -1021 622z" />
    <glyph glyph-name="j" unicode="j" horiz-adv-x="3774" 
d="M3679 2560l95 -137q-582 -438 -1295 -1349.5t-1089 -1702.5l-201 -137q-250 -174 -340 -258q-35 128 -155 419l-76 177q-164 381 -304 563t-314 242q294 310 539 310q209 0 465 -568l84 -191q460 776 1181 1508t1410 1124z" />
    <glyph glyph-name="k" unicode="k" horiz-adv-x="3584" 
d="M3072 2560l-1280 -1280l-1280 1280l-512 -512l1280 -1280l-1280 -1280l512 -512l1280 1280l1280 -1280l512 512l-1280 1280l1280 1280z" />
    <glyph glyph-name="l" unicode="l" horiz-adv-x="3345" 
d="M3345 1126l-2150 -2150l-1195 1195v1433l1195 -1191l2150 2147v-1434z" />
    <glyph glyph-name="m" unicode="m" horiz-adv-x="4780" 
d="M1707 768l-1588 1589v-3178zM2988 683l-428 -426q-71 -73 -170 -73t-172 73l-426 426l-1589 -1588h4372zM3073 768l1586 -1589v3178zM203 2441l2102 -2102q34 -33 85 -33t85 33l2102 2102h-4374zM0 2560h4780v-3584h-4780v3584z" />
    <glyph glyph-name="n" unicode="n" horiz-adv-x="4300" 
d="M90 2560h4120q36 0 45 -18t-19 -47l-2021 -2032q-29 -28 -65 -28t-64 28l-2021 2032q-29 29 -20 47t45 18zM65 1779l946 -946q28 -29 28 -65t-28 -65l-946 -946q-29 -28 -47 -19t-18 45v1970q0 36 18 45t47 -19zM3290 833l946 946q28 28 46 19t18 -45v-1970
q0 -36 -18 -45t-46 19l-946 946q-29 29 -29 65t29 65zM2931 345l1305 -1304q28 -29 19 -47t-45 -18h-4120q-36 0 -45 18t20 47l1304 1304q29 29 64.5 29t64.5 -29l588 -588q28 -28 64 -28t65 28l587 588q29 29 65 29t64 -29z" />
    <glyph glyph-name="o" unicode="o" horiz-adv-x="3584" 
d="M0 -547v2870q0 99 70 168t170 69h3107q99 0 168 -69t69 -168v-3107q0 -100 -69 -170t-168 -70h-2870zM1673 170h-598v-1075h598v1075zM2630 -905h717q60 0 89 30t29 88v3110q0 118 -118 118h-359v-1433q0 -100 -70 -170t-169 -70h-1914q-99 0 -168 70t-69 170v1433h-358
q-121 0 -121 -118v-2822l406 -406h432v1075q0 121 118 121h1434q121 0 121 -121v-1075zM2867 2441h-2150v-1433q0 -58 30 -88.5t88 -30.5l1914 -2q118 0 118 121v1433z" />
    <glyph glyph-name="p" unicode="p" horiz-adv-x="3286" 
d="M1195 1141v-1344q0 -33 -20.5 -54.5t-53.5 -21.5h-151q-33 0 -53 21.5t-20 54.5v1344q0 32 20 53.5t53 21.5h151q33 0 53.5 -21.5t20.5 -53.5zM1793 1141v-1344q0 -33 -21.5 -54.5t-54.5 -21.5h-149q-32 0 -53.5 21.5t-21.5 54.5v1344q0 32 21.5 53.5t53.5 21.5h149
q33 0 54.5 -21.5t21.5 -53.5zM2389 1141v-1344q0 -33 -20.5 -54.5t-52.5 -21.5h-149q-33 0 -54.5 21.5t-21.5 54.5v1344q0 32 21.5 53.5t54.5 21.5h149q32 0 52.5 -21.5t20.5 -53.5zM2690 -548v2211h-2092v-2211q0 -51 16.5 -95t34 -63.5t23.5 -19.5h1942q6 0 24.5 19.5
t35 63.5t16.5 95zM1121 1964h1046l-113 271q-16 23 -40 27h-740q-22 -4 -38 -27zM3286 1888v-149q0 -33 -20.5 -54.5t-53.5 -21.5h-224v-2211q0 -194 -110.5 -335t-263.5 -141h-1942q-153 0 -263.5 136t-110.5 330v2221h-222q-33 0 -54.5 21.5t-21.5 54.5v149
q0 33 21.5 54.5t54.5 21.5h720l164 388q35 88 125.5 148t184.5 60h746q94 0 184.5 -60t125.5 -148l163 -388h723q33 0 53.5 -21.5t20.5 -54.5z" />
    <glyph glyph-name="q" unicode="q" horiz-adv-x="3985" 
d="M3589 -174q406 -240 395 -639q-6 -76 -19 -111.5t-56.5 -49t-141.5 -22.5q-115 -13 -610.5 -20.5t-1095.5 -7.5q-679 0 -1259.5 7.5t-662.5 20.5q-194 75 -116 338.5t355 455.5q230 148 545 301t449 188q161 27 169.5 155t-163.5 434q-44 77 -83 262.5t-45 415.5
q-15 359 92.5 601.5t413.5 360.5q125 44 250 44q208 0 384.5 -105t259.5 -278q109 -261 80.5 -704t-152.5 -691q-133 -244 -121.5 -348.5t165.5 -140.5q109 -30 377.5 -160.5t589.5 -306.5z" />
    <glyph glyph-name="r" unicode="r" horiz-adv-x="3584" 
d="M535 512q72 -364 351 -643q374 -373 903 -373q528 0 902 373q56 57 105 118q-231 154 -492 269l1280 512v-1536q-177 236 -381 428q-67 -82 -144 -159q-525 -525 -1267 -525t-1267 525q-433 432 -510 1011h520zM3046 1024q-69 364 -348 643q-374 373 -903 373
q-528 0 -902 -373q-56 -57 -105 -118q231 -154 492 -269l-1280 -512v1536q177 -236 381 -428q67 82 144 159q525 525 1267 525t1267 -525q433 -432 510 -1011h-523z" />
    <glyph glyph-name="s" unicode="s" horiz-adv-x="2153" 
d="M0 984l1076 1576l1077 -1576h-2153zM2153 552l-1077 -1576l-1076 1576h2153z" />
    <glyph glyph-name="t" unicode="t" horiz-adv-x="1564" 
d="M1564 782l-782 -782l-782 782h1564z" />
    <glyph glyph-name="u" unicode="u" horiz-adv-x="2980" 
d="M1574 -475q-155 0 -257 117q-40 45 -85 5q-43 -37 -5 -82q140 -157 347 -157q209 0 349 157q38 45 -5 82q-45 40 -85 -5q-102 -117 -259 -117zM628 633q-58 -55 -58 -135q0 -79 58 -134q55 -58 135 -58t134 58q58 55 58 134q0 80 -58 135q-54 55 -134 55t-135 -55z
M2100 633q-54 -55 -54 -135q0 -79 54 -134q55 -58 135 -58t135 58q57 55 57 134q0 80 -57 135q-55 55 -135 55t-135 -55zM558 -420q-392 482 -417 1178q112 62 167 107q43 35 315 143q227 89 319 234q-22 -339 -142 -476q97 -8 220 39q244 100 367 387q77 -137 22 -289
q92 25 197 90q210 132 270 334q55 -187 12 -307q292 187 380 494q20 8 42 -5q45 -25 67 -129q183 -679 442 -904q-100 -597 -469 -988q-374 -395 -856 -395q-544 0 -936 487zM1272 2548q-794 -80 -1093 -719q-130 -272 -175 -607q-8 -55 2 -239q10 -220 8 -295q5 3 12 8
q45 -724 467 -1221q422 -499 1001 -499q576 0 1001 502q422 496 464 1223q67 529 -80 946q-217 619 -871 853q-339 87 -736 48z" />
    <glyph glyph-name="v" unicode="v" horiz-adv-x="4888" 
d="M3259 524q0 36 -23.5 58t-58.5 22h-571v898q0 34 -23 57t-57 23h-490q-33 0 -56.5 -23t-23.5 -57v-898h-570q-34 0 -58.5 -23t-24.5 -57q0 -35 23 -58l897 -897q23 -23 58.5 -23t57.5 23l893 893q27 31 27 62zM4888 -46q0 -405 -286.5 -691.5t-691.5 -286.5h-2769
q-470 0 -805.5 335.5t-335.5 805.5q0 332 178 611.5t479 419.5q-4 76 -4 109q0 539 381 921t922 382q396 0 726 -221.5t479 -586.5q183 158 423 158q270 0 461.5 -191.5t191.5 -461.5q0 -194 -105 -352q330 -78 543 -344t213 -607z" />
    <glyph glyph-name="w" unicode="w" horiz-adv-x="4887" 
d="M3259 687q0 35 -22 58l-898 897q-22 23 -58 23t-58 -23l-893 -895q-27 -29 -27 -60q0 -36 23.5 -59.5t59.5 -23.5h570v-895q0 -34 23.5 -57t56.5 -23h490q34 0 57 23t23 57v895h571q33 0 57.5 24.5t24.5 58.5zM4887 -46q0 -406 -286 -692t-692 -286h-2768
q-470 0 -805.5 335.5t-335.5 805.5q0 331 178 611t479 420q-4 76 -4 109q0 539 381 921t922 382q396 0 726 -221.5t479 -586.5q183 158 423 158q270 0 461.5 -191.5t191.5 -461.5q0 -194 -105 -352q330 -78 542.5 -344t212.5 -607z" />
    <glyph glyph-name="x" unicode="x" horiz-adv-x="3307" 
d="M3307 630q0 -336 -131 -641.5t-353 -527.5t-527.5 -353t-641.5 -131t-642 131t-527.5 353t-353 527.5t-131.5 641.5q0 392 173.5 739t487.5 581q93 69 206 54t179 -108q69 -90 53 -203t-106 -182q-211 -159 -326.5 -389.5t-115.5 -491.5q0 -224 87.5 -427.5t236 -352
t352 -235.5t427.5 -87t427.5 87t352 235.5t235.5 352t87 427.5q0 261 -115 491.5t-326 389.5q-91 69 -107 182t53 203q67 93 181 108t204 -54q315 -234 488 -581t173 -739zM1929 2284v-1378q0 -112 -81.5 -194t-193.5 -82t-194 82t-82 194v1378q0 112 82 194t194 82
t193.5 -82t81.5 -194z" />
    <glyph glyph-name="y" unicode="y" horiz-adv-x="5068" 
d="M0 768l1255 -1252q245 -253 571 -396q332 -144 708 -144q379 0 705 144q335 143 577 393l1252 1255l-1254 1254q-245 250 -575 391q-326 146 -705 146q-376 5 -708 -143q-326 -144 -574 -396zM673 768l921 920q183 193 428 295q245 101 512 101t510 -101
q243 -104 436 -297l918 -918l-923 -921q-186 -193 -431 -294q-243 -102 -510 -102t-510 102q-242 104 -435 297zM2534 1718q-198 5 -371 -74q-173 -74 -302 -206q-129 -126 -203 -302q-74 -170 -74 -368t74 -371q74 -174 203 -302q129 -129 302 -203q173 -75 371 -75t369 75
q176 74 302 203q129 128 203 302q76 173 76 371q5 198 -74 368q-74 176 -205 302q-126 129 -302 203q-171 77 -369 77zM2851 768q-134 0 -225 91q-92 92 -92 226q0 133 92 222q91 94 225 94q134 5 223 -91q94 -92 94 -225q5 -134 -92 -226q-91 -91 -225 -91z" />
    <glyph glyph-name="z" unicode="z" horiz-adv-x="5068" 
d="M3420 2324q-193 112 -421 174q-222 61 -465 61q-376 5 -708 -143q-326 -144 -574 -396l-1252 -1252l930 -931l337 337l-594 594l921 920q183 193 428 295q245 101 512 101q282 0 532 -114zM839 -705l3168 3168l222 -223l-3167 -3167zM2777 1683q-114 35 -243 35
q-198 5 -371 -74q-173 -74 -302 -206q-129 -126 -203 -302q-74 -170 -74 -368q5 -129 34 -243zM3801 1364l597 -596l-923 -921q-186 -193 -431 -294q-243 -102 -510 -102q-282 0 -532 114l-354 -354q201 -111 418 -173q226 -62 468 -62q379 0 705 144q335 143 577 393
l1252 1255l-930 930zM2292 -148q113 -30 242 -35q198 0 369 75q176 74 302 203q128 128 203 301q76 174 76 372q0 128 -34 242z" />
    <glyph glyph-name="braceleft" unicode="{" horiz-adv-x="3134" 
d="M231 -1024q-47 0 -89 20t-73.5 53.5t-50 80t-18.5 100.5v3076q0 54 18.5 100.5t50 80.5t73.5 53.5t89 19.5h1332q35 0 58 -27t49 -52l998 -980q10 -21 18 -33.5t8 -40.5v-2197q0 -54 -18.5 -100.5t-51 -80t-73.5 -53.5t-85 -20h-2235zM2463 -796q3 5 5 8.5t2 17.5v1991
h-1014q-49 0 -80.5 32t-31.5 80v999h-1113q-3 -3 -5 -6.5t-2 -19.5v-3076q0 -14 2 -17.5t5 -8.5h2232zM1568 1445h807l-807 795v-795zM314 215l508 -507q99 -102 231 -160q134 -58 286 -58q154 0 286 58q135 58 233 159l506 508l-507 507q-99 101 -232 158q-132 59 -286 59
q-152 2 -286 -58q-132 -58 -232 -160zM587 215l372 372q74 78 173 119t207 41t207 -41q98 -42 176 -120l371 -371l-373 -373q-75 -78 -174 -119t-207 -41t-206 41q-98 42 -176 120zM1339 599q-80 2 -150 -30q-70 -30 -122 -83q-52 -51 -82 -123q-30 -68 -30 -148
q0 -81 30 -151t82 -122t122 -82t150 -30t150 30q71 30 122 82q52 52 82 122q31 70 31 151q2 80 -30 148q-30 72 -83 123q-51 52 -122 82q-70 31 -150 31zM1468 215q-55 0 -91 36q-38 38 -38 92t38 90q36 38 91 38q54 2 90 -37q38 -37 38 -91q2 -54 -37 -92q-37 -36 -91 -36z
" />
    <glyph glyph-name="bar" unicode="|" horiz-adv-x="3882" 
d="M0 863q0 155 110 265q115 111 270 111h345q-47 -47 -133 -186h-212q-40 0 -74 -15.5t-59.5 -41t-41 -59.5t-15.5 -74v-1507q0 -40 15.5 -74t41 -59.5t59.5 -41t74 -15.5h2263q77 0 131 56.5t54 133.5v254l190 190v-444q0 -157 -110 -267q-111 -113 -265 -113h-2263
q-155 0 -267 113q-113 108 -113 267v1507zM678 -78q0 386 148 731q148 347 403 601q249 250 598 400q352 150 734 150v756l1321 -1321l-1321 -1317v751q-517 0 -946 -102q-435 -99 -685 -274q-252 -172 -252 -375z" />
    <glyph glyph-name="braceright" unicode="}" horiz-adv-x="2690" 
d="M2690 1606v-2630h-2690v3584h1734zM1346 -10l-243 1056l-416 -3v-1456h294v394l-27 607l291 -1001h200l291 1001l-27 -607v-394h295v1456h-384z" />
    <glyph glyph-name="asciitilde" unicode="~" horiz-adv-x="2047" 
d="M877 439.5q0 -182.5 -128 -310.5t-310.5 -128t-310.5 128t-128 310.5t128 310.5t310.5 128t310.5 -128t128 -310.5zM877 1609.5q0 -182.5 -128 -310.5t-310.5 -128t-310.5 128t-128 310.5t128 310.5t310.5 128t310.5 -128t128 -310.5zM2047 1609.5q0 -182.5 -128 -310.5
t-310.5 -128t-310.5 128t-128 310.5t128 310.5t310.5 128t310.5 -128t128 -310.5zM2043 438.5q0 -182.5 -127.5 -310.5t-310.5 -128t-311 128t-128 310.5t128 310.5t311 128t310.5 -128t127.5 -310.5z" />
    <glyph glyph-name="exclamdown" unicode="&#xa1;" horiz-adv-x="2852" 
d="M1523 2511l1300 -1589q40 -49 25 -84t-79 -35h-886v-1675q0 -64 -44.5 -108t-108.5 -44h-609q-63 0 -107.5 44t-44.5 108v1675h-886q-64 0 -79 35t24 84l1301 1589q39 49 97 49t97 -49z" />
    <glyph glyph-name="cent" unicode="&#xa2;" horiz-adv-x="3584" 
d="M1973 1419v362h-353v-362h353zM1973 -200v1257h-353v-1257h353zM1792 2560q740 0 1266 -526t526 -1266t-526 -1266t-1266 -526t-1266 526t-526 1266t526 1266t1266 526z" />
    <glyph glyph-name="sterling" unicode="&#xa3;" horiz-adv-x="3584" 
d="M2912 2560q278 0 475 -197t197 -475v-2240q0 -277 -197 -474.5t-475 -197.5h-439v1389h465l70 541h-535v345q0 131 55 196.5t214 65.5l284 2v483q-147 21 -415 21q-317 0 -507.5 -186.5t-190.5 -527.5v-399h-466v-541h466v-1389h-1241q-278 0 -475 197.5t-197 474.5v2240
q0 278 197 475t475 197h2240z" />
    <glyph glyph-name="currency" unicode="&#xa4;" horiz-adv-x="3584" 
d="M2987 1436q-131 -59 -283 -80q159 94 217 273q-151 -88 -312 -119q-143 154 -357 154q-203 0 -346.5 -143.5t-143.5 -346.5q0 -67 11 -112q-301 17 -564.5 152t-447.5 362q-68 -117 -68 -248q0 -266 212 -408q-109 2 -233 61v-5q0 -175 116.5 -311.5t287.5 -169.5
q-68 -18 -119 -18q-31 0 -91 9q49 -147 173.5 -242.5t283.5 -98.5q-271 -210 -609 -210q-61 0 -117 7q346 -219 752 -219q261 0 489.5 83t392 221.5t281.5 319.5t175 378t57 393q0 42 -2 63q147 105 245 255zM3584 1888v-2240q0 -277 -197 -474.5t-475 -197.5h-2240
q-278 0 -475 197.5t-197 474.5v2240q0 278 197 475t475 197h2240q278 0 475 -197t197 -475z" />
    <glyph glyph-name="yen" unicode="&#xa5;" horiz-adv-x="3584" 
d="M768 2559q-160 4 -300 -60q-140 -60 -244 -166q-104 -102 -164 -244q-60 -138 -60 -298v-256h774q174 234 438 372q268 140 580 140q311 0 575 -140q268 -138 442 -372h774v256q4 160 -60 298q-60 142 -166 244q-102 104 -244 164q-138 62 -298 62h-2047zM2815 1791
q-108 0 -182 74t-74 182t74 180q74 76 182 76q108 4 180 -74q76 -74 76 -182q4 -108 -74 -182q-74 -74 -182 -74zM1792 -256q209 0 395 80q188 80 326 218t220 324q82 192 82 402q0 209 -82 395q-82 188 -220 326t-324 220t-397 82q-212 0 -400 -82t-326 -220t-218 -324
t-80 -397q0 -212 80 -400t218 -326t324 -218q192 -80 402 -80zM1792 1535q159 4 297 -60q142 -60 244 -166q104 -102 164 -244q62 -138 62 -297q4 -160 -60 -300q-60 -140 -166 -244q-102 -104 -244 -164q-138 -60 -297 -60q-160 0 -300 60t-244 164t-164 244t-60 300
q0 159 60 297q60 142 164 244q104 104 244 164q140 62 300 62zM0 1279v-1535q0 -160 60 -300t164 -244t244 -164t300 -60h2047q160 0 298 60q142 60 244 164q104 104 164 244q62 140 62 300v1535h-620q104 -236 108 -511q0 -264 -100 -498q-102 -234 -276 -408
q-172 -174 -406 -274t-497 -100q-264 0 -498 100t-408 274t-274 406q-100 236 -100 500q6 275 108 511h-620z" />
    <glyph glyph-name="brokenbar" unicode="&#xa6;" horiz-adv-x="5017" 
d="M1075 2559q-224 5 -420 -84q-196 -84 -342 -233q-145 -142 -229 -341q-84 -193 -84 -417v-1433q0 -224 84 -420t229 -342q146 -145 342 -229t420 -84h2866q224 0 417 84q199 84 341 229q146 146 230 342q87 196 87 420v1433q5 224 -84 417q-84 199 -233 341
q-142 146 -341 230q-193 87 -417 87h-2866zM1791 1842l1792 -1075l-1792 -1074v2149z" />
    <glyph glyph-name="section" unicode="&#xa7;" horiz-adv-x="2507" 
d="M1253.5 861q185.5 0 315.5 130t130 315.5t-130 315.5t-315.5 130t-315.5 -130t-130 -315.5t130 -315.5t315.5 -130zM1253.5 2560q521.5 0 887.5 -366t366 -888q0 -260 -130.5 -596.5t-315.5 -631t-366 -551.5t-307 -408l-134 -143q-51 59 -135 155.5t-303 387t-383 564
t-298.5 618.5t-134.5 605q0 522 366 888t887.5 366z" />
    <glyph glyph-name="dieresis" unicode="&#xa8;" horiz-adv-x="3584" 
d="M449 2560h2686q185 0 317 -132t132 -317v-448h-558v558h-279v-558h-564v-279h564v-564h279v564h558v-1965q0 -184 -132 -313.5t-317 -129.5h-1072q5 49 5 98q0 280 -91 460t-379 389q-18 13 -41 30q-100 69 -210 165t-110 177q0 102 47 175t199 191q159 124 260 287
t101 364q0 218 -90.5 398t-259.5 281h323l273 290h-1215q-517 0 -875 -367v197q0 185 132 317t317 132zM1357 1285q53 -676 -460 -695q-253 13 -449.5 214t-245.5 530q-35 331 102.5 539t384.5 211q252 -17 436.5 -241.5t231.5 -557.5zM0 -307v968q243 -251 662 -251
q58 0 115 5q-66 -118 -66 -241q0 -106 52.5 -178t128.5 -139h-224q-378 0 -668 -164zM1691 -1024h-1242q-160 0 -281 95t-157 250q250 373 821 394q164 0 312 -55q69 -49 134 -93q152 -98 258 -192.5t138 -223.5q17 -60 17 -126v-49z" />
    <glyph glyph-name="copyright" unicode="&#xa9;" horiz-adv-x="4781" 
d="M4237 1339v-1793q0 -234 -168.5 -402t-402.5 -168h-3096q-234 0 -402 168t-168 402v2444q0 234 168 402t402 168h815q234 0 402.5 -168t168.5 -402v-80h1710q234 0 402.5 -168.5t168.5 -402.5z" />
    <glyph glyph-name="ordfeminine" unicode="&#xaa;" horiz-adv-x="4782" 
d="M4782 462q0 -78 -78 -167l-855 -1009q-109 -130 -306.5 -220t-366.5 -90h-2768q-87 0 -155 33.5t-68 109.5q0 78 80 167l855 1009q109 129 306.5 219t366.5 90h2769q86 0 153 -32t67 -110zM3909 1339v-407h-2116q-241 0 -502.5 -121.5t-417.5 -304.5l-857 -1009l-14 -15
q0 11 -1 32t-1 32v2444q0 233 168 401.5t402 168.5h815q234 0 402.5 -168.5t168.5 -401.5v-81h1383q236 0 403 -168t167 -402z" />
    <glyph glyph-name="guillemotleft" unicode="&#xab;" horiz-adv-x="4479" 
d="M896 768h-448l448 896h2240v448h-1568l-224 448h-1344v-3584h3584l895 2240h-3359z" />
    <glyph glyph-name="logicalnot" unicode="&#xac;" horiz-adv-x="2390" 
d="M2390 2560v-448q0 -63 -43.5 -106t-105.5 -43h-150v-299q0 -272 -147.5 -494.5t-389.5 -326.5q242 -105 389.5 -327.5t147.5 -494.5v-448h150q62 0 105.5 -43t43.5 -106v-448h-2389v448q0 63 43 106t106 43h149v448q0 272 148 494.5t390 327.5q-242 104 -390 326.5
t-148 494.5v299h-149q-63 0 -106 43t-43 106v448h2389zM1896 2451z" />
    <glyph glyph-name="registered" unicode="&#xae;" horiz-adv-x="2390" 
d="M2390 2560v-448q0 -63 -43.5 -106t-105.5 -43h-150v-299q0 -272 -147.5 -494.5t-389.5 -326.5q242 -105 389.5 -327.5t147.5 -494.5v-448h150q62 0 105.5 -43t43.5 -106v-448h-2389v448q0 63 43 106t106 43h149v448q0 272 148 494.5t390 327.5q-242 104 -390 326.5
t-148 494.5v299h-149q-63 0 -106 43t-43 106v448h2389zM598 1963v-299q0 -179 97 -327t261 -220q84 -35 132 -110t48 -164.5t-48 -164t-132 -110.5q-164 -72 -261 -219.5t-97 -327.5v-448h1195v448q0 180 -97.5 327.5t-261.5 219.5q-83 36 -131 110.5t-48 164t48 164.5
t131 110q164 72 261.5 220t97.5 327v299h-1195z" />
    <glyph glyph-name="macron" unicode="&#xaf;" horiz-adv-x="2048" 
d="M0 139l1024 1773l1024 -1773h-2048z" />
    <glyph glyph-name="degree" unicode="&#xb0;" horiz-adv-x="0" 
d="M1710 1056v1504l-1710 -759zM1710 1056v1504l-1710 -759zM1713 -1024l1716 756l-1 2083l-1718 -759zM1713 -1024l1716 756v2083l-1719 -759z" />
    <glyph glyph-name="plusminus" unicode="&#xb1;" horiz-adv-x="3429" 
d="M1713 -1024l-1713 745v2080l1710 -745zM1710 1056l1718 759l-1718 745v-1504v0z" />
    <glyph glyph-name="uni00B2" unicode="&#xb2;" horiz-adv-x="2689" 
d="M168 2560h1624q897 -857 897 -1121v-2351q0 -112 -114 -112h-2463q-112 0 -112 112v3136q35 336 168 336zM380 704l662 -2l1 -1164h583l-1 1165h663l-953 1166z" />
    <glyph glyph-name="uni00B3" unicode="&#xb3;" horiz-adv-x="2689" 
d="M168 2560h1624q897 -857 897 -1121v-2351q0 -112 -114 -112h-2463q-112 0 -112 112v3136q35 336 168 336zM2289 703l-662 2l-1 1164h-583l1 -1165h-663l953 -1166z" />
    <glyph glyph-name="acute" unicode="&#xb4;" horiz-adv-x="2915" 
d="M2915 -1025h-739l-1437 2359v-2359h-739v3585h739l1440 -2364v2364h736v-3585z" />
    <glyph glyph-name="uni00B5" unicode="&#xb5;" horiz-adv-x="1342" 
d="M721 -1024h-721l620 3584h722z" />
    <glyph glyph-name="paragraph" unicode="&#xb6;" horiz-adv-x="2212" 
d="M0 -683h2210v-341h-2210v341zM1616 394q0 168 -119 258t-428 190t-489 197q-491 266 -491 715q0 234 131.5 417t378.5 286t554 103q308 0 550 -111.5t375.5 -315.5t133.5 -464h-594q0 198 -125 308t-350 110q-218 0 -339 -92t-121 -243q0 -140 141.5 -235t417.5 -178
q507 -153 738.5 -378.5t231.5 -562.5q0 -374 -283 -587t-763 -213q-332 0 -605.5 121.5t-417 333.5t-143.5 491h596q0 -477 570 -477q212 0 331 86t119 241z" />
    <glyph glyph-name="periodcentered" unicode="&#xb7;" horiz-adv-x="3779" 
d="M2672 2560q1107 -818 1107 -1238v-65q0 -111 -1564 -1564h-65q-85 0 -1238 1238q1485 1629 1760 1629zM847 866h65q0 -111 1173 -1304q-391 -421 -391 -456h2020v-130h-2802q-912 812 -912 977q0 167 847 913z" />
    <glyph glyph-name="cedilla" unicode="&#xb8;" horiz-adv-x="3584" 
d="M0 -429h3584v-595h-3584v595zM3094 1958l-294 -294l-560 560l294 294q42 42 105 42t105 -42l350 -350q42 -42 42 -105t-42 -105zM2653 1517l-1498 -1498h-560v560l1498 1498z" />
    <glyph glyph-name="uni00B9" unicode="&#xb9;" horiz-adv-x="3584" 
d="M0 -429h3584v-595h-3584v595zM2835 845q301 -329 301 -525q0 -119 -91 -210t-210 -91t-206.5 91t-87.5 210q0 84 73.5 217t143.5 217zM777 1069h1435l-721 714zM2471 1223q70 -70 70 -161t-70 -154l-819 -819q-70 -70 -161 -70q-84 0 -154 70l-826 819q-70 63 -70 154
t70 161l770 770l-357 357l217 210z" />
    <glyph glyph-name="ordmasculine" unicode="&#xba;" horiz-adv-x="3360" 
d="M2326 -286h-1295l-246 -738h-785l1334 3584h684l1342 -3584h-785zM1231 313h896l-451 1341z" />
    <glyph glyph-name="guillemotright" unicode="&#xbb;" horiz-adv-x="2690" 
d="M2690 2560v-3584h-2690v3584h2690zM2569 2442h-2450v-3347h2450v3347zM977 -526v119h1234v-119h-1234zM777 -49v119h1434v-119h-1434zM477 428v122h1734v-122h-1734zM1078 908v119h1133v-119h-1133zM778 1385v121h1433v-121h-1433zM477 1865v118h1734v-118h-1734z" />
    <glyph glyph-name="onequarter" unicode="&#xbc;" horiz-adv-x="1378" 
d="M598 188h-329l-62 -188h-200l339 911h174l341 -911h-199zM320 340h228l-115 341z" />
    <glyph glyph-name="onehalf" unicode="&#xbd;" horiz-adv-x="3584" 
d="M0 2560h3584v-401h-3584v401zM0 -1024v401h3584v-401h-3584zM0 572v392h3584v-392h-3584zM2389 1767v-402h-2389v402h2389zM2389 171v-402h-2389v402h2389z" />
    <glyph glyph-name="threequarters" unicode="&#xbe;" horiz-adv-x="3584" 
d="M0 2560h3584v-401h-3584v401zM793 1767h1998v-402h-1998v402zM0 572v392h3584v-392h-3584zM0 -1024v401h3584v-401h-3584zM793 171h1998v-402h-1998v402z" />
    <glyph glyph-name="questiondown" unicode="&#xbf;" horiz-adv-x="3584" 
d="M0 2560h3584v-401h-3584v401zM0 1365v402h3584v-402h-3584zM0 572v392h3584v-392h-3584zM0 -231v402h3584v-402h-3584zM0 -1024v401h3584v-401h-3584z" />
    <glyph glyph-name="Agrave" unicode="&#xc0;" horiz-adv-x="3584" 
d="M1596 572v392h1988v-392h-1988zM1596 1365v402h1988v-402h-1988zM0 2560h3584v-401h-3584v401zM0 -1024v401h3584v-401h-3584zM0 768l793 793v-1586zM1596 -231v402h1988v-402h-1988z" />
    <glyph glyph-name="Aacute" unicode="&#xc1;" horiz-adv-x="3584" 
d="M1596 572v392h1988v-392h-1988zM1596 1365v402h1988v-402h-1988zM0 2560h3584v-401h-3584v401zM1596 -231v402h1988v-402h-1988zM0 1561l793 -793l-793 -793v1586zM0 -1024v401h3584v-401h-3584z" />
    <glyph glyph-name="Acircumflex" unicode="&#xc2;" horiz-adv-x="4244" 
d="M1111 548v440h3133v-440h-3133zM1111 -793v440h3133v-440h-3133zM1111 2329h3133v-440h-3133v440zM0 988v231h671v-210l-409 -461h409v-231h-671v210l398 461h-398zM220 1659v670h-220v231h440v-901h-220zM0 -353v230h671v-901h-671v231h440v104h-220v231h220v105h-440z
" />
    <glyph glyph-name="Atilde" unicode="&#xc3;" horiz-adv-x="4424" 
d="M1075 2437h3349v-471h-3349v471zM1075 533v470h3349v-470h-3349zM1075 -901v471h3349v-471h-3349zM358.5 -307q145.5 0 252 -106.5t106.5 -252t-106.5 -252t-252 -106.5t-252 106.5t-106.5 252t106.5 252t252 106.5zM358.5 2560q145.5 0 252 -101t106.5 -257.5
t-106.5 -257.5t-252 -101t-252 101t-106.5 257.5t106.5 257.5t252 101zM358.5 1126q145.5 0 252 -100.5t106.5 -257.5t-106.5 -257.5t-252 -100.5t-252 100.5t-106.5 257.5t106.5 257.5t252 100.5z" />
    <glyph glyph-name="Adieresis" unicode="&#xc4;" horiz-adv-x="3584" 
d="M2692 120l-648 648l648 648l-252 252l-648 -648l-648 648l-252 -252l648 -648l-648 -648l252 -252l648 648l648 -648zM1792 2560q740 0 1266 -526t526 -1266t-526 -1266t-1266 -526t-1266 526t-526 1266t526 1266t1266 526z" />
    <glyph glyph-name="Aring" unicode="&#xc5;" horiz-adv-x="3585" 
d="M3585 1908v-2770q0 -68 -47.5 -115.5t-115.5 -47.5h-489v1304h-2281v-1304h-489q-68 0 -115.5 47.5t-47.5 115.5v3259q0 65 47.5 114t115.5 49h815v-978h1629v978h326zM2281 1908h-326v652h326v-652zM652 -1024v291h2282v-291h-2282zM979 2470v89h1628v-89h-1628z" />
    <glyph glyph-name="AE" unicode="&#xc6;" horiz-adv-x="4301" 
d="M573 2560q-107 0 -210 -49q-103 -50 -184 -130q-80 -81 -130 -184q-49 -103 -49 -211v-860q0 -107 49 -210q50 -103 130 -184q81 -81 184 -130t210 -49h287v-1004l1004 1004h1003q108 0 211 49t183 130q81 81 130 184t49 210v860q0 108 -49 211t-130 184q-80 80 -183 130
q-103 49 -211 49h-2294zM3727 1126q5 -183 -63 -345q-62 -156 -179 -273q-112 -112 -271 -177t-347 -65h-860l-287 -287h717l1003 -1003v1003h287q108 0 211 50q103 49 183 130q81 80 130 183q50 103 50 211v860q0 108 -50 211q-49 103 -130 183q-80 81 -183 130t-211 49
v-860z" />
    <glyph glyph-name="Ccedilla" unicode="&#xc7;" horiz-adv-x="3947" 
d="M863 -643v1194l655 -1575h-275q-150 0 -265 115t-115 266zM1243.5 1427q79.5 0 132.5 57.5t53 137t-53 133t-132.5 53.5t-133 -53.5t-53.5 -133t53.5 -137t133 -57.5zM3916 73q62 -141 0 -287t-204 -208l-1389 -575q-71 -27 -151 -27q-247 0 -345 230l-938 2265
q-26 80 -26 151q0 239 230 336l1398 575q80 27 150 27q239 0 337 -230zM234 -626q-141 62 -203 203.5t0 283.5l460 1106v-1699z" />
    <glyph glyph-name="Egrave" unicode="&#xc8;" horiz-adv-x="4096" 
d="M683 2560q-139 0 -267 -53q-123 -54 -219 -150q-88 -88 -144 -216q-53 -125 -53 -264v-1024q0 -138 51 -266q56 -123 146 -219q96 -88 216 -144q126 -53 270 -53h341v-1195l1195 1195h1194q139 0 262 50q128 56 218 147q96 96 147 216q56 125 56 269v1024q0 139 -53 262
q-54 128 -150 218q-88 96 -216 147q-125 56 -264 56h-2730z" />
    <glyph glyph-name="Eacute" unicode="&#xc9;" horiz-adv-x="3584" 
d="M0 410l1434 -1434l2150 2150v1434h-1434zM2867 1485q-151 0 -255 103q-103 104 -103 255t103 252q104 107 255 107q151 5 252 -104q107 -104 107 -255q5 -151 -104 -255q-104 -103 -255 -103z" />
    <glyph glyph-name="Ecircumflex" unicode="&#xca;" horiz-adv-x="3136" 
d="M2723 498q-35 35 -112 53q-81 17 -203 21q-81 0 -179 -7t-199 -21q-46 24 -91 56q-49 28 -84 63q-102 94 -182 224q-84 126 -137 269q4 14 7 25q4 14 7 24l35 235q35 234 18 343q0 14 -4 21q0 7 -3 21q-4 7 -7 17q-18 35 -49 67q-28 28 -77 28h-39q-52 0 -91 -25
q-38 -24 -52 -66q-35 -126 -7 -315q31 -189 94 -434q-7 -18 -21 -56q-45 -112 -101 -221q-53 -112 -105 -213q-4 -7 -11 -18q-52 -105 -101 -192q-49 -91 -91 -168q-21 -11 -63 -32q-4 0 -60 -31q-56 -28 -73 -39q-154 -94 -252 -192q-98 -102 -116 -186v-21v-38
q7 -28 35 -42q21 -11 60 -32q17 -7 38 -14q21 -3 42 -3q109 0 242 143q136 144 311 452q207 66 431 122q224 53 427 81q154 -88 329 -140q175 -56 294 -56q21 0 42 3q17 0 31 4q25 7 42 17q18 14 32 32q21 35 28 84q3 21 3 45q0 25 -3 49q0 14 -11 32q-10 17 -24 31v0z
M518 -289q17 56 94 154t196 196q7 3 21 21q18 14 35 28q-122 -196 -206 -287q-88 -88 -140 -112v0zM1449 1860q38 0 56 -74q21 -73 21 -157v-28q0 -67 -14 -116q-18 -63 -42 -105q-21 63 -28 154q-11 91 -11 158v84q4 84 18 84v0v0zM1172 330q25 42 53 88q24 49 49 98
q66 122 108 217q42 98 74 178q59 -112 133 -206q73 -91 164 -165q11 -10 21 -17q11 -11 25 -21q-179 -35 -333 -81q-157 -42 -294 -91v0v0zM2677 341q-10 -7 -38 -11q-25 -3 -46 -3q-63 0 -147 28t-196 77q42 3 84 3q39 4 74 4q66 0 101 -4q32 -3 98 -17q63 -18 74 -42
q3 -14 3 -25q-3 -7 -7 -10v0v0zM2989 1758q-60 81 -140 168q-77 91 -165 182q-91 88 -182 165q-87 80 -168 140q-136 98 -206 122q-74 25 -112 25h-1736q-116 0 -196 -84q-84 -81 -84 -196v-441v-2583q0 -116 84 -196q80 -84 196 -84h262h2314q115 0 196 84q84 80 84 196
v2184q0 38 -25 112q-24 70 -122 206v0v0zM2523 1947q81 -80 144 -154q66 -70 112 -129h-539v539q59 -46 129 -112q74 -63 154 -144v0v0zM2912 -744q0 -25 -14 -42q-18 -14 -42 -14h-1176h-1400q-25 0 -42 14q-14 17 -14 42v1291v1733q0 24 14 42q17 14 42 14h273h595h595
h273v-784q0 -46 35 -77q31 -35 77 -35h784v-2184v0z" />
    <glyph glyph-name="Edieresis" unicode="&#xcb;" horiz-adv-x="3136" 
d="M2376 1216h-472q-84 -123 -336 -494q-84 123 -336 494h-473q140 -210 567 -847q-161 -235 -640 -945h882v322h-175q45 66 175 262q98 -147 388 -584h494q-161 238 -641 945q140 213 567 847v0zM2989 1758q-60 81 -140 168q-77 91 -165 182q-91 88 -182 165
q-87 80 -168 140q-136 98 -206 122q-74 25 -112 25h-1736q-116 0 -196 -84q-84 -81 -84 -196v-441v-2583q0 -116 84 -196q80 -84 196 -84h262h2314q115 0 196 84q84 80 84 196v2184q0 38 -25 112q-24 70 -122 206v0v0zM2523 1947q81 -80 144 -154q66 -70 112 -129h-539v539
q59 -46 129 -112q74 -63 154 -144v0v0zM2912 -744q0 -25 -14 -42q-18 -14 -42 -14h-1176h-1400q-25 0 -42 14q-14 17 -14 42v1291v1733q0 24 14 42q17 14 42 14h273h595h595h273v-784q0 -46 35 -77q31 -35 77 -35h784v-2184v0z" />
    <glyph glyph-name="Igrave" unicode="&#xcc;" horiz-adv-x="3136" 
d="M2016 894h154q-46 -200 -179 -791q-59 276 -231 1113h-374q-67 -280 -270 -1113q-49 276 -203 1113h-388q98 -448 395 -1792h382q66 266 266 1060q59 -266 238 -1060h353q112 448 452 1792h-595v-322v0zM2989 1758q-60 81 -140 168q-77 91 -165 182q-91 88 -182 165
q-87 80 -168 140q-136 98 -206 122q-74 25 -112 25h-1736q-116 0 -196 -84q-84 -81 -84 -196v-441v-2583q0 -116 84 -196q80 -84 196 -84h262h2314q115 0 196 84q84 80 84 196v2184q0 38 -25 112q-24 70 -122 206v0v0zM2523 1947q81 -80 144 -154q66 -70 112 -129h-539v539
q59 -46 129 -112q74 -63 154 -144v0v0zM2912 -744q0 -25 -14 -42q-18 -14 -42 -14h-1176h-1400q-25 0 -42 14q-14 17 -14 42v1291v1733q0 24 14 42q17 14 42 14h273h595h595h273v-784q0 -46 35 -77q31 -35 77 -35h784v-2184v0z" />
    <glyph glyph-name="Iacute" unicode="&#xcd;" horiz-adv-x="4411" 
d="M1310 492q0 -185 68 -349q74 -163 194 -284q121 -121 285 -194q163 -69 349 -69q185 0 348 69q164 73 285 194q120 121 194 284q68 164 68 349q0 186 -68 349q-74 164 -194 285q-121 120 -285 193q-163 69 -348 69q-186 0 -349 -69q-164 -73 -285 -193
q-120 -121 -194 -285q-68 -163 -68 -349v0zM4135 2009h-965q-51 206 -129 379q-77 172 -284 172h-1103q-207 0 -284 -172q-78 -173 -129 -379h-965q-112 0 -194 -82t-82 -194v-655v-1826q0 -112 82 -194t194 -82h822h3037q112 0 194 82t82 194v2481q0 112 -82 194t-194 82v0
zM2206 -731q-255 0 -474 95q-224 99 -392 262q-164 168 -263 392q-95 220 -95 474t95 474q99 224 263 388q168 168 392 267q219 95 474 95q254 0 473 -95q224 -99 388 -267q168 -164 267 -388q95 -220 95 -474t-95 -474q-99 -224 -267 -392q-164 -163 -388 -262
q-219 -95 -473 -95v0zM4135 1182h-551v275h551v-275v0z" />
    <glyph glyph-name="Icircumflex" unicode="&#xce;" horiz-adv-x="3136" 
d="M2688 -576h-1400h-840v448l672 1120q231 -280 920 -1120q161 112 648 448v-896v0zM2688 880q0 -140 -98 -238t-238 -98t-238 98t-98 238t98 238t238 98t238 -98t98 -238v0zM2989 1758q-60 81 -140 168q-77 91 -165 182q-91 88 -182 165q-87 80 -168 140q-136 98 -206 122
q-74 25 -112 25h-1736q-116 0 -196 -84q-84 -81 -84 -196v-441v-2583q0 -116 84 -196q80 -84 196 -84h262h2314q115 0 196 84q84 80 84 196v2184q0 38 -25 112q-24 70 -122 206v0zM2523 1947q81 -80 144 -154q66 -70 112 -129h-539v539q59 -46 129 -112q74 -63 154 -144v0z
M2912 -744q0 -25 -14 -42q-18 -14 -42 -14h-1176h-1400q-25 0 -42 14q-14 17 -14 42v1291v1733q0 24 14 42q17 14 42 14h273h595h595h273v-784q0 -46 35 -77q31 -35 77 -35h784v-2184v0z" />
    <glyph glyph-name="Idieresis" unicode="&#xcf;" horiz-adv-x="3584" 
d="M299 -1024l1155 1155q165 -119 368 -191q199 -68 418 -68q280 0 525 105t427 287t287 427t105 525t-105 523q-105 245 -287 427q-182 184 -427 289t-525 105t-523 -107q-245 -105 -427 -287q-184 -182 -289 -427q-105 -243 -105 -523q0 -219 70 -422q70 -196 189 -364
l-1155 -1155zM2240 171q-219 0 -408 81q-192 84 -332 224q-144 143 -224 332q-81 191 -81 408t84 406q79 191 224 331q140 145 331 224q189 84 406 84t408 -84q189 -84 334 -226q140 -140 222 -331q81 -189 81 -404q0 -217 -81 -408q-84 -189 -224 -334q-143 -140 -332 -222
q-191 -81 -408 -81zM1493 1067h1494v298h-1494v-298z" />
    <glyph glyph-name="Eth" unicode="&#xd0;" horiz-adv-x="3584" 
d="M1155 430l-1155 -1155l299 -299l1155 1155q165 -119 368 -191q199 -68 418 -68q280 0 525 105t427 287t287 427t105 525t-105 523q-105 245 -287 427q-182 184 -427 289t-525 105t-523 -107q-245 -105 -427 -287q-184 -182 -289 -427q-105 -243 -105 -523q0 -219 70 -422
q70 -196 189 -364zM3285 1216q0 -217 -81 -408q-84 -189 -224 -334q-143 -140 -332 -222q-191 -81 -408 -81q-219 0 -408 81q-192 84 -332 224q-144 143 -224 332q-81 191 -81 408t84 406q79 191 224 331q140 145 331 224q189 84 406 84t408 -84q189 -84 334 -226
q140 -140 222 -331q81 -189 81 -404zM2091 1365h-598v-298h598v-598h298v598h598v298h-598v598h-298v-598z" />
    <glyph glyph-name="Ntilde" unicode="&#xd1;" horiz-adv-x="3982" 
d="M0 569l398 -398l1593 1592l1593 -1592l398 398l-1991 1991zM796 -1024h797v1195h796v-1195h796v1195l-1194 1194l-1195 -1194v-1195z" />
    <glyph glyph-name="Ograve" unicode="&#xd2;" horiz-adv-x="3584" 
d="M0 171v-1195h1195l2389 2389l-1195 1195zM2645 1792l-1586 -1587l-256 256l1586 1587zM1485 -221l-256 256l1587 1586l256 -256zM341 0l342 341l682 -682l-341 -342z" />
    <glyph glyph-name="Oacute" unicode="&#xd3;" horiz-adv-x="3883" 
d="M1493 1962l-1493 -1493l1493 -1493v1045h2390v1643l-896 896v-1643h-1494v1045z" />
    <glyph glyph-name="Ocircumflex" unicode="&#xd4;" horiz-adv-x="2048" 
d="M1919 128q0 372 -141 699t-385 571q-242 246 -569 387q-326 142 -696 142v-345q300 2 561 -114q264 -114 459 -313q197 -196 311 -462q117 -265 115 -565h345zM1310 128q1 246 -93 461q-93 215 -255 377q-159 162 -376 256q-215 94 -459 94v-345q168 1 320 -63
q153 -63 273 -183q118 -120 181 -274q64 -153 64 -323h345zM383 640q-52 0 -100 -20q-46 -20 -82 -56q-33 -33 -54 -81q-20 -47 -20 -99t19 -100q21 -46 55 -82q36 -33 81 -54q47 -20 101 -20q52 0 98 19q48 21 82 55q36 36 55 81q21 47 21 101q0 52 -20 98q-20 48 -56 82
q-33 36 -81 55q-47 21 -99 21z" />
    <glyph glyph-name="Otilde" unicode="&#xd5;" horiz-adv-x="5012" 
d="M3225 2559h-1433l-358 -716l-1433 -358v-2508h5015v2866h-1433zM358 2381v-448l717 179v269h-717zM2509 -666q-260 0 -490 98q-227 98 -398 266q-168 174 -269 401q-98 229 -98 490q0 257 98 484q98 230 266 398q174 171 401 272q230 100 490 100t487 -100
q230 -96 398 -269q173 -168 269 -398q100 -227 100 -487q0 -261 -98 -490q-95 -227 -268 -398q-168 -168 -398 -269q-227 -98 -490 -98zM2509 1485q-185 6 -350 -70q-160 -67 -286 -193q-117 -123 -190 -286q-70 -162 -70 -347t67 -350q73 -160 190 -286q127 -117 286 -190
q168 -70 353 -70t347 67q163 73 283 190q126 126 193 286q73 168 73 353q6 185 -70 347q-67 163 -193 283q-123 126 -286 193q-162 73 -347 73z" />
    <glyph glyph-name="Odieresis" unicode="&#xd6;" horiz-adv-x="3695" 
d="M0 51h1075l1075 -1075v3584l-1075 -1075h-1075v-1434zM2914 1782q196 -194 305 -457q115 -260 115 -557q6 -294 -112 -557q-112 -261 -308 -457l255 -252q243 241 383 569q143 327 143 700q3 369 -140 697t-386 571zM2407 1278q93 -93 151 -227q59 -126 59 -280
q0 -146 -56 -280q-59 -132 -154 -227l255 -252q146 146 230 339q92 196 86 420q6 227 -84 417q-86 196 -229 344z" />
    <glyph glyph-name="multiply" unicode="&#xd7;" horiz-adv-x="1014" 
d="M507 618l-247 -247l-99 99l247 247l-247 248l99 98l247 -247l248 247l98 -99l-247 -247l247 -247l-99 -99z" />
    <glyph glyph-name="Oslash" unicode="&#xd8;" horiz-adv-x="3577" 
d="M1843 1166l347 -342q25 -30 69 -30q37 0 65 30l589 585l357 -357q87 -80 142.5 -53t55.5 142v1120q0 70 -53.5 126.5t-134.5 56.5h-1120q-119 0 -143.5 -55.5t59.5 -142.5l357 -357l-590 -584q-25 -33 -25 -70q0 -44 25 -69zM100 384v-1125q0 -70 53.5 -126.5
t134.5 -56.5h1115q119 0 146 55.5t-57 142.5l-357 357l590 589q25 25 25 70q0 37 -25 64l-347 347q-25 25 -69 25q-37 0 -70 -25l-584 -590l-357 357q-87 81 -142.5 56t-55.5 -140zM1378 819l342 347q30 25 30 69q0 37 -30 65l-585 589l357 357q80 87 53 142.5t-142 55.5
h-1120q-70 0 -126.5 -53.5t-56.5 -134.5v-1120q0 -119 55.5 -143.5t142.5 59.5l357 357l584 -590q33 -25 70 -25q44 0 69 25zM2160 -924h1125q70 0 126.5 53.5t56.5 134.5v1115q0 119 -55.5 146t-142.5 -57l-357 -357l-589 590q-25 25 -70 25q-37 0 -64 -25l-347 -347
q-25 -25 -25 -69q0 -37 25 -70l590 -584l-357 -357q-81 -87 -56 -142.5t140 -55.5zM1843 1166l347 -342q25 -30 69 -30q37 0 65 30l589 585l357 -357q87 -80 142.5 -53t55.5 142v1120q0 70 -53.5 126.5t-134.5 56.5h-1120q-119 0 -143.5 -55.5t59.5 -142.5l357 -357
l-590 -584q-25 -33 -25 -70q0 -44 25 -69zM100 384v-1125q0 -70 53.5 -126.5t134.5 -56.5h1115q119 0 146 55.5t-57 142.5l-357 357l590 589q25 25 25 70q0 37 -25 64l-347 347q-25 25 -69 25q-37 0 -70 -25l-584 -590l-357 357q-87 81 -142.5 56t-55.5 -140z" />
    <glyph glyph-name="Ugrave" unicode="&#xd9;" horiz-adv-x="3577" 
d="M3643 2072l-347 342q-25 30 -69 30q-37 0 -65 -30l-589 -585l-357 357q-87 80 -142.5 53t-55.5 -142v-1120q0 -70 53.5 -126.5t134.5 -56.5h1120q119 0 144 55.5t-60 142.5l-357 357l590 585q25 32 25 69q0 44 -25 69zM1750 -582v1125q0 70 -53 126.5t-135 56.5h-1115
q-119 0 -146 -55.5t57 -142.5l357 -357l-590 -589q-25 -25 -25 -70q0 -37 25 -64l347 -347q24 -25 69 -25q37 0 69 25l585 590l357 -357q87 -81 142.5 -56t55.5 140zM473 2419l-343 -346q-29 -25 -29 -69q0 -38 29 -65l584 -590l-357 -356q-80 -87 -53 -142.5t142 -56.5
l1120 -1q71 0 127 53.5t56 135.5l1 1119q1 119 -54.5 144t-143.5 -59l-357 -357l-584 590q-32 25 -69 25q-45 0 -69 -25zM3326 726h-1124q-71 0 -127.5 -53t-56.5 -135v-1114q0 -119 55.5 -146.5t142.5 56.5l357 357l589 -590q25 -25 69 -25q37 0 65 25l347 346q24 25 25 70
q0 37 -25 69l-589 585l356 357q81 87 56.5 142.5t-140.5 55.5zM3643 2072l-347 342q-25 30 -69 30q-37 0 -65 -30l-589 -585l-357 357q-87 80 -142.5 53t-55.5 -142v-1120q0 -70 53.5 -126.5t134.5 -56.5h1120q119 0 144 55.5t-60 142.5l-357 357l590 585q25 32 25 69
q0 44 -25 69zM1750 -582v1125q0 70 -53 126.5t-135 56.5h-1115q-119 0 -146 -55.5t57 -142.5l357 -357l-590 -589q-25 -25 -25 -70q0 -37 25 -64l347 -347q24 -25 69 -25q37 0 69 25l585 590l357 -357q87 -81 142.5 -56t55.5 140z" />
    <glyph glyph-name="Uacute" unicode="&#xda;" horiz-adv-x="2877" 
d="M1439 -309q370 0 635 265t265 635q0 371 -265 631q-265 261 -635 261q-488 0 -758 -412l-227 235v-715h715l-286 286q169 337 556 337q260 0 445.5 -181t185.5 -442q0 -260 -185 -446q-186 -185 -446 -185q-328 0 -514 270h-311q101 -244 324 -391.5t501 -147.5z
M168 2560h1624q897 -857 897 -1121v-2351q0 -112 -114 -112h-2463q-112 0 -112 112v3136q35 336 168 336z" />
    <glyph glyph-name="Ucircumflex" unicode="&#xdb;" horiz-adv-x="2690" 
d="M1734 2393v-787h787zM2690 1606v-2630h-2690v3584h1734zM1612 1485v957h-1493v-3347h2450v2390h-957zM656 -356v1456h157l535 -1282h6l537 1282h158v-1456h-119v643l10 637l-6 2l-541 -1282h-83l-540 1276l-6 -1l11 -632v-643h-119z" />
    <glyph glyph-name="Udieresis" unicode="&#xdc;" horiz-adv-x="2690" 
d="M477 -426v119h1734v-119h-1734zM477 51v119h1734v-119h-1734zM1734 2393v-787h787zM2690 1606v-2630h-2690v3584h1734zM1612 1485v957h-1493v-3347h2450v2390h-957zM477 528v122h1734v-122h-1734zM477 1008v119h1734v-119h-1734zM477 1485v121h777v-121h-777zM477 1965
v118h777v-118h-777z" />
    <glyph glyph-name="Yacute" unicode="&#xdd;" horiz-adv-x="2690" 
d="M2690 2560v-3584h-2690v3584h2690zM2569 2442h-2450v-3347h2450v3347zM477 -426v119h1734v-119h-1734zM477 51v119h1734v-119h-1734zM477 528v122h1734v-122h-1734zM477 1008v119h1734v-119h-1734zM477 1485v121h1734v-121h-1734zM477 1965v118h1734v-118h-1734z" />
    <glyph glyph-name="Thorn" unicode="&#xde;" horiz-adv-x="2829" 
d="M2453 -645h-377v-379h-2076v2831h377v377h378v376h2074v-2829h-376v-376zM849 2467v-283h1604v-2359h283v2642h-1887zM472 2090v-283h1604v-2359h283v2642h-1887zM1980 1712h-1886v-2642h1886v2642zM377 -552v94h1321v-94h-1321zM377 -175v95h1321v-95h-1321zM377 203v94
h1321v-94h-1321zM377 580v94h1321v-94h-1321zM377 956v96h1321v-96h-1321zM377 1335v94h1321v-94h-1321z" />
    <glyph glyph-name="germandbls" unicode="&#xdf;" horiz-adv-x="1913" 
d="M1913 2560v-3584h-1913v3584h1913zM1792 2441h-1673v-1612h1673v1612zM1792 710h-1673v-1615h1673v1615zM598 2202h717v-477h-717v477zM717 2083v-240h477v240h-477zM835 1427h240v-121h-240v121zM598 470h717v-479h-717v479zM717 351v-239h477v239h-477zM835 -307h240
v-119h-240v119z" />
    <glyph glyph-name="agrave" unicode="&#xe0;" horiz-adv-x="3072" 
d="M2557 1801q56 -56 95.5 -152.5t39.5 -174.5v-2305q0 -81 -56 -137t-135 -56h-2308q-81 0 -137 56t-56 137v3201q0 78 56 134t137 56h1412q79 0 175 -39t152 -95zM1668 2289v-752h752q-19 57 -43 82l-627 626q-24 25 -82 44zM2436 -767v2048h-831q-81 0 -137 56t-56 137
v831h-1156v-3072h2180zM668 961q0 28 17.5 46.5t45.5 18.5h1229q28 0 46.5 -18.5t18.5 -46.5v-128q0 -28 -18.5 -46.5t-46.5 -18.5h-1229q-28 0 -45.5 18.5t-17.5 46.5v128zM1960 513q28 0 46.5 -17.5t18.5 -45.5v-130q0 -28 -18.5 -45.5t-46.5 -17.5h-1229
q-28 0 -45.5 17.5t-17.5 45.5v130q0 28 17.5 45.5t45.5 17.5h1229zM1960 2q28 0 46.5 -18.5t18.5 -46.5v-128q0 -28 -18.5 -46.5t-46.5 -18.5h-1229q-28 0 -45.5 18.5t-17.5 46.5v128q0 28 17.5 46.5t45.5 18.5h1229z" />
    <glyph glyph-name="aacute" unicode="&#xe1;" horiz-adv-x="2679" 
d="M527 -1024q-109 0 -205 42t-167 113t-113 167t-42 205v960q0 94 32 180.5t88 155t133.5 115.5t165.5 66l-3 638q-2 195 66.5 366.5t189.5 299.5t287.5 202t360.5 74q195 0 367.5 -74t300 -202t201.5 -299.5t74 -366.5v-638q89 -21 165.5 -69t132 -114.5t87 -153
t31.5 -180.5v-960q0 -109 -42 -205t-113 -167t-167.5 -113t-204.5 -42h-1625zM527 768q-64 0 -118 -24.5t-95 -66t-64.5 -96.5t-23.5 -118v-960q0 -64 23.5 -119t64.5 -96t95 -63.5t118 -22.5h1625q63 0 117.5 22.5t96.5 63.5t66 96t24 119v960q0 63 -24 118t-66 96.5
t-96.5 66t-117.5 24.5h-1625zM642 990h1399v628q0 147 -57 277.5t-154 227.5t-228.5 153.5t-281.5 56.5q-148 0 -274 -56.5t-217 -153.5t-141.5 -227.5t-49.5 -277.5z" />
    <glyph glyph-name="acircumflex" unicode="&#xe2;" horiz-adv-x="2671" 
d="M528 -1024q-110 0 -205.5 42t-167 113.5t-113.5 167t-42 205.5v955q0 110 47 206.5t126.5 168t180.5 112.5t211 41h1437v629q0 148 -56.5 278.5t-154 228t-230 154t-280.5 56.5t-280.5 -56.5t-230 -154t-154.5 -228t-57 -278.5q0 -47 -31 -81t-80 -34q-44 0 -78 34
t-34 81q0 195 74 367.5t203 300.5t300.5 202t367.5 74q195 0 366.5 -74t300.5 -202t203 -300.5t74 -367.5v-642q89 -19 170 -67t142 -115.5t97.5 -153t36.5 -179.5v-955q0 -110 -42 -205.5t-113 -167t-168 -113.5t-205 -42h-1615zM565 764q-63 0 -123 -24.5t-108 -66.5
t-77.5 -97t-29.5 -117v-955q0 -65 23.5 -119.5t64 -94.5t95.5 -63.5t118 -23.5h1615q63 0 118 23.5t96.5 63.5t66 94.5t24.5 119.5v955q0 62 -29 117t-76.5 97t-107 66.5t-122.5 24.5h-1548z" />
    <glyph glyph-name="atilde" unicode="&#xe3;" horiz-adv-x="3445" 
d="M3448 2559v-3583h-3448v3583h3448zM3293 2228h-3140v-3099h3140v3099zM611 -542v153h2223v-153h-2223zM611 430v153h2223v-153h-2223zM611 911v157h2223v-157h-2223zM804 1397v152h1838v-152h-1838zM804 1765v155h1838v-155h-1838zM958 1396h-155v524h155v-524z
M2641 1396h-155v524h155v-524zM611 -50v153h2223v-153h-2223z" />
    <glyph glyph-name="adieresis" unicode="&#xe4;" horiz-adv-x="3136" 
d="M2989 1759q-59 80 -140 168q-77 91 -164 182q-91 87 -182 164q-88 81 -168 140q-137 98 -207 123q-73 24 -112 24h-1736q-115 0 -196 -84q-84 -80 -84 -196v-441v-2583q0 -115 84 -196q81 -84 196 -84h263h2313q116 0 196 84q84 81 84 196v2184q0 39 -24 112
q-25 70 -123 207v0v0zM2524 1948q80 -81 143 -154q67 -70 112 -130h-539v539q60 -45 130 -112q73 -63 154 -143v0v0zM2912 -744q0 -24 -14 -42q-17 -14 -42 -14h-1176h-1400q-24 0 -42 14q-14 18 -14 42v1292v1732q0 25 14 42q18 14 42 14h273h595h595h273v-784
q0 -45 35 -77q32 -35 77 -35h784v-2184v0zM2422 1192q-17 14 -42 21q-14 3 -24 3q-14 0 -25 -3q-374 -74 -1120 -224q-38 -7 -63 -39q-28 -31 -28 -70v-829q-49 21 -108 31q-56 14 -116 14q-185 0 -315 -98q-133 -98 -133 -238t133 -238q130 -98 315 -98q186 0 315 98
q133 98 133 238v805q224 46 896 179v-469q-49 21 -108 31q-56 14 -116 14q-185 0 -315 -98q-133 -98 -133 -238t133 -238q130 -98 315 -98q186 0 315 98q133 98 133 238v1120q0 25 -10 49q-11 21 -32 39v0z" />
    <glyph glyph-name="aring" unicode="&#xe5;" horiz-adv-x="3136" 
d="M1120 1216l1120 -784l-1120 -784v1568v0zM2989 1759q-59 80 -140 168q-77 91 -164 182q-91 87 -182 164q-88 81 -168 140q-137 98 -207 123q-73 24 -112 24h-1736q-115 0 -196 -84q-84 -80 -84 -196v-441v-2583q0 -115 84 -196q81 -84 196 -84h263h2313q116 0 196 84
q84 81 84 196v2184q0 39 -24 112q-25 70 -123 207v0zM2524 1948q80 -81 143 -154q67 -70 112 -130h-539v539q60 -45 130 -112q73 -63 154 -143v0zM2912 -744q0 -24 -14 -42q-17 -14 -42 -14h-1176h-1400q-24 0 -42 14q-14 18 -14 42v1292v1732q0 25 14 42q18 14 42 14h273
h595h595h273v-784q0 -45 35 -77q32 -35 77 -35h784v-2184v0z" />
    <glyph glyph-name="ae" unicode="&#xe6;" horiz-adv-x="3502" 
d="M1751 137q261 0 446 185t185 446t-185 446t-446 185t-446 -185t-185 -446t185 -446t446 -185zM3089 591l379 -294q58 -42 16 -118l-361 -622q-34 -59 -110 -34l-446 177q-176 -127 -302 -177l-68 -471q-17 -76 -84 -76h-723q-68 0 -85 76l-67 471q-160 67 -303 177
l-446 -177q-75 -25 -109 34l-362 622q-42 76 17 118l379 294q-9 59 -9 177t9 177l-379 294q-59 42 -17 118l362 622q34 59 109 34l446 -177q177 127 303 177l67 471q17 76 85 76h723q67 0 84 -76l68 -471q159 -67 302 -177l446 177q76 25 110 -34l361 -622q42 -76 -16 -118
l-379 -294q8 -59 8 -177t-8 -177z" />
    <glyph glyph-name="ccedilla" unicode="&#xe7;" horiz-adv-x="2877" 
d="M810 591.5q0 218.5 160 378.5t378.5 160t378.5 -160t160 -378.5t-160 -378.5t-378.5 -160t-378.5 160t-160 378.5zM2689 -408l-592 503q152 235 152 496q0 370 -265 631t-635.5 261t-635.5 -261t-265 -631t265 -635t636 -265q260 0 496 152l843 -762q-2 -24 -7 -43
q-9 -25 -31 -43q-27 -16 -56 -19h-79h-2405q109 0 0 0q-107 -1 -110 112l8 3139q0 123 51 250q38 81 113 83h1628l440 -453l193 -215l171 -233l57 -105l29 -114z" />
    <glyph glyph-name="egrave" unicode="&#xe8;" horiz-adv-x="3584" 
d="M0 -1024v1664h1664v-1664h-1664zM1922 -1024v1664h1662v-1664h-1662zM0 898v1662h1664v-1662h-1664zM1922 898v1662h1662v-1662h-1662z" />
    <glyph glyph-name="eacute" unicode="&#xe9;" horiz-adv-x="2047" 
d="M0 512l1024 1024l1024 -1024h-2048z" />
    <glyph glyph-name="ecircumflex" unicode="&#xea;" horiz-adv-x="3136" 
d="M2989 1758q-60 81 -140 168q-77 91 -165 182q-91 88 -182 165q-87 80 -168 140q-136 98 -206 122q-74 25 -112 25h-1736q-116 0 -196 -84q-84 -81 -84 -196v-441v-2583q0 -116 84 -196q80 -84 196 -84h262h2314q115 0 196 84q84 80 84 196v2184q0 38 -25 112
q-24 70 -122 206v0v0zM2523 1947q81 -80 144 -154q66 -70 112 -129h-539v539q59 -46 129 -112q74 -63 154 -144v0v0zM2912 -744q0 -25 -14 -42q-18 -14 -42 -14h-1176h-1400q-25 0 -42 14q-14 17 -14 42v1291v1733q0 24 14 42q17 14 42 14h273h595h595h273v-784
q0 -46 35 -77q31 -35 77 -35h784v-2184v0z" />
    <glyph glyph-name="edieresis" unicode="&#xeb;" horiz-adv-x="5651" 
d="M3848 515q336 0 733 -96t733.5 -312.5t336.5 -493.5v-637h-1539v637q0 529 -505 890q84 12 241 12zM1803.5 515q336.5 0 733.5 -96t727.5 -312.5t330.5 -493.5v-637h-3595v637q0 277 336.5 493.5t733.5 312.5t733.5 96zM1803.5 1020q-312.5 0 -541 228.5t-228.5 541
t228.5 541t541 228.5t535 -228.5t222.5 -541t-222.5 -541t-535 -228.5zM3847.5 1020q-312.5 0 -541 228.5t-228.5 541t228.5 541t541 228.5t541 -228.5t228.5 -541t-228.5 -541t-541 -228.5z" />
    <glyph glyph-name="igrave" unicode="&#xec;" horiz-adv-x="2868" 
d="M1434 1126q145 0 274 54q134 58 230 154q100 100 154 226q58 132 58 283q0 146 -56 275q-56 134 -156 229q-93 101 -227 154q-132 59 -277 59q-146 0 -280 -56q-129 -56 -230 -157q-92 -92 -151 -227q-56 -131 -56 -277q0 -145 53 -280q59 -129 154 -229
q101 -93 227 -152q131 -56 283 -56zM1075 768q-224 6 -420 -84q-196 -84 -341 -232q-146 -143 -230 -342q-84 -193 -84 -417v-717h2867v717q6 224 -84 417q-84 199 -232 342q-143 145 -342 229q-193 87 -417 87h-717z" />
    <glyph glyph-name="iacute" unicode="&#xed;" horiz-adv-x="3976" 
d="M1988 -427q411 0 705 294t294 705t-294 705t-705 294t-705 -294t-294 -705t294 -705t705 -294zM1391 2560h1194l364 -392h635q159 0 275.5 -121.5t116.5 -279.5v-2390q0 -158 -116.5 -279.5t-275.5 -121.5h-3192q-159 0 -275.5 121.5t-116.5 279.5v2390
q0 158 116.5 279.5t275.5 121.5h635zM1353 572q0 261 187 448t448 187t448 -187t187 -448t-187 -448t-448 -187t-448 187t-187 448z" />
    <glyph glyph-name="icircumflex" unicode="&#xee;" horiz-adv-x="2048" 
d="M596 1280h344l424 428v-1368l-424 428h-344v512z" />
    <glyph glyph-name="idieresis" unicode="&#xef;" horiz-adv-x="2048" 
d="M1452 1152l340 340v-936l-340 340v-300q0 -36 -26 -60t-62 -24h-1024q-36 0 -60 24t-24 60v856q0 36 24 60t60 24h1024q36 0 62 -24t26 -60v-300z" />
    <glyph glyph-name="eth" unicode="&#xf0;" horiz-adv-x="1792" 
d="M1548 1744h244v-1868q0 -374 -259.5 -637t-633 -263t-636.5 263t-263 637v2028q0 267 194.5 461.5t461.5 194.5t457.5 -194.5t190.5 -461.5v-1708q0 -168 -118 -286t-286 -118t-290 118t-122 286v1548h244v-1548q0 -69 49.5 -114.5t118 -45.5t114.5 45.5t46 114.5v1708
q0 168 -118 290t-286 122t-290 -122t-122 -290v-2028q0 -267 194.5 -461.5t461.5 -194.5t457.5 194.5t190.5 461.5v1868z" />
    <glyph glyph-name="ntilde" unicode="&#xf1;" horiz-adv-x="5326" 
d="M3595 -172q415 -247 390 -650l-1 -15q-4 -69 -15.5 -100.5t-53.5 -43.5t-138 -23q-113 -10 -611.5 -15t-1098.5 -5q-683 0 -1266 6t-665 20q-193 75 -111.5 339t351.5 461q232 142 547.5 294t454.5 187q163 29 170.5 159.5t-170.5 432.5q-41 78 -76 262.5t-41 413.5
q-13 361 89 604t411 365q127 39 254 39q419 0 650 -383q108 -261 76 -704.5t-154 -694.5q-141 -243 -129 -348.5t168 -138.5q108 -29 380 -158t589 -304zM5019 238q324 -191 306 -508q-2 -57 -10.5 -84.5t-42 -38.5t-109.5 -20q-67 -9 -338 -14t-631 -5q-132 314 -469 501
q-409 229 -780 390q237 115 338 143q124 23 129.5 120t-129.5 335q-36 63 -66.5 208.5t-37.5 324.5q-9 284 77.5 476t325.5 285q104 33 202 33q322 0 501 -300q79 -204 55.5 -551.5t-114.5 -547.5q-107 -190 -98.5 -271t131.5 -106q85 -23 297 -126.5t463 -243.5z" />
    <glyph glyph-name="ograve" unicode="&#xf2;" horiz-adv-x="3584" 
d="M1792 2559q-372 5 -700 -140q-326 -142 -570 -387q-240 -242 -382 -570q-140 -320 -140 -694q0 -372 137 -700q145 -326 385 -570q244 -240 570 -382q328 -140 700 -140q374 0 694 137q328 145 570 385q242 244 384 570q143 328 143 700q5 374 -140 694
q-142 328 -387 570q-242 242 -570 384q-320 143 -694 143zM1792 -698q-306 0 -573 114q-267 115 -466 313q-198 199 -313 466q-114 267 -114 573q0 305 114 570q115 267 313 465q199 199 466 313q267 117 573 117q305 0 570 -114q267 -115 465 -316q199 -198 313 -465
q117 -265 117 -570q0 -306 -114 -573q-115 -267 -316 -466q-198 -198 -465 -313q-265 -114 -570 -114zM1629 1908v-1207l855 -855l229 232l-759 758v1072h-325z" />
    <glyph glyph-name="oacute" unicode="&#xf3;" horiz-adv-x="3584" 
d="M2932 2560h-325v-326h-1630v326h-325v-326h-652v-3258h3584v3258h-652v326zM652 -698q-138 0 -232 94t-94 232v1629q0 137 94 229q94 97 232 97h2280q138 5 229 -95q97 -94 97 -231v-1629q5 -138 -94 -232q-94 -94 -232 -94h-2280zM1466 1257q-66 0 -114 -49
q-49 -45 -49 -114q0 -66 46 -115q51 -48 117 -48h163v-1140q0 -67 46 -115q51 -48 117 -48q69 0 115 45q48 51 48 118v1303q0 69 -48 114q-46 49 -115 49h-326z" />
    <glyph glyph-name="ocircumflex" unicode="&#xf4;" horiz-adv-x="3584" 
d="M2932 2560h-325v-326h-1630v326h-325v-326h-652v-3258h3584v3258h-652v326zM652 -698q-138 0 -232 94t-94 232v1629q0 137 94 229q94 97 232 97h2280q138 5 229 -95q97 -94 97 -231v-1629q5 -138 -94 -232q-94 -94 -232 -94h-2280zM1466 1257q-66 0 -114 -49
q-49 -45 -49 -114q0 -66 46 -115q51 -48 117 -48h443l-275 -1102q-15 -61 15 -122q36 -59 105 -74q69 -16 122 15q59 36 74 104l326 1304q5 20 5 43v0q0 10 0 2v11v0q-5 58 -49 96q-43 41 -99 49h-10h-5v0h-652z" />
    <glyph glyph-name="otilde" unicode="&#xf5;" horiz-adv-x="2048" 
d="M256 211v170h90q-2 14 -3 35.5t-1 50.5t1 50.5t3 35.5h-90v170h125q83 263 307 430q223 168 506 168q87 0 170 -17t160 -49t146 -78.5t128 -105.5l-242 -242q-70 70 -163.5 110t-198.5 40q-139 0 -257 -70q-117 -68 -185 -186h442v-170h-504q-4 -29 -6 -50.5t-2 -35.5
t2 -35.5t6 -50.5h504v-170h-442q68 -117 185 -187q118 -69 257 -69q105 0 198.5 39.5t163.5 109.5l242 -241q-59 -59 -128 -105.5t-146 -78.5t-160 -49t-170 -17q-283 0 -506 168q-224 167 -307 430h-125z" />
    <glyph glyph-name="odieresis" unicode="&#xf6;" horiz-adv-x="2048" 
d="M2987 1755q-60 81 -140 168q-77 91 -164 182q-91 87 -182 164q-88 81 -168 140q-136 98 -206 123q-74 24 -112 24h-1734q-116 0 -196 -84q-84 -80 -84 -196v-440v-2580q0 -116 84 -196q80 -84 196 -84h262h2311q115 0 196 84q84 80 84 196v2181q0 39 -25 112
q-24 70 -122 206v0v0v0zM2522 1944q80 -80 143 -154q66 -70 112 -129h-538v538q59 -45 129 -111q73 -63 154 -144v0v0v0zM2910 -744q0 -25 -14 -42q-18 -14 -42 -14h-1175h-1398q-25 0 -42 14q-14 17 -14 42v1290v1730q0 25 14 42q17 14 42 14h272h595h594h273v-783
q0 -45 35 -77q31 -35 77 -35h783v-2181v0zM672 766h1119v-1119h-1119v1119v0zM1791 319q168 111 671 447v-1119q-168 112 -671 448v224z" />
    <glyph glyph-name="divide" unicode="&#xf7;" horiz-adv-x="2220" 
d="M1936 1377q112 -190 112 -343v-39q0 -94 -41 -131t-145 -37q-295 0 -295 212v63q0 72 -20.5 103t-86.5 57q-115 46 -351 46q-239 0 -354 -49q-101 -44 -101 -155v-60q0 -217 -299 -217q-101 0 -141.5 34.5t-40.5 119.5v46q0 147 111 350q171 70 376 105t444 35
q242 0 450 -35t382 -105zM963 1012h296v185h222v-235l242 -386q83 -132 99.5 -185t16.5 -192v-199h-1456v199q0 120 22.5 194t92.5 185l243 384v235h222v-185zM1906 1335q-174 67 -375 100t-429 33q-226 0 -424 -33t-367 -100q-56 -128 -81 -256q52 -18 110 -18
q118 0 265 70v16q0 210 497 210q514 0 514 -210v-16q153 -70 270 -70q59 0 104 18q-29 145 -84 256zM1999 1030q-40 -18 -110 -18q-150 0 -273 67v-60q0 -58 70 -94.5t182 -36.5q77 0 104 23t27 90v29zM222 1031v-32q0 -61 33.5 -92t99.5 -31q118 0 191 44q59 35 59 121v38
q-120 -68 -252 -68q-81 0 -131 20zM913 962v185h-123v-200l-233 -370q-88 -137 -106.5 -193.5t-18.5 -184.5v-150h1357v149q0 143 -13.5 184.5t-108.5 193.5l-236 379v192h-123v-185h-395zM839 851h124v-86h-124v86zM1049 851h123v-86h-123v86zM1259 851h123v-86h-123v86z
M839 703h124v-86h-124v86zM1049 703h123v-86h-123v86zM1259 703h123v-86h-123v86zM839 555h124v-86h-124v86zM1049 555h123v-86h-123v86zM1259 555h123v-86h-123v86z" />
    <glyph glyph-name="oslash" unicode="&#xf8;" horiz-adv-x="3584" 
d="M0 -547v2870q0 99 70 168t170 69h3107q99 0 168 -69t69 -168v-3107q0 -100 -69 -170t-168 -70h-2870zM1673 170h-598v-1075h598v1075zM2630 -905h717q60 0 89 30t29 88v3110q0 118 -118 118h-359v-1433q0 -100 -70 -170t-169 -70h-1914q-99 0 -168 70t-69 170v1433h-358
q-121 0 -121 -118v-2822l406 -406h432v1075q0 121 118 121h1434q121 0 121 -121v-1075zM2867 2441h-2150v-1433q0 -58 30 -88.5t88 -30.5l1914 -2q118 0 118 121v1433z" />
    <glyph glyph-name="ugrave" unicode="&#xf9;" horiz-adv-x="1925" 
d="M1925 -888h-91v-136h-1714v136h-120v3448h1925v-3448zM1866 -820v3333h-1818v-3333h1818zM1657 529h-1401v1839h1401v-1839zM1621 439h-156v54h156v-54zM1653 264q0 -138 -138 -138t-138 138t138 138t138 -138zM1205 38h-929v59h929v-59zM1205 -189h-929v59h929v-59z
M1205 -415h-929v59h929v-59zM1205 -641h-929v59h929v-59zM1608 1928v403h-1311v-403h1311zM1608 1611v265h-1311v-265h1311zM1608 1392v170h-1311v-170h1311zM1608 1034v299h-1311v-299h1311zM1608 581v401h-1311v-401h1311zM1512 2033h-233v65h233v-65zM1519 2128h-312v-41
h-514v41h-317v102h1143v-102zM638 2033h-90v54h90v-54z" />
    <glyph glyph-name="uacute" unicode="&#xfa;" horiz-adv-x="3584" 
d="M2464 2560q-231 0 -434 -87q-206 -88 -360 -242q-151 -150 -238 -357q-88 -203 -88 -434q0 -52 7 -105q4 -49 11 -101l-1362 -1362v-126v-546q0 -94 63 -161q67 -63 161 -63h224v224h448v448h448v448h448l291 291q91 -32 185 -49q95 -18 196 -18q231 0 434 88
q207 87 357 238q154 154 242 360q87 203 87 434t-87 434q-88 207 -242 357q-150 154 -357 242q-203 87 -434 87v0zM2800 1440q-140 0 -238 98t-98 238t98 238t238 98t238 -98t98 -238t-98 -238t-238 -98v0z" />
    <glyph glyph-name="ucircumflex" unicode="&#xfb;" horiz-adv-x="3584" 
d="M1792 2560q-370 0 -694 -142q-329 -138 -575 -384q-243 -243 -381 -572q-142 -324 -142 -694t142 -694q138 -329 381 -575q246 -243 575 -381q324 -142 694 -142t694 142q329 138 572 381q246 246 384 575q142 324 142 694t-142 694q-138 329 -384 572q-243 246 -572 384
q-324 142 -694 142v0zM2807 171q23 112 38 235q15 119 18 243h478q-11 -124 -41 -243q-26 -120 -74 -235h-419v0zM777 1365q-23 -112 -38 -235q-15 -119 -18 -243h-478q11 124 41 243q26 120 74 235h419v0zM2561 1365q26 -115 45 -235q15 -119 19 -243h-714v478h650v0z
M1911 1604v698q42 -11 83 -33q41 -19 78 -45q75 -52 146 -134q71 -79 130 -180q41 -67 79 -141q33 -79 63 -165h-579v0zM1236 1910q59 101 130 180q71 82 146 134q37 26 78 45q41 22 83 33v-698h-579q30 86 63 165q38 74 79 141v0zM1673 1365v-478h-714q4 124 19 243
q19 120 45 235h650v0zM358 171q-48 115 -74 235q-30 119 -41 243h478q3 -124 18 -243q15 -123 38 -235h-419v0zM959 649h714v-478h-650q-26 115 -45 235q-15 119 -19 243v0zM1673 -68v-698q-42 11 -83 33q-41 19 -78 45q-75 52 -146 134q-71 79 -130 180q-41 67 -79 141
q-33 79 -63 165h579v0zM2348 -374q-59 -101 -130 -180q-71 -82 -146 -134q-37 -26 -78 -45q-41 -22 -83 -33v698h579q-30 -86 -63 -165q-38 -74 -79 -141v0zM1911 171v478h714q-4 -124 -19 -243q-19 -120 -45 -235h-650v0zM2863 887q-3 124 -18 243q-15 123 -38 235h419
q48 -115 74 -235q30 -119 41 -243h-478v0zM3102 1604h-358q-52 165 -123 306q-71 146 -161 258q120 -56 228 -131q108 -78 202 -171q59 -60 115 -124q53 -67 97 -138v0zM694 1866q94 93 202 171q108 75 228 131q-90 -112 -161 -258q-71 -141 -123 -306h-358q44 71 97 138
q56 64 115 124v0zM482 -68h358q52 -165 123 -306q71 -146 161 -258q-120 56 -228 131q-108 78 -202 171q-59 60 -115 124q-53 67 -97 138v0zM2890 -330q-94 -93 -202 -171q-108 -75 -228 -131q90 112 161 258q71 141 123 306h358q-44 -71 -97 -138q-56 -64 -115 -124v0z" />
    <glyph glyph-name="udieresis" unicode="&#xfc;" horiz-adv-x="2048" 
d="M640 384v1536h-256v-1536h-320l448 -448l448 448h-320v0zM1856 -128h-152h-360q-18 0 -32 8q-16 10 -24 26t-8 32q0 18 10 34q148 222 446 668h-392q-26 0 -44 20q-20 18 -20 44t20 44q18 20 44 20h512q18 0 32 -8q16 -10 24 -26t8 -32q0 -18 -10 -34
q-148 -222 -446 -668h392q26 0 44 -20q20 -18 20 -44t-20 -44q-18 -20 -44 -20v0zM2042 1116l-384 768q-8 16 -24 26t-34 10t-34 -10t-24 -26l-384 -768q-6 -14 -6 -28q0 -10 4 -22q8 -24 32 -36l12 -4q8 -2 16 -2q18 0 32 8q16 10 26 28q36 74 110 220h432l110 -220
q12 -24 36 -32q12 -4 22 -4q14 0 28 6q24 12 32 36q4 12 4 22q0 14 -6 28v0zM1448 1408l152 304l152 -304h-304v0z" />
    <glyph glyph-name="yacute" unicode="&#xfd;" horiz-adv-x="2048" 
d="M640 384v1536h-256v-1536h-320l448 -448l448 448h-320v0zM1856 1024h-512q-18 0 -32 8q-16 10 -24 26t-8 32q0 18 10 34q148 222 446 668h-392q-26 0 -44 20q-20 18 -20 44t20 44q18 20 44 20h512q18 0 32 -8q16 -10 24 -26t8 -32q0 -18 -10 -34q-148 -222 -446 -668h392
q26 0 44 -20q20 -18 20 -44t-20 -44q-18 -20 -44 -20v0zM2042 -36l-384 768q-8 16 -24 26t-34 10t-34 -10t-24 -26l-384 -768q-6 -14 -6 -28q0 -10 4 -22q8 -24 32 -36l12 -4q8 -2 16 -2q18 0 32 8q16 10 26 28q36 74 110 220h432l110 -220q12 -24 36 -32q12 -4 22 -4
q14 0 28 6q24 12 32 36q4 12 4 22q0 14 -6 28v0zM1448 256l152 304l152 -304h-304v0z" />
    <glyph glyph-name="thorn" unicode="&#xfe;" horiz-adv-x="2048" 
d="M236 297h296v-684h-296v684zM662 -387v1280h299v-1280h-299zM1087 -387v1708h299v-1708h-299zM1516 -387v1024h296v-1024h-296z" />
    <glyph glyph-name="ydieresis" unicode="&#xff;" horiz-adv-x="2048" 
d="M1004 467l602 -604q-59 -59 -127.5 -105.5t-145 -78.5t-159.5 -49t-170 -17q-141 0 -270 43.5t-235 121.5q-78 58 -142.5 133.5t-110.5 164t-71 187.5t-25 204q1 140 44 269t121 235q58 79 133 143.5t163.5 111t187.5 71.5t205 24v-854zM1044 510v852q173 0 332 -68
q160 -68 273 -181t181 -272t68 -331h-854zM1174 424h854q0 -87 -17 -170t-49 -159.5t-78.5 -145t-105.5 -127.5z" />
    <glyph glyph-name="Amacron" unicode="&#x100;" horiz-adv-x="2048" 
d="M170 -387v1708h172v-1536h1536v-172h-1708zM406 104v21h20v-21h-20zM406 446v21h20v-21h-20zM406 786v23h20v-23h-20zM406 1128v21h20v-21h-20zM426 227q0 32 27 49l395 396q17 26 49 26q31 0 47 -22l60 -60v21h20v-21h-20l170 -170v21h20v-21h-20l20 -22l582 582
q14 14 32 16.5t33.5 -4t26 -20.5t10.5 -33q0 -23 -18 -45l-623 -621q-18 -18 -43 -18q-29 0 -45 22l-143 143h-2v3l-107 104l-369 -369q-9 -9 -20 -12.5t-23 -3.5q-25 0 -42 17t-17 42zM492 104v21h20v-21h-20zM492 446v21h20v-21h-20zM492 786v23h20v-23h-20zM492 1128v21
h20v-21h-20zM575 104v21h23v-21h-23zM575 446v21h23v-21h-23zM575 786v23h23v-23h-23zM575 1128v21h23v-21h-23zM662 18v23h20v-23h-20zM662 -45h20v-21h-20v21zM662 104v21h20v-21h-20zM662 -131h20v-21h-20v21zM662 190v21h20v-21h-20zM662 274v23h20v-23h-20zM662 530v23
h20v-23h-20zM662 616v21h20v-21h-20zM662 702v21h20v-21h-20zM662 786v23h20v-23h-20zM662 872v21h20v-21h-20zM662 958v21h20v-21h-20zM662 1042v23h20v-23h-20zM662 1128v21h20v-21h-20zM662 1214v21h20v-21h-20zM748 104v21h20v-21h-20zM748 786v23h20v-23h-20zM748 1128
v21h20v-21h-20zM831 104v21h23v-21h-23zM831 446v21h23v-21h-23zM831 786v23h23v-23h-23zM831 1128v21h23v-21h-23zM918 104v21h20v-21h-20zM918 446v21h20v-21h-20zM918 786v23h20v-23h-20zM918 1128v21h20v-21h-20zM1004 18v23h20v-23h-20zM1004 -45h20v-21h-20v21z
M1004 104v21h20v-21h-20zM1004 -131h20v-21h-20v21zM1004 190v21h20v-21h-20zM1004 274v23h20v-23h-20zM1004 360v21h20v-21h-20zM1004 702v21h20v-21h-20zM1004 786v23h20v-23h-20zM1004 872v21h20v-21h-20zM1004 958v21h20v-21h-20zM1004 1042v23h20v-23h-20zM1004 1128
v21h20v-21h-20zM1004 1214v21h20v-21h-20zM1087 104v21h23v-21h-23zM1087 786v23h23v-23h-23zM1087 1128v21h23v-21h-23zM1174 104v21h20v-21h-20zM1174 786v23h20v-23h-20zM1174 1128v21h20v-21h-20zM1260 104v21h20v-21h-20zM1260 786v23h20v-23h-20zM1260 1128v21h20v-21
h-20zM1343 18v23h23v-23h-23zM1343 -45h23v-21h-23v21zM1343 104v21h23v-21h-23zM1343 -131h23v-21h-23v21zM1343 190v21h23v-21h-23zM1343 274v23h23v-23h-23zM1343 360v21h23v-21h-23zM1343 616v21h23v-21h-23zM1343 702v21h23v-21h-23zM1343 786v23h23v-23h-23zM1343 872
v21h23v-21h-23zM1343 958v21h23v-21h-23zM1343 1042v23h23v-23h-23zM1343 1128v21h23v-21h-23zM1343 1214v21h23v-21h-23zM1430 104v21h20v-21h-20zM1430 446v21h20v-21h-20zM1430 786v23h20v-23h-20zM1430 1128v21h20v-21h-20zM1516 104v21h20v-21h-20zM1516 446v21h20v-21
h-20zM1516 786v23h20v-23h-20zM1516 1128v21h20v-21h-20zM1599 104v21h23v-21h-23zM1599 446v21h23v-21h-23zM1599 1128v21h23v-21h-23zM1686 18v23h20v-23h-20zM1686 -45h20v-21h-20v21zM1686 104v21h20v-21h-20zM1686 -131h20v-21h-20v21zM1686 190v21h20v-21h-20z
M1686 274v23h20v-23h-20zM1686 360v21h20v-21h-20zM1686 446v21h20v-21h-20zM1686 530v23h20v-23h-20zM1686 616v21h20v-21h-20zM1686 702v21h20v-21h-20zM1686 958v21h20v-21h-20zM1686 1042v23h20v-23h-20zM1686 1128v21h20v-21h-20zM1686 1214v21h20v-21h-20zM1772 104
v21h20v-21h-20zM1772 446v21h20v-21h-20zM1772 786v23h20v-23h-20zM1772 1128v21h20v-21h-20z" />
    <glyph glyph-name="amacron" unicode="&#x101;" horiz-adv-x="2048" 
d="M170 -387v1708h172v-1536h1536v-172h-1708zM406 446v21h20v-21h-20zM406 786v23h20v-23h-20zM406 1128v21h20v-21h-20zM426 -129v356q0 32 27 49l395 396q17 26 49 26q31 0 47 -22l60 -60v21h20v-21h-20l170 -170v21h20v-21h-20l20 -22l582 582q14 14 32 16.5t33.5 -4
t26 -20.5t10.5 -33v-4l-2 -1090h-1450zM492 446v21h20v-21h-20zM492 786v23h20v-23h-20zM492 1128v21h20v-21h-20zM575 446v21h23v-21h-23zM575 786v23h23v-23h-23zM575 1128v21h23v-21h-23zM662 530v23h20v-23h-20zM662 616v21h20v-21h-20zM662 702v21h20v-21h-20zM662 786
v23h20v-23h-20zM662 872v21h20v-21h-20zM662 958v21h20v-21h-20zM662 1042v23h20v-23h-20zM662 1128v21h20v-21h-20zM662 1214v21h20v-21h-20zM748 786v23h20v-23h-20zM748 1128v21h20v-21h-20zM831 786v23h23v-23h-23zM831 1128v21h23v-21h-23zM918 786v23h20v-23h-20z
M918 1128v21h20v-21h-20zM1004 702v21h20v-21h-20zM1004 786v23h20v-23h-20zM1004 872v21h20v-21h-20zM1004 958v21h20v-21h-20zM1004 1042v23h20v-23h-20zM1004 1128v21h20v-21h-20zM1004 1214v21h20v-21h-20zM1087 786v23h23v-23h-23zM1087 1128v21h23v-21h-23zM1174 786
v23h20v-23h-20zM1174 1128v21h20v-21h-20zM1260 786v23h20v-23h-20zM1260 1128v21h20v-21h-20zM1343 616v21h23v-21h-23zM1343 702v21h23v-21h-23zM1343 786v23h23v-23h-23zM1343 872v21h23v-21h-23zM1343 958v21h23v-21h-23zM1343 1042v23h23v-23h-23zM1343 1128v21h23v-21
h-23zM1343 1214v21h23v-21h-23zM1430 786v23h20v-23h-20zM1430 1128v21h20v-21h-20zM1516 786v23h20v-23h-20zM1516 1128v21h20v-21h-20zM1599 1128v21h23v-21h-23zM1686 958v21h20v-21h-20zM1686 1042v23h20v-23h-20zM1686 1128v21h20v-21h-20zM1686 1214v21h20v-21h-20z
M1772 1128v21h20v-21h-20z" />
    <glyph glyph-name="Abreve" unicode="&#x102;" horiz-adv-x="3072" 
d="M2056 1152q160 160 160 384q0 280 -200 484t-480 204t-480 -204t-200 -484h336q0 136 104 240t240 104t240 -104t104 -240t-104 -240l-208 -216q-200 -216 -200 -480v-88h336q0 272 200 488zM1704 -168v344h-336v-344h336zM2728 2560q136 0 240 -100t104 -236v-2392
q0 -136 -104 -240t-240 -104h-680l-512 -512l-512 512h-680q-144 0 -244 104t-100 240v2392q0 136 100 236t244 100h2384z" />
    <glyph glyph-name="abreve" unicode="&#x103;" horiz-adv-x="3584" 
d="M1969 1130v715h-354v-715h354zM1969 406v362h-354v-362h354zM3231 2560q143 0 248 -105t105 -248v-2154q0 -143 -105 -252.5t-248 -109.5h-2516l-715 -715v3231q0 143 105 248t248 105h2878z" />
    <glyph glyph-name="Aogonek" unicode="&#x104;" horiz-adv-x="3976" 
d="M2389 1767v392h-802v-392h802zM3584 1767q159 0 275.5 -121.5t116.5 -280.5v-597q0 -159 -116.5 -280t-275.5 -121h-1195v401h-802v-401h-1195q-168 0 -280 116.5t-112 284.5v597q0 159 116.5 280.5t275.5 121.5h793v392l402 401h793l401 -401v-392h803zM1587 -25h802
v196h1391v-794q0 -168 -116.5 -284.5t-284.5 -116.5h-2782q-168 0 -284.5 116.5t-116.5 284.5v794h1391v-196z" />
    <glyph glyph-name="aogonek" unicode="&#x105;" horiz-adv-x="2048" 
d="M1024 1876l640 -1560l-60 -60l-580 256l-580 -256l-60 60z" />
    <glyph glyph-name="Cacute" unicode="&#x106;" horiz-adv-x="3584" 
d="M2692 945v361h-362v-361h362zM1969 945v361h-354v-361h354zM1254 945v361h-362v-361h362zM3231 2560q143 0 248 -105t105 -248v-2154q0 -143 -105 -252.5t-248 -109.5h-2516l-715 -715v3231q0 143 105 248t248 105h2878z" />
    <glyph glyph-name="cacute" unicode="&#x107;" horiz-adv-x="2048" 
d="M256 596h1196v1046h-1196v-1046zM256 1964h1196q68 0 118 -52t50 -120v-1196q0 -68 -50 -118t-118 -50h-1196q-68 0 -120 50t-52 118v1196q0 68 52 120t120 52zM1732 1730h122v-1364q0 -68 -52 -120t-120 -52h-1364v122h1414v1414z" />
    <glyph glyph-name="Ccircumflex" unicode="&#x108;" horiz-adv-x="2048" 
d="M1792 1792l-644 -1536h-84l-224 584l-584 224v84z" />
    <glyph glyph-name="ccircumflex" unicode="&#x109;" horiz-adv-x="1432" 
d="M160 1290h1114q66 0 113 -47t47 -113v-676q0 -66 -47 -113t-113 -47h-212l10 -274q0 -49 -23.5 -59.5t-60.5 23.5l-314 310h-514q-66 0 -113 47t-47 113v676q0 66 47 113t113 47z" />
    <glyph glyph-name="Cdotaccent" unicode="&#x10a;" horiz-adv-x="1014" 
d="M427 1577h160v-1995h-160v1995z" />
    <glyph glyph-name="cdotaccent" unicode="&#x10b;" horiz-adv-x="2048" 
d="M0 419v120h2048v-120h-2048z" />
    <glyph glyph-name="Ccaron" unicode="&#x10c;" horiz-adv-x="2048" 
d="M2048 176l-824 471l-536 -681v722h-681l2041 1358v-1870zM824 724v-393l1166 1627z" />
    <glyph glyph-name="ccaron" unicode="&#x10d;" horiz-adv-x="5377" 
d="M5377 2382v178h-5377v-178l2688 -1792zM0 1843v-2149l1614 1074zM3763 768l1614 -1074v2149zM2688 51l-672 448l-2016 -1344v-179h5377v179l-2017 1344z" />
    <glyph glyph-name="Dcaron" unicode="&#x10e;" horiz-adv-x="2048" 
d="M1726.5 2065q32.5 0 55.5 -22l262 -261q22 -24 22 -56.5t-22 -56.5l-169 -157l-366 365l163 164q22 24 54.5 24zM1730 1365l-1050 -1048l-365 366l1048 1048zM542 164l-569 -191l188 571z" />
    <glyph glyph-name="dcaron" unicode="&#x10f;" horiz-adv-x="2048" 
d="M1024 2048v-683q0 -70 50.5 -120t120.5 -50h512v-1110q0 -36 -25 -60.5t-61 -24.5h-1365q-36 0 -60.5 24.5t-24.5 60.5v1878q0 36 24.5 60.5t60.5 24.5h768zM1707 1365h-427q-36 0 -60.5 25t-24.5 61v426z" />
    <glyph glyph-name="Dcroat" unicode="&#x110;" horiz-adv-x="3163" 
d="M1897 -708v317h1265l-854 949h538l-854 949h538l-949 1053l-950 -1053h538l-854 -949h538l-854 -949h1265v-317h-158q-66 0 -112 -45.5t-46 -112.5v-158h1265v158q0 67 -45.5 112.5t-112.5 45.5h-158z" />
    <glyph glyph-name="dcroat" unicode="&#x111;" horiz-adv-x="2913" 
d="M1455 2560q286 0 509.5 -171.5t302.5 -442.5q271 -18 458 -217t187 -473q0 -185 -90 -341.5t-242 -251.5q28 -88 28 -167q0 -225 -160 -384.5t-385 -159.5q-167 0 -304 91v-763q64 0 108 -44t44 -108v-152h-912v152q0 64 44.5 108t107.5 44v763q-136 -91 -304 -91
q-225 0 -384.5 159.5t-159.5 384.5q0 55 12 116q-142 63 -229 197t-87 295q0 225 159.5 384.5t384.5 159.5q16 0 70 -6q0 6 -3 30.5t-3 39.5q0 353 248 600.5t600 247.5z" />
    <glyph glyph-name="Emacron" unicode="&#x112;" horiz-adv-x="3101" 
d="M2560 1161l541 548v-1366h-1366l555 548q-341 284 -782 284q-398 0 -714.5 -231t-437.5 -601l-356 114q156 483 572.5 789t935.5 306q604 0 1052 -391z" />
    <glyph glyph-name="emacron" unicode="&#x113;" horiz-adv-x="3101" 
d="M541 1161q448 391 1052 391q519 0 935.5 -306t572.5 -789l-356 -114q-121 370 -437.5 601t-714.5 231q-441 0 -782 -284l555 -548h-1366v1366z" />
    <glyph glyph-name="Ebreve" unicode="&#x114;" horiz-adv-x="1024" 
d="M216 718q0 123 87 209t210 86q122 0 208.5 -86.5t86.5 -208.5t-87.5 -209.5t-209.5 -87.5q-123 0 -209 87t-86 210z" />
    <glyph glyph-name="ebreve" unicode="&#x115;" horiz-adv-x="3376" 
d="M0 0h3376v2560h-3376v-2560zM256 256v2048h2864v-2048h-2864zM2328 -6h-1280l-128 -762l-256 -256h2048l-256 256z" />
    <glyph glyph-name="Edotaccent" unicode="&#x116;" horiz-adv-x="3584" 
d="M1792 2560q-371 0 -696 -42q-329 -45 -574 -122q-242 -77 -382 -179q-140 -101 -140 -217v-122v-214l1344 -1344v-1120q0 -94 133 -161q130 -63 315 -63q186 0 315 63q133 67 133 161v1120l1344 1344v336q0 116 -140 217q-140 102 -385 179q-241 77 -570 122
q-326 42 -697 42v0zM329 2074q63 35 151 70q87 35 192 63q116 31 245 56q133 24 273 38q144 18 294 28q154 7 308 7t308 -7q151 -10 291 -28q143 -14 276 -38q130 -25 245 -56q105 -28 193 -63q87 -35 150 -70q39 -25 63 -42q25 -21 35 -32q-10 -10 -35 -31q-24 -18 -63 -42
q-63 -35 -150 -70q-88 -35 -193 -63q-115 -32 -245 -56q-133 -25 -276 -42q-140 -14 -291 -25q-154 -7 -308 -7t-308 7q-150 11 -294 25q-140 17 -273 42q-129 24 -245 56q-105 28 -192 63q-88 35 -151 70q-38 24 -63 42q-24 21 -35 31q11 11 35 32q25 17 63 42v0z" />
    <glyph glyph-name="edotaccent" unicode="&#x117;" horiz-adv-x="3965" 
d="M3965 -1024h-3965v1845h341v1334l757 -472v472l753 -472v472l734 -472l331 877h683v-1739h366v-1845zM3520 155v2339h-527l-362 -970l-693 464v-464l-753 464v-464l-763 464v-1833h3098zM3175 585h-689v643h689v-643zM2312 585h-690v643h690v-643zM1450 585h-689v643h689
v-643z" />
    <glyph glyph-name="Eogonek" unicode="&#x118;" horiz-adv-x="3584" 
d="M0 2560h3584v-401h-3584v401zM1195 1365v402h2389v-402h-2389zM0 572v392h3584v-392h-3584zM1195 -231v402h2389v-402h-2389zM0 -1024v401h3584v-401h-3584z" />
    <glyph glyph-name="eogonek" unicode="&#x119;" horiz-adv-x="3585" 
d="M3529 1757l-364 -364l-747 747l364 364q56 56 140 56t140 -56l467 -467q56 -56 56 -140t-56 -140zM1 -277l2203 2202l746 -746l-2202 -2203h-747v747z" />
    <glyph glyph-name="Ecaron" unicode="&#x11a;" horiz-adv-x="3584" 
d="M3046 2383h538v-176l-1254 -1262l-361 361zM1792 675q93 0 93 93t-93 93t-93 -93t93 -93zM715 -671q143 0 252.5 105.5t109.5 257t-109.5 256.5t-252.5 105t-252.5 -105t-109.5 -256.5t109.5 -257t252.5 -105.5zM715 1483q143 0 252.5 105t109.5 256.5t-109.5 257
t-252.5 105.5t-252.5 -105.5t-109.5 -257t109.5 -256.5t252.5 -105zM1371 1550l2213 -2221v-176h-538l-1254 1253l-421 -420q59 -127 59 -295q0 -294 -210 -504.5t-504.5 -210.5t-505 210.5t-210.5 505t210.5 504.5t504.5 210q168 0 295 -59l420 421l-420 421
q-127 -59 -295 -59q-294 0 -504.5 210t-210.5 504.5t210.5 505t505 210.5t504.5 -210.5t210 -504.5q0 -168 -59 -295z" />
    <glyph glyph-name="ecaron" unicode="&#x11b;" horiz-adv-x="1100" 
d="M936 668h134q14 0 23 -10t9 -24v-704q0 -13 -9 -22.5t-23 -9.5h-1038q-13 0 -22.5 9.5t-9.5 22.5v704q0 14 9.5 24t22.5 10h736v312q0 77 -55 132.5t-133 55.5h-62q-76 0 -131 -55.5t-55 -132.5v-118h-170v134q0 138 82 237t218 99h172q138 0 220 -99t82 -237v-328z
M456 102h188l-46 202q54 31 54 88q0 44 -30 73t-72 29t-71 -29t-29 -73q0 -57 54 -88z" />
    <glyph glyph-name="Gcircumflex" unicode="&#x11c;" horiz-adv-x="1100" 
d="M936 668h134q14 0 23 -10t9 -24v-704q0 -13 -9 -22.5t-23 -9.5h-1038q-13 0 -22.5 9.5t-9.5 22.5v704q0 14 9.5 24t22.5 10h130v328q0 138 82 237t218 99h172q138 0 220 -99t82 -237v-328zM332 668h436v312q0 77 -55 132.5t-133 55.5h-62q-76 0 -131 -55.5t-55 -132.5
v-312zM458 102h186l-46 202q54 31 54 88q0 44 -30 73t-72 29t-71 -29t-29 -73q0 -57 54 -88z" />
    <glyph glyph-name="gcircumflex" unicode="&#x11d;" horiz-adv-x="2048" 
d="M256 852v172h1536v-172h-1536zM428 1708h1192v-256h-424v-256h-344v256h-424v256zM852 428v256h344v-256h-344z" />
    <glyph glyph-name="Gbreve" unicode="&#x11e;" horiz-adv-x="2048" 
d="M876 640q-92 -160 -370 -640h292h870q92 160 370 640h-1162zM1984 768q-148 256 -590 1024h-740l592 -1024h738zM580 1664q-146 -252 -580 -1006q92 -160 370 -640q144 252 580 1006q-92 160 -370 640z" />
    <glyph glyph-name="gbreve" unicode="&#x11f;" horiz-adv-x="2048" 
d="M0 1038v-2062h2048v2062h-2048v0zM763 13h512v-384h-512v384zM1275 -883h-512v384h512v-384zM1275 141h-512v384h512v-384zM635 141h-512v384h512v-384zM635 13v-384h-512v384h512zM1915 13v-384h-512v384h512zM1403 141v384h512v-384h-512v0zM635 -499v-384h-512v384
h512zM1403 -499h512v-384h-512v384z" />
    <glyph glyph-name="Gdotaccent" unicode="&#x120;" horiz-adv-x="2048" 
d="M1792 1408v256h-1792v-264v-1144q0 -54 36 -92q38 -36 92 -36h352h1376q80 0 136 56t56 136v1088h-256v0zM1664 256h-1536v800v480h1536v-1280v0zM256 1280h1280v-128h-1280v128zM1024 1024h512v-128h-512v128zM1024 768h512v-128h-512v128zM1024 512h384v-128h-384v128z
M256 1024h640v-640h-640v640z" />
    <glyph glyph-name="gdotaccent" unicode="&#x121;" horiz-adv-x="2048" 
d="M820 1024h408l-204 540zM940 1792h168l468 -1196h-192l-92 256h-536l-96 -256h-192zM0 340h2048v-340h-2048v340z" />
    <glyph glyph-name="glyph227" horiz-adv-x="4826" 
d="M290 645v717h2150v-717h-716v-1669h-717v1669h-717zM1724 2560h3102v-717h-1187v-2867h-717v2867h-1198v717z" />
    <glyph glyph-name="gcommaaccent" unicode="&#x123;" horiz-adv-x="1707" 
d="M144 1164l628 -204v-896l-624 212zM260 1253l590 174l577 -174l-577 -188zM927 61l2 902l629 195v-882z" />
    <glyph glyph-name="Hcircumflex" unicode="&#x124;" horiz-adv-x="1705" 
d="M184 139v439q0 39 17.5 74t47.5 61.5t69.5 41.5t84.5 15h897q45 0 85 -15t70 -41.5t47.5 -61.5t17.5 -74v-439q0 -40 -17.5 -75t-47.5 -61t-70 -41t-85 -15h-897q-45 0 -84.5 15t-69.5 41t-47.5 61t-17.5 75zM276 555h95v-465h92v463h110v70h-297v-68zM385 1436h107
l61 -201l61 201h107l-115 -269v-313h-98v313zM555 485l2 -245q0 -29 -1 -48.5t1 -29.5q2 -16 4 -34.5t19 -29.5q16 -10 37.5 -10t42 7t38 19.5t25.5 26.5l-2 -49l76 -2v395h-92v-247q0 -27 1 -41.5t-4 -18.5q-5 -17 -24 -24q-18 -7 -29 22q-2 4 -1 19.5t1 40.5l-2 249h-92z
M713 1018v108q0 57 10 91q12 36 39 53q28 20 69 20q36 0 62 -12q25 -10 41 -35q12 -18 18 -41q6 -26 6 -67v-105q0 -57 -6 -82q-1 -22 -20 -51q-18 -26 -39 -33q-26 -12 -57 -12q-34 0 -60 10q-25 7 -37 29q-13 18 -20 45q-6 27 -6 82zM795 963q0 -16 12 -28.5t29 -12.5
q16 0 28.5 12t12.5 29v217q0 18 -12.5 30.5t-28.5 12.5t-28.5 -12.5t-12.5 -30.5v-217zM852 94l76 2l6 33q37 -31 66.5 -37.5t50.5 5.5t32 40t11 66v205q0 58 -42 84q-14 8 -32 8q-33 0 -76 -31v154h-92v-529zM942 186v232q0 12 12.5 21.5t28.5 9.5t28.5 -9.5t12.5 -21.5
v-232q0 -12 -12.5 -21t-28.5 -9t-28.5 9t-12.5 21zM1016 955v44v275h86v-318q0 -12 9 -21t24 -9q14 0 24 9t10 21v318h80v-408h-102l2 33q-7 -10 -13.5 -18t-13.5 -13q-16 -10 -35 -10q-24 0 -38 10q-12 8 -23 27q-4 8 -5 16.5t-3 16.5q-1 5 -1.5 12t-0.5 15zM1149 229
q0 -78 41 -111q37 -31 80 -31h8q48 3 83 40q27 27 27 71q-1 7 -1.5 15t-2.5 16h-69v-10v-35q0 -16 -11.5 -25t-27.5 -9h-14q-16 0 -26.5 9t-10.5 25v4v39v52h159v55q0 31 -1 59.5t-5 44.5q-4 27 -24.5 43.5t-47.5 22.5q-17 4 -34 4q-11 0 -22 -2q-29 -4 -50 -19
q-27 -18 -39 -49q-12 -32 -12 -86v-123zM1225 346l2 49q0 16 12 26.5t29 10.5h4q18 0 30.5 -10t12.5 -27l-2 -49h-88z" />
    <glyph glyph-name="hcircumflex" unicode="&#x125;" horiz-adv-x="2048" 
d="M1152 724q56 0 92 38t36 90t-36 90t-92 38h-300v-256h300zM852 1492v-256h256q52 0 90 38t38 90t-38 90t-90 38h-256zM1332 1128q184 -84 184 -292q0 -136 -90 -230t-226 -94h-604v1196h536q144 0 242 -100t98 -244t-140 -236z" />
    <glyph glyph-name="Hbar" unicode="&#x126;" horiz-adv-x="3945" 
d="M1003 -987l-982 1200q-29 37 -17.5 63.5t59.5 26.5h669v2142q0 49 33.5 82t81.5 33h460q48 0 81.5 -33t33.5 -82v-2142h669q48 0 59.5 -26.5t-18.5 -63.5l-981 -1200q-30 -37 -74 -37t-74 37zM2793 2523q30 37 74 37t74 -37l981 -1200q30 -37 18.5 -63.5t-59.5 -26.5
h-669v-2142q0 -49 -33.5 -82t-81.5 -33h-460q-48 0 -81.5 33t-33.5 82v2142h-669q-48 0 -59.5 26.5t17.5 63.5z" />
    <glyph glyph-name="hbar" unicode="&#x127;" horiz-adv-x="2048" 
d="M800 928q0 -216 248 -216q196 0 196 144q0 64 -26 92t-94 60q-4 0 -14 4t-18 8t-16 4h-820v172h1536v-172h-332q0 -4 6 -14t10 -14q28 -68 28 -140q0 -244 -268 -320q-84 -24 -184 -24q-64 0 -124 12q-144 28 -224 88q-156 116 -156 316h252zM1244 1408q0 180 -204 180
q-144 0 -188 -88q-12 -24 -12 -56q0 -60 64 -104q64 -40 120 -60h-392q0 4 -8 10t-8 10q-32 52 -32 144q0 148 128 252q136 96 332 96q212 0 332 -108q124 -112 124 -276h-256z" />
    <glyph glyph-name="Itilde" unicode="&#x128;" horiz-adv-x="1538" 
d="M185 1408h1168q120 -18 120 -120v-1168q-18 -120 -120 -120h-1168q-120 18 -120 120v1168q18 120 120 120zM401 1336q96 -229 96 -244v-252h80v260q0 9 92 236h-84q-7 0 -48 -156h-8q-34 143 -48 156h-80zM657 996q0 -148 56 -148q0 -8 28 -8h28q71 0 84 104v160
q0 95 -88 108h-20q-88 0 -88 -160v-56zM897 1200v-280q0 -76 52 -76h20l28 20h4v-16h84v352h-68v-268q0 -28 -28 -28h-4q-6 0 -16 16v280h-72zM761 1152q24 -8 24 -32v-188q0 -32 -32 -32q-23 0 -28 44v164q0 44 36 44zM241 584v-324q0 -136 120 -180q38 -8 60 -8h696
q122 0 172 116q8 40 8 72v324q0 139 -124 180q-32 8 -68 8h-672q-151 0 -188 -136q-4 -26 -4 -52zM325 644h216q8 -1 8 -8v-40q0 -8 -8 -8h-80v-384q0 -8 -8 -8h-52q-8 0 -8 8v388h-68q-8 0 -8 8v36q1 8 8 8zM781 644h52q8 -1 8 -8v-124q36 28 64 28q44 0 52 -80v-176
q0 -77 -52 -88h-8q-19 0 -64 32q-4 -28 -12 -28h-44q-8 0 -8 12q0 67 4 428zM1101 548q84 0 84 -100v-84q0 -8 -8 -8h-116v-92q0 -5 20 -20h32q5 0 20 20v40q1 8 8 8h36q7 0 12 -20q-12 -96 -80 -96h-20q-84 13 -84 120v100q0 132 96 132zM545 528h52q8 -1 8 -8v-232
q0 -31 20 -40h8q24 16 24 36l-4 8v228q1 8 8 8h56q8 -1 8 -8v-316q0 -8 -8 -8h-40q-8 0 -8 44q-37 -44 -76 -44h-16q-40 0 -40 88v236q1 8 8 8zM837 464v-172q0 -44 40 -44q25 8 28 20v212q0 5 -20 20h-24q-24 -14 -24 -36zM1061 448v-36h72v24q0 9 4 16q-12 36 -40 36
q-36 -8 -36 -40z" />
    <glyph glyph-name="itilde" unicode="&#x129;" horiz-adv-x="2048" 
d="M1768 1652q24 -24 24 -60t-24 -60l-764 -764l-236 236l764 764q24 24 60 24t60 -24zM596 852q104 0 180 -76t76 -180q0 -140 -100 -240t-240 -100q-208 0 -340 172q60 0 114 46t54 122q0 104 76 180t180 76z" />
    <glyph glyph-name="Imacron" unicode="&#x12a;" horiz-adv-x="3584" 
d="M1057 703l-656 -1130h2782l-842 2077l-745 -1778zM3584 -623q0 -158 -121.5 -279.5t-279.5 -121.5h-2782q-158 0 -279.5 121.5t-121.5 279.5v2782q0 158 121.5 279.5t279.5 121.5h2782q158 0 279.5 -121.5t121.5 -279.5v-2782zM1010.5 1435q121.5 0 210 89t88.5 210
t-88.5 210t-210 89t-210 -89t-88.5 -210t88.5 -210t210 -89z" />
    <glyph glyph-name="imacron" unicode="&#x12b;" horiz-adv-x="3585" 
d="M2885 768q121 0 210 84t89 214.5t-89 214.5t-210 84t-210 -84t-89 -214.5t89 -214.5t210 -84zM2287.5 1561q121.5 0 210 89t88.5 210t-88.5 210t-210 89t-210 -89t-88.5 -210t88.5 -210t210 -89zM1298.5 1561q121.5 0 210 89t88.5 210t-88.5 210t-210 89t-210 -89
t-88.5 -210t88.5 -210t210 -89zM701 768q121 0 210 84t89 214.5t-89 214.5t-210 84t-210 -84t-89 -214.5t89 -214.5t210 -84zM1793 2560q737 0 1264.5 -466.5t527.5 -1129.5q0 -411 -294 -700t-705 -289h-345q-131 0 -215 -89t-84 -210q0 -103 75 -196t75 -205
q0 -131 -84 -215t-215 -84q-747 0 -1269.5 522.5t-522.5 1269.5t522.5 1269.5t1269.5 522.5z" />
    <glyph glyph-name="Ibreve" unicode="&#x12c;" horiz-adv-x="3584" 
d="M49 865l1589 1300q49 40 84 24.5t35 -79.5v-886h1675q64 0 108 -44t44 -108v-609q0 -64 -44 -108t-108 -44h-1675v-886q0 -64 -35 -79t-84 24l-1589 1300q-49 40 -49 98t49 97z" />
    <glyph glyph-name="ibreve" unicode="&#x12d;" horiz-adv-x="3584" 
d="M3534 865q49 -39 49 -97t-49 -98l-1589 -1300q-49 -39 -84 -24t-35 79v886h-1674q-64 0 -108 44t-44 108v609q0 64 44 108t108 44h1674v886q0 64 35 79.5t84 -24.5z" />
    <glyph glyph-name="Iogonek" unicode="&#x12e;" horiz-adv-x="2048" 
d="M767 1792h512q106 0 181 -75t75 -181v-1024q0 -106 -75 -181t-181 -75h-512q-106 0 -181 75t-75 181v1024q0 106 75 181t181 75zM639 768h768v768h-768v-768zM1023 384q53 0 90.5 37.5t37.5 90.5t-37.5 90.5t-90.5 37.5t-90.5 -37.5t-37.5 -90.5t37.5 -90.5t90.5 -37.5z
" />
    <glyph glyph-name="iogonek" unicode="&#x12f;" horiz-adv-x="2048" 
d="M767 1792h512q106 0 181 -75t75 -181v-1024q0 -106 -75 -181t-181 -75h-512q-106 0 -181 75t-75 181v384h128v-128h768v768h-768v-128h-128v128q0 106 75 181t181 75zM1151 1152l-384 -256v128h-512v256h512v128zM1023 384q53 0 90.5 37.5t37.5 90.5t-37.5 90.5
t-90.5 37.5t-90.5 -37.5t-37.5 -90.5t37.5 -90.5t90.5 -37.5z" />
    <glyph glyph-name="Idotaccent" unicode="&#x130;" horiz-adv-x="2048" 
d="M1746 1622q-72 72 -155 128t-174 93t-189 57t-200 20q-210 0 -395 -80t-322 -218t-217 -322t-80 -394q0 -134 34 -263t102 -245l-144 -526l538 142q110 -62 233 -93t251 -31v0v0v0q210 0 395 80t323 217t218 322t80 395q0 102 -20 200t-58 189t-93 174t-127 155v0z
M1028 60v0q-114 0 -223 30t-207 88l-30 18l-320 -82l86 310l-20 32q-64 100 -97 215t-33 235q0 174 67 327t181 268t268 181t328 66q86 0 167 -16t157 -47t145 -77t129 -106q58 -60 104 -129t78 -145t48 -157t16 -167q0 -174 -67 -328t-181 -268t-268 -181t-328 -67v0z
M1490 692q-18 10 -86 43t-86 41q-18 6 -31 6t-27 -20q-12 -18 -40 -52t-40 -48q-12 -12 -24 -14t-30 8q-20 10 -76 36t-128 90q-58 50 -94 104l-48 72t-5 30t17 22q8 8 18 20l20 24q8 12 13 21t11 21t5 24t-7 20q-4 10 -33 81t-45 109q-14 36 -30 39t-26 3q-12 2 -24 2h-26
q-12 0 -31 -7t-35 -25q-18 -18 -54 -68t-36 -144t47 -172t57 -90q4 -6 37 -51t89 -105t134 -123t174 -103q44 -20 80 -33t64 -21q46 -14 86 -15t74 5q36 6 95 41t75 79t18 78t-2 42q-6 8 -18 15t-32 15v0z" />
    <glyph glyph-name="dotlessi" unicode="&#x131;" horiz-adv-x="2048" 
d="M2034 768q12 -84 14 -180v-6q-2 -94 -36 -134q-32 -36 -130 -52q-66 -12 -136 -12q-34 0 -68 2q-104 10 -186 48q-84 38 -84 110t32 128q34 56 -28 128q-62 70 -164 84q-102 12 -224 12t-224 -12q-102 -14 -164 -84q-62 -72 -28 -128q32 -56 32 -128t-84 -110
q-82 -38 -188 -48q-104 -8 -202 10q-98 16 -130 52q-34 40 -36 134v6q2 96 14 180q8 56 38 118t104 138v0v0q56 52 128 98q74 46 176 80q102 36 238 58q136 20 318 20v0h4h4h4h4v0q182 0 318 -20q136 -22 238 -58q102 -34 176 -80q72 -46 128 -98v0v0q74 -76 104 -138
t38 -118v0z" />
    <glyph glyph-name="IJ" unicode="&#x132;" horiz-adv-x="2688" 
d="M168 2560h1623q897 -856 897 -1121v-2351q0 -112 -112 -112h-2464q-112 0 -112 112v3135q35 337 168 337zM447 122v-224q18 -113 113 -113h1568q112 0 112 113v224q0 112 -112 112h-1568q-113 -17 -113 -112zM447 882v-224q18 -113 113 -113h1568q112 0 112 113v224
q0 112 -112 112h-1568q-113 -17 -113 -112z" />
    <glyph glyph-name="ij" unicode="&#x133;" horiz-adv-x="4430" 
d="M4170 2227q191 -321 260 -728q-208 -45 -411 -45q-345 0 -726 182v50q0 350 -1060 350q-1097 0 -1097 -350v-50q-363 -212 -718 -212q-210 0 -418 75q66 383 262 728q449 168 934.5 250.5t1007.5 82.5q541 0 1032.5 -82.5t933.5 -250.5zM4430 1395v-113
q0 -220 -93.5 -301.5t-346.5 -81.5q-354 0 -525.5 125.5t-171.5 384.5v107q336 -180 723 -180q222 0 414 59zM1136 1499v-87q0 -284 -164 -412.5t-525 -128.5q-260 0 -353.5 86t-93.5 327v102q239 -78 432 -78q364 0 704 191zM1866 1367h700v319h524v-442l624 -995
q137 -217 179.5 -355t42.5 -365v-553h-3440v553q0 352 236 730l610 985v442h524v-319zM1559 987v-204h291v204h-291zM2055 987v-204h291v204h-291zM2552 987v-204h290v204h-290zM1559 637v-203h291v203h-291zM2055 637v-203h291v203h-291zM2552 637v-203h290v203h-290z
M1559 287v-203h291v203h-291zM2055 287v-203h291v203h-291zM2552 287v-203h290v203h-290z" />
    <glyph glyph-name="Jcircumflex" unicode="&#x134;" horiz-adv-x="3584" 
d="M3200 2560q160 0 272 -112t112 -272v-2816q0 -160 -112 -272t-272 -112h-2816q-160 0 -272 112t-112 272v2816q0 160 112 272t272 112h2816zM752 -512q960 0 1640 680t680 1640q0 96 -96 120l-520 120h-24q-80 0 -112 -72l-240 -560q-8 -24 -8 -48q0 -56 48 -96l296 -248
q-280 -600 -880 -880l-248 296q-40 48 -96 48q-24 0 -48 -8l-560 -240q-72 -32 -72 -112v-24l120 -520q24 -96 120 -96z" />
    <glyph glyph-name="jcircumflex" unicode="&#x135;" horiz-adv-x="3583" 
d="M3450 2384q133 -28 133 -161q0 -1344 -951.5 -2295.5t-2295.5 -951.5q-133 0 -161 133l-168 728q-35 133 98 189l784 336q112 49 196 -49l343 -420q413 189 731.5 511t507.5 727l-420 350q-98 77 -49 196l336 784q56 126 188 91z" />
    <glyph glyph-name="Kcommaaccent" unicode="&#x136;" horiz-adv-x="3502" 
d="M1401 -913v3361q0 46 32.5 79t78.5 33h473q46 0 78.5 -33t32.5 -79v-3361q0 -46 -32.5 -79t-78.5 -33h-473q-46 0 -78.5 33t-32.5 79z" />
    <glyph glyph-name="kcommaaccent" unicode="&#x137;" horiz-adv-x="3502" 
d="M112 1115h3277q46 0 79 -32.5t33 -78.5v-473q0 -46 -33 -78.5t-79 -32.5h-3277q-46 0 -79 32.5t-33 78.5v473q0 46 33 78.5t79 32.5z" />
    <glyph glyph-name="kgreenlandic" unicode="&#x138;" horiz-adv-x="3504" 
d="M3300 1500l-2686 -2021q-37 -28 -83 -21.5t-74 43.5l-146 194l-138 184q-27 36 -20.5 82t42.5 74l1343 1010l1344 1011q36 28 82 21.5t74 -43.5l284 -378q28 -36 21.5 -82.5t-43.5 -73.5z" />
    <glyph glyph-name="Lacute" unicode="&#x139;" horiz-adv-x="2607" 
d="M803 812v273h-224v152h224v300h153v-300h303v300h153v-300h320v300h153v-300h231v-152h-231v-273h246v-152h-246v-251h242v-153h-242v-256h-153v256h-320v-256h-153v256h-303v-256h-153v256h-213v153h213v251h-209v152h209zM1412 660v-251h320v251h-320zM1412 1085v-273
h320v273h-320zM956 660v-251h303v251h-303zM956 1085v-273h303v273h-303z" />
    <glyph glyph-name="lacute" unicode="&#x13a;" horiz-adv-x="3499" 
d="M3154 1759q-59 80 -140 168q-77 91 -164 182q-91 87 -182 164q-88 81 -168 140q-137 98 -207 123q-73 24 -112 24h-1716q-115 0 -196 -84q-84 -80 -84 -196v-441v-2583q0 -115 84 -196q81 -84 196 -84h263h2293q116 0 196 84q84 81 84 196v2184q0 39 -24 112
q-25 70 -123 207v0zM2689 1948q80 -81 143 -154q67 -70 112 -130h-539v539q60 -45 130 -112q73 -63 154 -143v0zM3077 -744q0 -24 -14 -42q-17 -14 -42 -14h-1176h-1380q-24 0 -42 14q-14 18 -14 42v1292v1732q0 25 14 42q18 14 42 14h273h595h575h273v-784q0 -45 35 -77
q32 -35 77 -35h784v-2184v0zM2517 -452h-465h-1083q-45 0 -77 35q-35 32 -35 77q0 46 35 77q32 35 77 35h1548q46 0 77 -35q35 -31 35 -77q0 -45 -35 -77q-31 -35 -77 -35v0zM2517 -4h-1548q-45 0 -77 35q-35 32 -35 77q0 46 35 77q32 35 77 35h1548q46 0 77 -35
q35 -31 35 -77q0 -45 -35 -77q-31 -35 -77 -35v0zM2517 444h-1548q-45 0 -77 35q-35 32 -35 77q0 46 35 77q32 35 77 35h1548q46 0 77 -35q35 -31 35 -77q0 -45 -35 -77q-31 -35 -77 -35v0zM2517 894h-1548q-45 0 -77 35q-35 32 -35 77q0 46 35 77q32 35 77 35h1548
q46 0 77 -35q35 -31 35 -77q0 -45 -35 -77q-31 -35 -77 -35v0z" />
    <glyph glyph-name="Lcommaaccent" unicode="&#x13b;" horiz-adv-x="3500" 
d="M203 2287h3069v-3071h-3069v3071z" />
    <glyph glyph-name="lcommaaccent" unicode="&#x13c;" horiz-adv-x="3499" 
d="M3052 -547v2597h-2595v-2597h2595zM220 2287h3069v-3071h-3069v3071z" />
    <glyph glyph-name="Lcaron" unicode="&#x13d;" horiz-adv-x="3500" 
d="M1748 -578q359 0 667 177q310 180 489 491q181 312 181 668q0 179 -45 344t-134 321q-176 308 -491 488q-314 181 -667 181q-359 0 -669 -181q-312 -182 -489 -491q-88 -156 -133 -319.5t-45 -342.5q0 -361 178 -668q181 -309 491 -491q309 -177 667 -177zM1746 2298
q419 0 777 -212q356 -209 557 -563q205 -360 205 -761q0 -406 -206 -767q-205 -355 -561 -563q-354 -206 -772 -206q-415 0 -767 205q-348 201 -559 557q-108 177 -159 370t-51 404q0 421 206 769q210 352 561 560q350 207 769 207z" />
    <glyph glyph-name="lcaron" unicode="&#x13e;" horiz-adv-x="3500" 
d="M3287 968v-439h-176v439h176zM396 1602v-438h-179v438h179zM396 968v-439h-179v439h179zM2606 2108h-441v179h441v-179zM1973 2108h-440v179h440v-179zM396 334v-436h-179v436h179zM1973 -784h-440v176h440v-176zM3287 1602v-438h-176v438h176zM3287 334v-436h-176v436
h176zM1337 2108h-435v179h435v-179zM1337 -784h-435v176h435v-176zM2606 -784h-441v176h441v-176zM3287 -784h-491v176h315v314h176v-490zM706 -784h-489v490h179v-314h310v-176zM3111 2108h-315v179h491v-491h-176v312zM396 1796h-179v491h489v-179h-310v-312z" />
    <glyph glyph-name="Ldot" unicode="&#x13f;" horiz-adv-x="3500" 
d="M588 575v-979h979v979h-979zM218 2297h3069v-3071h-3069v3071zM1938 1927v-979h979v979h-979zM588 1927v-979h979v979h-979zM1938 575v-979h979v979h-979z" />
    <glyph glyph-name="ldot" unicode="&#x140;" horiz-adv-x="3500" 
d="M419 -578h2666v2666h-2666v-2666zM213 -784v3076h3076v-3076h-3076zM1672 473l-50 -66q-391 -509 -607 -509q-160 0 -328 266q58 -13 87 -13q272 0 622 447l81 102l-61 71q-419 488 -419 685q0 142 230 360q94 -428 397 -808l48 -59l85 106q430 530 684 530
q125 0 206 -122q12 -21 41 -58q-322 -146 -721 -589l-87 -95l62 -69q381 -416 701 -416q93 0 174 21q-104 -216 -174.5 -282.5t-189.5 -66.5q-261 0 -683 459z" />
    <glyph glyph-name="Lslash" unicode="&#x141;" horiz-adv-x="3500" 
d="M1647 -7l-91 -60q-118 -77 -203 -154q-17 75 -83 241l-46 118q-155 383 -262 535.5t-231 164.5q168 153 294 153q170 0 375 -462l75 -165q541 969 1438 1724h-2495v-2659h2659v2586q-481 -439 -865.5 -983t-564.5 -1039zM3282 2189v-2965h-3067v3067h2963
q155 107 250 162l60 -108q-72 -52 -206 -156z" />
    <glyph glyph-name="lslash" unicode="&#x142;" horiz-adv-x="1321" 
d="M623 605l-25 -32q-187 -245 -291 -245q-78 0 -159 128q28 -6 43 -6q131 0 298 215l39 49l-28 34q-202 235 -202 330q0 68 110 173q46 -206 192 -389l22 -28l42 51q206 255 328 255q60 0 99 -59q7 -10 20 -28q-155 -70 -347 -283l-41 -46l30 -33q182 -200 336 -200
q45 0 84 10q-50 -104 -83.5 -136t-91.5 -32q-126 0 -328 221z" />
    <glyph glyph-name="Nacute" unicode="&#x143;" horiz-adv-x="1568" 
d="M1464 1568l30 -52q-293 -207 -543 -524t-361 -621l-44 -29q-57 -37 -98 -74q-7 36 -39 116l-23 57q-75 185 -126.5 258.5t-111.5 79.5q81 74 141 74q83 0 182 -223l36 -80q177 317 427.5 584t529.5 434z" />
    <glyph glyph-name="nacute" unicode="&#x144;" horiz-adv-x="1716" 
d="M858 1166q-107 0 -200 -39q-92 -39 -168 -115q-77 -77 -115 -169t-38 -201q0 -106 38 -198t115 -169q76 -76 168 -115q93 -39 200 -39t200 39q92 39 168 115q77 77 115 169t38 198q0 109 -38 201t-115 169q-76 76 -168 115q-93 39 -200 39zM858 1316q138 0 257 -50
t217 -148q99 -99 148 -218q49 -118 49 -258q0 -137 -49 -256q-49 -118 -148 -217q-98 -98 -217 -148t-257 -50t-257 50t-217 148q-99 99 -148 217q-49 119 -49 256q0 140 49 258q49 119 148 218q98 98 217 148t257 50zM943 1084v-357h356v-170h-356v-357h-170v357h-356v170
h356v357h170z" />
    <glyph glyph-name="Ncommaaccent" unicode="&#x145;" horiz-adv-x="1716" 
d="M417 727h882v-170h-882v170zM858 1166q-107 0 -200 -39q-92 -39 -168 -115q-77 -77 -115 -169t-38 -201q0 -106 38 -198t115 -169q76 -76 168 -115q93 -39 200 -39t200 39q92 39 168 115q77 77 115 169t38 198q0 109 -38 201t-115 169q-76 76 -168 115q-93 39 -200 39z
M858 1316q138 0 257 -50t217 -148q99 -99 148 -218q49 -118 49 -258q0 -137 -49 -256q-49 -118 -148 -217q-98 -98 -217 -148t-257 -50t-257 50t-217 148q-99 99 -148 217q-49 119 -49 256q0 140 49 258q49 119 148 218q98 98 217 148t257 50z" />
    <glyph glyph-name="ncommaaccent" unicode="&#x146;" horiz-adv-x="1716" 
d="M858 1166q-107 0 -200 -39q-92 -39 -168 -115q-77 -77 -115 -169t-38 -201q0 -106 38 -198t115 -169q76 -76 168 -115q93 -39 200 -39t200 39q92 39 168 115q77 77 115 169t38 198q0 109 -38 201t-115 169q-76 76 -168 115q-93 39 -200 39zM858 1316q138 0 257 -50
t217 -148q99 -99 148 -218q49 -118 49 -258q0 -137 -49 -256q-49 -118 -148 -217q-98 -98 -217 -148t-257 -50t-257 50t-217 148q-99 99 -148 217q-49 119 -49 256q0 140 49 258q49 119 148 218q98 98 217 148t257 50zM1231 894l-253 -252l252 -252l-120 -120l-252 252
l-252 -253l-121 121l253 252l-252 252l120 120l252 -252l252 253z" />
    <glyph glyph-name="Ncaron" unicode="&#x147;" horiz-adv-x="1716" 
d="M752 769h212v-254h-212v254zM858 1166q-107 0 -200 -39q-92 -39 -168 -115q-77 -77 -115 -169t-38 -201q0 -106 38 -198t115 -169q76 -76 168 -115q93 -39 200 -39t200 39q92 39 168 115q77 77 115 169t38 198q0 109 -38 201t-115 169q-76 76 -168 115q-93 39 -200 39z
M858 1316q138 0 257 -50t217 -148q99 -99 148 -218q49 -118 49 -258q0 -137 -49 -256q-49 -118 -148 -217q-98 -98 -217 -148t-257 -50t-257 50t-217 148q-99 99 -148 217q-49 119 -49 256q0 140 49 258q49 119 148 218q98 98 217 148t257 50z" />
    <glyph glyph-name="ncaron" unicode="&#x148;" horiz-adv-x="1716" 
d="M538 874h640v-136h-640v136zM538 546h640v-136h-640v136zM858 1166q-107 0 -200 -39q-92 -39 -168 -115q-77 -77 -115 -169t-38 -201q0 -106 38 -198t115 -169q76 -76 168 -115q93 -39 200 -39t200 39q92 39 168 115q77 77 115 169t38 198q0 109 -38 201t-115 169
q-76 76 -168 115q-93 39 -200 39zM858 1316q138 0 257 -50t217 -148q99 -99 148 -218q49 -118 49 -258q0 -137 -49 -256q-49 -118 -148 -217q-98 -98 -217 -148t-257 -50t-257 50t-217 148q-99 99 -148 217q-49 119 -49 256q0 140 49 258q49 119 148 218q98 98 217 148
t257 50z" />
    <glyph glyph-name="napostrophe" unicode="&#x149;" horiz-adv-x="1716" 
d="M337 1161v-1040h1042v1040h-1042zM187 1316h1342v-1345h-1342v1345zM943 1084v-357h356v-170h-356v-357h-170v357h-356v170h356v357h170z" />
    <glyph glyph-name="Eng" unicode="&#x14a;" horiz-adv-x="1716" 
d="M417 727h882v-170h-882v170zM337 1161v-1040h1042v1040h-1042zM187 1316h1342v-1345h-1342v1345z" />
    <glyph glyph-name="eng" unicode="&#x14b;" horiz-adv-x="1716" 
d="M1341 1004l-363 -362l363 -362l-121 -120l-362 362l-362 -363l-121 121l363 362l-363 362l121 121l362 -363l362 363zM337 1161v-1040h1042v1040h-1042zM187 1316h1342v-1345h-1342v1345z" />
    <glyph glyph-name="Omacron" unicode="&#x14c;" horiz-adv-x="1716" 
d="M752 769h212v-254h-212v254zM337 1161v-1040h1042v1040h-1042zM187 1316h1342v-1345h-1342v1345z" />
    <glyph glyph-name="omacron" unicode="&#x14d;" horiz-adv-x="3500" 
d="M3287 -784h-877v877h877v-877zM2465 38v-767h767v767h-767zM2191 -784h-877v877h877v-877zM1369 38v-767h767v767h-767zM1095 -784h-877v877h877v-877zM273 38v-767h767v767h-767zM3287 312h-877v877h877v-877zM2465 1134v-767h767v767h-767zM2191 312h-877v877h877v-877
zM1369 1134v-767h767v767h-767zM1095 312h-877v877h877v-877zM273 1134v-767h767v767h-767zM3287 1408h-877v877h877v-877zM2465 2230v-767h767v767h-767zM2191 1408h-877v877h877v-877zM1369 2230v-767h767v767h-767zM1095 1408h-877v877h877v-877z" />
    <glyph glyph-name="Obreve" unicode="&#x14e;" horiz-adv-x="3500" 
d="M1365 1083v-1153q0 -28 -17.5 -46.5t-46.5 -18.5h-129q-28 0 -45.5 18.5t-17.5 46.5v1153q0 27 17.5 45.5t45.5 18.5h129q29 0 46.5 -18.5t17.5 -45.5zM1878 1083v-1153q0 -28 -18.5 -46.5t-47.5 -18.5h-127q-28 0 -46.5 18.5t-18.5 46.5v1153q0 27 18.5 45.5t46.5 18.5
h127q29 0 47.5 -18.5t18.5 -45.5zM2389 1083v-1153q0 -28 -17.5 -46.5t-45.5 -18.5h-128q-28 0 -46.5 18.5t-18.5 46.5v1153q0 27 18.5 45.5t46.5 18.5h128q28 0 45.5 -18.5t17.5 -45.5zM2647 -366v1896h-1794v-1896q0 -44 14 -81.5t29 -54t20 -16.5h1666q5 0 21 16.5t30 54
t14 81.5zM1301 1788h897l-97 233q-13 20 -34 23h-634q-19 -3 -33 -23zM3158 1723v-128q0 -28 -17.5 -46.5t-45.5 -18.5h-193v-1896q0 -166 -94.5 -287t-225.5 -121h-1666q-131 0 -225.5 116.5t-94.5 283.5v1904h-191q-28 0 -46.5 18.5t-18.5 46.5v128q0 29 18.5 47t46.5 18
h618l140 333q30 76 108 127.5t158 51.5h640q80 0 158 -51.5t108 -127.5l140 -333h620q28 0 45.5 -18t17.5 -47z" />
    <glyph glyph-name="obreve" unicode="&#x14f;" horiz-adv-x="3500" 
d="M210 -365v2459q0 85 60 144t146 59h2662q85 0 144 -59t59 -144v-2662q0 -86 -59 -146t-144 -60h-2459zM1644 249h-513v-921h513v921zM2464 -672h614q51 0 76 25.5t25 75.5v2665q0 101 -101 101h-308v-1228q0 -86 -60 -145.5t-144 -59.5h-1641q-84 0 -143.5 59.5
t-59.5 145.5v1228h-306q-104 0 -104 -101v-2418l348 -348h370v921q0 104 101 104h1229q104 0 104 -104v-921zM2667 2195h-1843v-1228q0 -50 26 -76t75 -26l1641 -2q101 0 101 104v1228z" />
    <glyph glyph-name="Ohungarumlaut" unicode="&#x150;" horiz-adv-x="3500" 
d="M857 -519h1792v514h-1792v-514zM857 762h1792v768h-320q-80 0 -136.5 56t-56.5 137v319h-1279v-1280zM3161 634.5q0 51.5 -38 89.5t-89.5 38t-90 -38t-38.5 -89.5t38.5 -90t90 -38.5t89.5 38.5t38 90zM3418 634v-832q0 -26 -19.5 -45t-45.5 -19h-448v-321q0 -79 -56 -135
t-137 -56h-1920q-79 0 -134.5 56t-55.5 135v321h-449q-26 0 -45.5 19t-19.5 45v832q0 159 113 272t271 113h130v1087q0 80 55.5 136.5t134.5 56.5h1344q81 0 177.5 -40.5t151.5 -96.5l303 -303q57 -56 97 -152.5t40 -176.5v-511h128q159 0 272 -113t113 -272z" />
    <glyph glyph-name="ohungarumlaut" unicode="&#x151;" horiz-adv-x="3500" 
d="M2715 -390h-1201h-720v384q144 240 576 961q198 -241 790 -961q138 96 555 384v-768v0zM2715 858q0 -120 -84 -204t-204 -84t-204 84t-84 204q0 121 84 205t204 84t204 -84t84 -205v0zM2973 1612q-51 69 -120 144q-66 78 -141 156q-78 75 -156 141q-75 69 -144 120
q-117 84 -177 105q-63 21 -96 21h-1489q-99 0 -168 -72q-72 -69 -72 -168v-378v-2215q0 -99 72 -168q69 -72 168 -72h225h1984q99 0 168 72q72 69 72 168v1873q0 33 -21 96q-21 60 -105 177v0zM2574 1774q69 -69 123 -132q57 -60 96 -111h-462v462q51 -39 111 -96
q63 -54 132 -123v0zM2907 -534q0 -21 -12 -36q-15 -12 -36 -12h-1009h-1200q-21 0 -36 12q-12 15 -12 36v1107v1486q0 21 12 36q15 12 36 12h234h510h510h235v-672q0 -39 30 -66q27 -30 66 -30h672v-1873v0z" />
    <glyph glyph-name="OE" unicode="&#x152;" horiz-adv-x="3500" 
d="M1116 706l-562 -968h2383l-721 1779l-638 -1523zM3281 -430q0 -136 -104 -240t-240 -104h-2383q-136 0 -240 104t-104 240v2383q0 136 104 240t240 104h2383q136 0 240 -104t104 -240v-2383zM1076 1333q104 0 180 76t76 180t-76 180t-180 76t-180 -76t-76 -180t76 -180
t180 -76z" />
    <glyph glyph-name="oe" unicode="&#x153;" horiz-adv-x="3500" 
d="M744 2290h1393q769 -735 769 -961v-2017q0 -96 -97 -96h-2113q-96 0 -96 96v2690q30 288 144 288zM984 657v-383q15 -97 95 -97h1346q96 0 96 97v383q-622 672 -672 672h-191zM1658 945h191l480 -480q0 -96 -96 -96h-961q-96 0 -96 96z" />
    <glyph glyph-name="Racute" unicode="&#x154;" horiz-adv-x="3500" 
d="M3289 246v-1026h-1026l393 393l-703 693l248 249l695 -702zM1237 -771h-1026v1026l393 -393l687 691l249 -248l-696 -683zM211 1272v1026h1026l-393 -393l682 -674l-248 -248l-674 682zM2263 2298h1026v-1026l-393 393l-687 -690l-249 249l696 681z" />
    <glyph glyph-name="racute" unicode="&#x155;" horiz-adv-x="3499" 
d="M883 1921q-71 -52 -147 -122q-80 -68 -160 -144q-76 -80 -144 -160q-70 -76 -122 -147q-86 -120 -108 -181q-21 -64 -21 -98v-1503q0 -101 74 -171q70 -74 171 -74h386h2263q101 0 171 74q74 70 74 171v230v2009q0 101 -74 171q-70 74 -171 74h-1913q-34 0 -98 -21
q-61 -22 -181 -108v0zM717 1514q71 70 135 125q62 58 114 98v-472h-472q40 52 98 114q55 64 125 135v0zM3075 1854q21 0 36 -12q13 -16 13 -37v-1030v-1209q0 -21 -13 -37q-15 -12 -36 -12h-1131h-1518q-21 0 -37 12q-12 16 -12 37v239v521v504v239h687q40 0 67 31
q31 27 31 67v687h1913v0zM2819 1363v-407v-948q0 -40 -31 -68q-27 -30 -67 -30t-68 30q-30 28 -30 68v1355q0 40 30 68q28 30 68 30t67 -30q31 -28 31 -68v0zM2427 1363v-1355q0 -40 -31 -68q-28 -30 -68 -30q-39 0 -67 30q-31 28 -31 68v1355q0 40 31 68q28 30 67 30
q40 0 68 -30q31 -28 31 -68v0zM2034 1363v-1355q0 -40 -30 -68q-28 -30 -68 -30t-67 30q-31 28 -31 68v1355q0 40 31 68q27 30 67 30t68 -30q30 -28 30 -68v0zM1640 1363v-1355q0 -40 -31 -68q-27 -30 -67 -30t-67 30q-31 28 -31 68v1355q0 40 31 68q27 30 67 30t67 -30
q31 -28 31 -68v0z" />
    <glyph glyph-name="Rcommaaccent" unicode="&#x156;" horiz-adv-x="3499" 
d="M3033 -784l19 2834l-2832 -5v-2829h2813zM220 2287h3069v-3071h-3069v3071z" />
    <glyph glyph-name="rcommaaccent" unicode="&#x157;" horiz-adv-x="3585" 
d="M2720 554q39 0 66 -23t27 -69q0 -150 -183 -350q-90 -98 -192 -167t-210.5 -111t-219 -61.5t-215.5 -19.5q-83 0 -172.5 12.5t-178.5 39.5t-175.5 67.5t-161.5 97.5q-75 58 -137.5 123t-106 130.5t-67.5 127t-24 111.5q0 38 23.5 65t69.5 27q63 0 171 -115
q142 -156 335 -241.5t424 -85.5q457 0 756 327q106 115 171 115zM2413 796q-113 0 -190 93q-79 94 -79 226q0 135 79 225q82 94 190 94q58 0 107 -25t84.5 -68t55.5 -101.5t20 -124.5q0 -130 -75 -225q-75 -94 -192 -94zM1170 796q-113 0 -190 93q-79 94 -79 226
q0 135 79 225q82 94 190 94q54 0 103 -25t85.5 -68t57.5 -101t21 -125q0 -136 -79 -226q-78 -93 -188 -93zM1793 -798q203 0 394 51t372 150q365 204 582 571t217 794q0 413 -209 780q-211 365 -576 576q-367 209 -780 209q-433 0 -800 -221q-363 -215 -566 -580
q-200 -357 -200 -764q0 -419 209 -784q208 -365 573 -573q365 -209 784 -209zM1793 2560q476 0 895 -242q211 -121 373.5 -285.5t283.5 -373.5q240 -411 240 -891q0 -479 -242 -896q-238 -417 -659 -657q-411 -240 -891 -240q-479 0 -896 242q-415 238 -657 657
q-240 415 -240 894q0 476 242 895q238 415 657 657q415 240 894 240z" />
    <glyph glyph-name="Rcaron" unicode="&#x158;" horiz-adv-x="3582" 
d="M3105 66q0 -47 -31.5 -74t-70.5 -27q-46 0 -74.5 31.5t-28.5 70.5q0 46 31 74.5t72 28.5q42 0 72 -28.5t30 -75.5zM2489 -342q39 0 72.5 -28.5t33.5 -73.5q0 -41 -28.5 -72.5t-77.5 -31.5q-37 0 -69.5 28.5t-32.5 73.5q0 47 30 75.5t72 28.5zM1790 -529q45 0 75 -29
t30 -75q0 -45 -30 -73.5t-75 -28.5q-43 0 -73 28.5t-30 73.5q0 46 28.5 75t74.5 29zM1195 -446q0 -47 -32.5 -74.5t-72.5 -27.5q-47 0 -75 31.5t-28 72.5q0 45 33.5 73.5t72.5 28.5q42 0 72 -28.5t30 -75.5zM580 170q37 0 69.5 -28t32.5 -75q0 -39 -29 -70.5t-77 -31.5
q-38 0 -70 29t-32 75q0 42 29.5 71.5t76.5 29.5zM390 871q45 0 75 -29t30 -75q0 -45 -30 -73.5t-75 -28.5q-44 0 -72.5 28.5t-28.5 73.5q0 46 28.5 75t72.5 29zM682 1467q0 -47 -32.5 -74.5t-69.5 -27.5q-46 0 -76 31.5t-30 70.5q0 46 32 75t70 29q25 0 54 -13
q52 -34 52 -91zM1093 2083q41 0 71.5 -28t30.5 -75q0 -39 -29 -70.5t-76 -31.5q-38 0 -70.5 28.5t-32.5 73.5q0 42 29.5 72.5t76.5 30.5zM2387 1980q0 46 32.5 74.5t69.5 28.5q46 0 76 -30.5t30 -72.5q0 -45 -32.5 -73.5t-73.5 -28.5q-42 0 -72 28.5t-30 73.5zM3001 1365
q-41 0 -71 28.5t-30 73.5q0 41 28 72.5t75 31.5q39 0 70.5 -27t31.5 -75q0 -47 -29.5 -75.5t-74.5 -28.5zM3189 871q46 0 75 -29t29 -75q0 -45 -29 -73.5t-75 -28.5q-42 0 -72 28.5t-30 73.5q0 46 30 75t72 29zM1790 665q45 0 75 28.5t30 73.5q0 46 -30 75t-75 29
q-46 0 -74.5 -29t-28.5 -75q0 -42 27.5 -72t75.5 -30zM1919 2245v-1236q72 -39 113 -114h693v-258h-693q-35 -65 -99 -104t-143 -39q-114 0 -194 80q-79 80 -79 193q0 80 39.5 143t104.5 99v1236h258zM1790 -850q436 0 808 216q187 109 335 255t256 333q221 380 221 813
q0 219 -55 420.5t-162 390.5q-109 190 -257 336t-338 255q-373 217 -808 217q-434 0 -811 -217q-375 -218 -591 -593q-216 -374 -216 -809q0 -440 218 -813q110 -187 258.5 -333t335.5 -255q372 -216 806 -216zM1790 2560q480 0 896 -240q416 -239 658 -660
q238 -417 238 -893q0 -484 -242 -898q-243 -416 -659 -654q-417 -239 -891 -239q-479 0 -895 240q-414 237 -656 656q-239 416 -239 895t237 890q237 416 656 661q414 242 897 242z" />
    <glyph glyph-name="rcaron" unicode="&#x159;" horiz-adv-x="3136" 
d="M2989 1759q-59 80 -140 168q-77 91 -164 182q-91 87 -182 164q-88 81 -168 140q-137 98 -207 123q-73 24 -112 24h-1736q-115 0 -196 -84q-84 -80 -84 -196v-441v-2583q0 -115 84 -196q81 -84 196 -84h263h2313q116 0 196 84q84 81 84 196v2184q0 39 -24 112
q-25 70 -123 207v0v0v0zM2524 1948q80 -81 143 -154q67 -70 112 -130h-539v539q60 -45 130 -112q73 -63 154 -143v0v0v0zM2912 -744q0 -24 -14 -42q-17 -14 -42 -14h-1176h-1400q-24 0 -42 14q-14 18 -14 42v1292v1732q0 25 14 42q18 14 42 14h273h595h595h273v-784
q0 -45 35 -77q32 -35 77 -35h784v-2184v0zM672 2336h448v-224h-448v224v0zM1120 2112h448v-224h-448v224v0zM672 1888h448v-224h-448v224v0zM1120 1664h448v-224h-448v224v0zM672 1440h448v-224h-448v224v0zM1120 1216h448v-224h-448v224v0zM672 992h448v-224h-448v224v0z
M1120 768h448v-224h-448v224v0zM672 -408q0 -70 49 -119t119 -49h560q70 0 119 49t49 119v560q0 70 -49 119t-119 49h-280v224h-448v-952v0zM1344 -128v-224h-448v224h448v0z" />
    <glyph glyph-name="Sacute" unicode="&#x15a;" horiz-adv-x="3136" 
d="M2989 1758q-60 81 -140 168q-77 91 -165 182q-91 88 -182 165q-87 80 -168 140q-136 98 -206 122q-74 25 -112 25h-1736q-116 0 -196 -84q-84 -81 -84 -196v-441v-2583q0 -116 84 -196q80 -84 196 -84h262h2314q115 0 196 84q84 80 84 196v2184q0 38 -25 112
q-24 70 -122 206v0zM2523 1947q81 -80 144 -154q66 -70 112 -129h-539v539q59 -46 129 -112q74 -63 154 -144v0zM2912 -744q0 -25 -14 -42q-18 -14 -42 -14h-1176h-1400q-25 0 -42 14q-14 17 -14 42v1291v1733q0 24 14 42q17 14 42 14h273h595h595h273v-784q0 -46 35 -77
q31 -35 77 -35h784v-2184v0zM2352 -352h-466h-1102q-46 0 -77 35q-35 31 -35 77q0 45 35 77q31 35 77 35h1568q45 0 77 -35q35 -32 35 -77q0 -46 -35 -77q-32 -35 -77 -35v0zM2352 96h-1568q-46 0 -77 35q-35 31 -35 77q0 45 35 77q31 35 77 35h1568q45 0 77 -35
q35 -32 35 -77q0 -46 -35 -77q-32 -35 -77 -35v0zM2352 544h-1568q-46 0 -77 35q-35 31 -35 77q0 45 35 77q31 35 77 35h1568q45 0 77 -35q35 -32 35 -77q0 -46 -35 -77q-32 -35 -77 -35v0z" />
    <glyph glyph-name="sacute" unicode="&#x15b;" horiz-adv-x="3584" 
d="M1534 324q-36 0 -68 14q-36 14 -65 39q-125 129 -190 291q-64 161 -64 329q0 169 64 330q65 161 190 290q230 230 688 689q126 121 287 189q158 65 334 65q175 0 333 -65q161 -68 287 -189q125 -129 189 -291q65 -161 65 -329q0 -169 -65 -330q-64 -162 -189 -291
q-104 -103 -316 -311q-54 -58 -132 -58q-79 0 -133 58q-54 53 -54 132q0 76 54 129q104 104 315 316q147 147 147 355q0 207 -147 354q-71 72 -161 111q-93 36 -193 36q-101 0 -194 -36q-90 -39 -161 -111q-230 -229 -688 -688q-147 -147 -147 -355q0 -207 147 -354
q53 -54 53 -129q0 -79 -53 -137q-29 -25 -65 -39q-32 -14 -68 -14v0zM874 -1024q-175 0 -333 65q-161 68 -287 189q-125 129 -189 291q-65 161 -65 329q0 169 65 330q64 162 189 291q104 103 316 311q54 58 132 58q79 0 133 -58q54 -53 54 -132q0 -76 -54 -129
q-104 -104 -315 -316q-147 -147 -147 -355q0 -207 147 -354q71 -72 161 -111q93 -36 193 -36q101 0 194 36q90 39 161 111q230 229 688 688q147 147 147 355q0 207 -147 354q-53 54 -53 129q0 79 53 137q54 53 129 53q79 0 137 -53q125 -129 190 -291q64 -161 64 -329
q0 -169 -64 -330q-65 -161 -190 -290q-230 -230 -688 -689q-126 -121 -287 -189q-158 -65 -334 -65v0z" />
    <glyph glyph-name="Scircumflex" unicode="&#x15c;" horiz-adv-x="2048" 
d="M1728 512q-68 0 -126 -26q-60 -26 -104 -72q-288 144 -862 432l4 24v26v26l-4 24q288 144 862 432q44 -46 104 -72q58 -26 126 -26q132 0 226 94t94 226t-94 226t-226 94t-226 -94t-94 -226v-26l4 -24q-288 -144 -862 -432q-44 46 -104 72q-58 26 -126 26
q-132 0 -226 -94t-94 -226t94 -226t226 -94q68 0 126 26q60 26 104 72q288 -144 862 -432l-4 -24v-26q0 -132 94 -226t226 -94t226 94t94 226t-94 226t-226 94v0z" />
    <glyph glyph-name="scircumflex" unicode="&#x15d;" horiz-adv-x="3585" 
d="M2290 1265q308 -315 308 -756t-308 -749l-476 -476q-308 -308 -749 -308t-752.5 311.5t-311.5 752.5t308 749l266 266q49 49 115.5 21t73.5 -98q7 -189 70 -371q21 -63 -28 -112l-91 -98q-147 -147 -150.5 -353.5t143.5 -353.5q147 -154 357 -154t357 147l469 469
q147 147 147 357t-147 357q-35 35 -70 63q-49 28 -49 84q-7 126 77 210l154 147q63 70 140 14t147 -119zM3273.5 2248.5q311.5 -311.5 311.5 -752.5t-308 -749l-266 -266q-49 -49 -115.5 -21t-73.5 98q-7 189 -70 371q-21 63 28 112l91 98q147 147 150.5 353.5t-143.5 353.5
q-147 154 -357 154t-357 -147l-469 -469q-147 -147 -147 -357t147 -357q35 -35 70 -63q49 -28 49 -84q7 -126 -77 -210l-154 -147q-63 -70 -140 -14t-147 119q-308 315 -308 756t308 749l476 476q308 308 749 308t752.5 -311.5z" />
    <glyph glyph-name="Scedilla" unicode="&#x15e;" horiz-adv-x="4497" 
d="M3322 2560q231 5 445.5 -81.5t376.5 -236.5t257.5 -346.5t91.5 -409.5q-5 -160 -35 -308t-94 -285q-122 -271 -369 -498q-124 -113 -309.5 -247.5t-436.5 -289.5q-349 -220 -574.5 -419t-344.5 -403q-36 -60 -85 -60q-47 0 -87 67q-117 202 -341.5 399.5t-577.5 417.5
q-493 306 -742 535q-248 229 -368 497.5t-127 593.5q-2 139 39 274.5t117.5 255.5t183 221t238 173.5t280 112.5t308.5 37q355 -4 644 -179q295 -176 435 -476q138 300 431 476q149 91 309 133t335 46z" />
    <glyph glyph-name="Utilde" unicode="&#x168;" horiz-adv-x="2945" 
d="M1474 -1024q-101 0 -190 33.5t-160 92.5t-118.5 138.5t-64.5 172.5h1065q-19 -93 -67.5 -172.5t-119.5 -138.5t-159.5 -92.5t-185.5 -33.5zM2811 -27q63 -71 98.5 -137t35.5 -119q0 -46 -31.5 -74t-102.5 -28h-2678q-71 0 -102 28t-31 74q0 51 34.5 118t98.5 138
q61 64 119 150q49 73 102 176.5t90 237.5q30 107 46 194.5t24 153.5q7 74 9 136q15 301 68 528.5t149.5 385.5t238.5 247t334 115q-8 20 -13.5 41.5t-5.5 42.5q0 76 51.5 127.5t128.5 51.5q35 0 67.5 -14t56 -38.5t37.5 -57t14 -69.5q0 -45 -19 -84q193 -26 335 -115
t239 -247t149.5 -385.5t66.5 -528.5q2 -62 12 -136q9 -66 25 -153.5t46 -194.5q37 -134 89.5 -237.5t100.5 -176.5q58 -86 118 -150z" />
    <glyph glyph-name="utilde" unicode="&#x169;" horiz-adv-x="2690" 
d="M2690 2560v-3584h-2690v3584h2690zM2569 2442h-2450v-3347h2450v3347zM477 -596v119h1734v-119h-1734zM477 -69v119h1734v-119h-1734zM477 458v122h1734v-122h-1734zM477 988v119h1734v-119h-1734zM477 1515v531h1734v-531h-1734z" />
    <glyph glyph-name="Umacron" unicode="&#x16a;" horiz-adv-x="3584" 
d="M299 -1024l1155 1155q165 -119 368 -191q199 -68 418 -68q280 0 525 105t427 287t287 427t105 525t-105 523q-105 245 -287 427q-182 184 -427 289t-525 105t-523 -107q-245 -105 -427 -287q-184 -182 -289 -427q-105 -243 -105 -523q0 -219 70 -422q70 -196 189 -364
l-1155 -1155zM2240 171q-219 0 -408 81q-192 84 -332 224q-297 298 -305 740q0 217 84 406q79 191 224 331q140 145 331 224q189 84 406 84t408 -84q189 -84 334 -226q140 -140 222 -331q81 -189 81 -404q0 -217 -81 -408q-84 -189 -224 -334q-143 -140 -332 -222
q-191 -81 -408 -81zM2621 568q173 100 273 273q101 174 101 372q0 99 -25 191q-18 66 -49 130l107 47q78 -174 78 -366q0 -226 -115 -427q-114 -197 -312 -313q-198 -115 -430 -115q1 47 12 110q214 -2 360 98zM3028 1581v0l-107 -47v0z" />
    <glyph glyph-name="umacron" unicode="&#x16b;" horiz-adv-x="3584" 
d="M1120 2336h-896v-896h896v896v0zM1344 2560v0v-1344h-1344v942v402h1344v0zM448 2112h448v-448h-448v448zM3360 2336h-896v-896h896v896v0zM3584 2560v0v-1344h-1344v1344h1344v0zM2688 2112h448v-448h-448v448zM1120 96h-896v-896h224h672v896v0zM1344 320v0v-1344
h-1344v942v402h1344v0zM448 -128h448v-448h-448v448zM1568 2560h224v-224h-224v224zM1792 2336h224v-224h-224v224zM1568 2112h224v-224h-224v224zM1792 1888h224v-224h-224v224zM1568 1664h224v-224h-224v224zM1792 1440h224v-224h-224v224zM1568 1216h224v-224h-224v224z
M1568 768h224v-224h-224v224zM1792 544h224v-224h-224v224zM1568 320h224v-224h-224v224zM1792 96h224v-224h-224v224zM1568 -128h224v-224h-224v224zM1792 -352h224v-224h-224v224zM1568 -576h224v-224h-168h-56v224zM1792 -800h168h56v-224h-224v224zM3360 768h224v-224
h-224v224zM224 768h224v-224h-224v224zM448 992h224v-224h-224v224zM0 992h224v-224h-224v158v66zM896 992h224v-224h-224v224zM1120 768h224v-224h-224v224zM1344 992h224v-224h-224v224zM2016 768h224v-224h-224v224zM2240 992h224v-224h-224v224zM2464 768h224v-224h-224
v224zM2688 992h224v-224h-224v224zM2912 768h224v-224h-224v224zM3136 992h224v-224h-224v224zM3360 320h224v-224h-224v224zM2016 320h224v-224h-224v224zM2240 544h224v-224h-224v224zM2464 320h224v-224h-224v224zM2912 320h224v-224h-224v224zM3136 544h224v-224h-224
v224zM3360 -128h224v-224h-224v224zM2016 -128h224v-224h-224v224zM2240 96h224v-224h-224v224zM2688 96h224v-224h-224v224zM2912 -128h224v-224h-224v224zM3136 96h224v-224h-224v224zM3360 -576h224v-224h-168h-56v224zM2240 -352h224v-224h-224v224zM2464 -576h224v-224
h-168h-56v224zM2688 -352h224v-224h-224v224zM2912 -576h224v-224h-168h-56v224zM2240 -800h168h56v-224h-224v224zM2688 -800h168h56v-224h-224v224zM3136 -800h168h56v-224h-224v224z" />
    <glyph glyph-name="Ubreve" unicode="&#x16c;" horiz-adv-x="2227" 
d="M68 161q-105 104 0 209l946 946q105 105 211 0l945 -946q106 -105 0 -209l-105 -106q-104 -105 -210 0l-630 630q-106 106 -211 0l-631 -630q-105 -105 -211 0l-104 106v0z" />
    <glyph glyph-name="ubreve" unicode="&#x16d;" horiz-adv-x="2227" 
d="M2173 1210q106 -104 0 -210l-947 -947q-105 -105 -211 0l-947 947q-105 106 0 210l106 106q104 105 210 0l631 -631q106 -106 211 0l631 631q106 105 212 0l104 -106v0z" />
    <glyph glyph-name="Uring" unicode="&#x16e;" horiz-adv-x="2048" 
d="M848 896h-800q-20 0 -34 14t-14 34v800q0 48 48 48h192q48 0 48 -48v-312q140 156 334 242t410 86q412 -4 700 -294t286 -700t-292 -700t-702 -290q-380 0 -664 256q-40 36 -4 72l136 136q32 32 68 0q200 -176 464 -176q292 0 498 206t206 498t-206 498t-498 206
q-172 0 -320 -78t-248 -210h392q20 0 34 -14t14 -34v-192q0 -20 -14 -34t-34 -14z" />
    <glyph glyph-name="uring" unicode="&#x16f;" horiz-adv-x="3500" 
d="M1095 -784h-877v877h877v-877zM2191 312h-877v877h877v-877zM1095 312h-877v877h877v-877zM1095 1408h-877v877h877v-877zM2185 1408h-877v877h877v-877zM3285 1408h-877v877h877v-877zM3287 312h-877v877h877v-877zM1095 312h-877v877h877v-877zM2191 312h-877v877h877
v-877zM3287 312h-877v877h877v-877zM1095 -784h-877v877h877v-877zM2185 -792h-877v877h877v-877zM3285 -792h-877v877h877v-877z" />
    <glyph glyph-name="Uhungarumlaut" unicode="&#x170;" horiz-adv-x="2695" 
d="M231 -1024q-47 0 -89 20t-73.5 53.5t-50 80t-18.5 100.5v3076q0 54 18.5 100.5t50 80.5t73.5 53.5t89 19.5h1332q35 0 58 -27t49 -52l998 -980q10 -21 18 -33.5t8 -40.5v-2197q0 -54 -18.5 -100.5t-51 -80t-73.5 -53.5t-85 -20h-2235zM2463 -796q3 5 5 8.5t2 17.5v1991
h-1014q-49 0 -80.5 32t-31.5 80v999h-1113q-3 -3 -5 -6.5t-2 -19.5v-3076q0 -14 2 -17.5t5 -8.5h2232zM1568 1445h807l-807 795v-795zM2031 871l30 -52q-293 -207 -543 -524t-361 -621l-44 -29q-57 -37 -98 -74q-7 36 -39 116l-23 57q-75 185 -126.5 258.5t-111.5 79.5
q81 74 141 74q83 0 182 -223l36 -80q177 317 427.5 584t529.5 434z" />
    <glyph glyph-name="uhungarumlaut" unicode="&#x171;" horiz-adv-x="2695" 
d="M231 -1024q-47 0 -89 20t-73.5 53.5t-50 80t-18.5 100.5v3076q0 54 18.5 100.5t50 80.5t73.5 53.5t89 19.5h1332q35 0 58 -27t49 -52l998 -980q10 -21 18 -33.5t8 -40.5v-2197q0 -54 -18.5 -100.5t-51 -80t-73.5 -53.5t-85 -20h-2235zM2463 -796q3 5 5 8.5t2 17.5v1991
h-1014q-49 0 -80.5 32t-31.5 80v999h-1113q-3 -3 -5 -6.5t-2 -19.5v-3076q0 -14 2 -17.5t5 -8.5h2232zM1568 1445h807l-807 795v-795zM788 274q0 243 171 412t413 169q241 0 411 -170t170 -411q0 -240 -172 -412t-412 -172q-243 0 -412 171t-169 413z" />
    <glyph glyph-name="Uogonek" unicode="&#x172;" horiz-adv-x="2695" 
d="M231 -1024q-47 0 -89 20t-73.5 53.5t-50 80t-18.5 100.5v3076q0 54 18.5 100.5t50 80.5t73.5 53.5t89 19.5h1332q35 0 58 -27t49 -52l998 -980q10 -21 18 -33.5t8 -40.5v-2197q0 -54 -18.5 -100.5t-51 -80t-73.5 -53.5t-85 -20h-2235zM2463 -796q3 5 5 8.5t2 17.5v1991
h-1014q-49 0 -80.5 32t-31.5 80v999h-1113q-3 -3 -5 -6.5t-2 -19.5v-3076q0 -14 2 -17.5t5 -8.5h2232zM1568 1445h807l-807 795v-795z" />
    <glyph glyph-name="uogonek" unicode="&#x173;" horiz-adv-x="0" 
d="M-2695 284q0 243 171 412t413 169q241 0 411 -170t170 -411q0 -240 -172 -412t-412 -172q-243 0 -412 171t-169 413z" />
    <glyph glyph-name="Wcircumflex" unicode="&#x174;" horiz-adv-x="3500" 
d="M1748 -578q359 0 667 177q310 180 489 491q181 312 181 668q0 179 -45 344t-134 321q-176 308 -491 488q-314 181 -667 181q-359 0 -669 -181q-312 -182 -489 -491q-88 -156 -133 -319.5t-45 -342.5q0 -361 178 -668q181 -309 491 -491q309 -177 667 -177zM1746 2298
q419 0 777 -212q356 -209 557 -563q205 -360 205 -761q0 -406 -206 -767q-205 -355 -561 -563q-354 -206 -772 -206q-415 0 -767 205q-348 201 -559 557q-108 177 -159 370t-51 404q0 421 206 769q210 352 561 560q350 207 769 207zM1787 -112q-31 0 -53 24q-24 22 -24 53
v1355q-43 -44 -176 -178q-24 -22 -55 -22t-55 22q-22 24 -22 55t22 55q103 104 308 308q17 15 41 20q7 2 16 2q15 0 27 -5q22 -9 34 -29q14 -19 14 -43v-1540q0 -31 -24 -53q-22 -24 -53 -24v0z" />
    <glyph glyph-name="wcircumflex" unicode="&#x175;" horiz-adv-x="3500" 
d="M1748 -578q359 0 667 177q310 180 489 491q181 312 181 668q0 179 -45 344t-134 321q-176 308 -491 488q-314 181 -667 181q-359 0 -669 -181q-312 -182 -489 -491q-88 -156 -133 -319.5t-45 -342.5q0 -361 178 -668q181 -309 491 -491q309 -177 667 -177zM1746 2298
q419 0 777 -212q356 -209 557 -563q205 -360 205 -761q0 -406 -206 -767q-205 -355 -561 -563q-354 -206 -772 -206q-415 0 -767 205q-348 201 -559 557q-108 177 -159 370t-51 404q0 421 206 769q210 352 561 560q350 207 769 207zM2293 -72h-322h-763q-31 0 -53 24
q-24 22 -24 53q0 177 58 313q58 135 174 232q100 82 221 131q121 48 232 87q191 65 295 128q104 61 104 194q0 116 -17 184q-17 70 -58 109q-46 48 -140 70q-97 24 -249 24q-153 0 -250 -24q-94 -22 -140 -70q-41 -39 -58 -109q-17 -68 -17 -184q0 -32 -24 -53
q-22 -25 -54 -25q-31 0 -53 25q-24 21 -24 53q0 111 19 218q22 106 100 186q72 70 193 104t308 34q186 0 307 -34t194 -104q77 -80 99 -186q19 -107 19 -218q0 -102 -43 -182q-41 -80 -126 -138q-70 -48 -155 -82t-179 -65q-109 -39 -216 -80q-106 -44 -188 -112
q-78 -65 -119 -150q-44 -87 -56 -198h1005q31 0 53 -24q24 -22 24 -54q0 -31 -24 -53q-22 -24 -53 -24v0z" />
    <glyph glyph-name="Ycircumflex" unicode="&#x176;" horiz-adv-x="3500" 
d="M1748 -578q359 0 667 177q310 180 489 491q181 312 181 668q0 179 -45 344t-134 321q-176 308 -491 488q-314 181 -667 181q-359 0 -669 -181q-312 -182 -489 -491q-88 -156 -133 -319.5t-45 -342.5q0 -361 178 -668q181 -309 491 -491q309 -177 667 -177zM1746 2298
q419 0 777 -212q356 -209 557 -563q205 -360 205 -761q0 -406 -206 -767q-205 -355 -561 -563q-354 -206 -772 -206q-415 0 -767 205q-348 201 -559 557q-108 177 -159 370t-51 404q0 421 206 769q210 352 561 560q350 207 769 207zM2593 364q-145 95 -578 384
q144 95 578 383q42 31 49 80q4 15 4 27q0 34 -19 64q-30 42 -80 50q-49 11 -91 -15q-179 -122 -540 -361v501q0 50 -38 84q-34 38 -83 38q-50 0 -84 -38q-38 -34 -38 -84v-501q-137 91 -540 361q-42 26 -91 15q-50 -8 -80 -50q-19 -30 -19 -64q0 -12 4 -27q7 -49 49 -80
q194 -129 578 -383q-144 -96 -578 -384q-42 -31 -49 -80q-12 -50 15 -91q19 -27 46 -39q26 -15 57 -15q19 0 38 8q15 4 30 11q179 122 540 361v-501q0 -50 38 -84q34 -38 84 -38q49 0 83 38q38 34 38 84v501q137 -91 540 -361q15 -7 30 -11q19 -8 38 -8q31 0 57 15
q27 12 46 39q27 41 15 91q-7 49 -49 80v0z" />
    <glyph glyph-name="ycircumflex" unicode="&#x177;" horiz-adv-x="2048" 
d="M1312 768q0 -120 -84 -204t-204 -84t-204 84t-84 204t84 204t204 84t204 -84t84 -204zM1728 1056q120 0 204 -84t84 -204t-84 -204t-204 -84t-204 84t-84 204t84 204t204 84zM320 1056q120 0 204 -84t84 -204t-84 -204t-204 -84t-204 84t-84 204t84 204t204 84z" />
    <glyph glyph-name="Ydieresis" unicode="&#x178;" horiz-adv-x="768" 
d="M384 1056q120 0 204 -84t84 -204t-84 -204t-204 -84t-204 84t-84 204t84 204t204 84zM96 1472q0 120 84 204t204 84t204 -84t84 -204t-84 -204t-204 -84t-204 84t-84 204zM96 64q0 120 84 204t204 84t204 -84t84 -204t-84 -204t-204 -84t-204 84t-84 204z" />
    <glyph glyph-name="Zacute" unicode="&#x179;" horiz-adv-x="2048" 
d="M696 36l-668 664q-28 28 -28 72t28 72l148 144q28 32 70 32t74 -32l448 -448l960 960q32 32 74 32t70 -32l148 -144q28 -28 28 -72t-28 -72l-1180 -1176q-28 -32 -72 -32t-72 32z" />
    <glyph glyph-name="zacute" unicode="&#x17a;" horiz-adv-x="1408" 
d="M972 768l400 -400q36 -36 36 -88t-36 -92l-88 -88q-40 -36 -92 -36t-88 36l-400 400l-400 -400q-36 -36 -88 -36t-92 36l-88 88q-36 40 -36 92t36 88l400 400l-400 400q-36 36 -36 88t36 92l88 88q40 36 92 36t88 -36l400 -400l400 400q36 36 88 36t92 -36l88 -88
q36 -40 36 -92t-36 -88z" />
    <glyph glyph-name="Zdotaccent" unicode="&#x17b;" horiz-adv-x="2560" 
d="M2520 416l-404 -400q-28 -28 -68 -28t-68 28l-404 400q-28 28 -28 68t28 68l44 44q28 28 70 28t70 -28l160 -172v728h-752q-36 0 -68 28l-64 64q-44 44 -20 104t88 60h976q40 0 68 -28t28 -68v-888l160 172q28 28 70 28t70 -28l44 -44q28 -28 28 -68t-28 -68zM1460 356
l64 -64q44 -44 20 -104t-88 -60h-976q-40 0 -68 28t-28 68v888l-160 -172q-28 -28 -70 -28t-70 28l-44 44q-28 28 -28 68t28 68l404 400q28 28 68 28t68 -28l404 -400q28 -28 28 -68t-28 -68l-44 -44q-28 -28 -70 -28t-70 28l-160 172v-728h752q36 0 68 -28z" />
    <glyph glyph-name="zdotaccent" unicode="&#x17c;" horiz-adv-x="2048" 
d="M1728 512q28 0 46 -18t18 -46v-512q0 -80 -56 -136t-136 -56h-1408q-80 0 -136 56t-56 136v1408q0 80 56 136t136 56h640q28 0 46 -18t18 -46v-128q0 -28 -18 -46t-46 -18h-576v-1280h1280v448q0 28 18 46t46 18h128zM1952 1792q40 0 68 -28t28 -68v-512q0 -64 -60 -88
t-104 20l-144 144l-972 -976q-28 -28 -68 -28t-68 28l-92 92q-28 28 -28 68t28 68l976 972l-144 144q-44 44 -20 104t88 60h512z" />
    <glyph glyph-name="Zcaron" unicode="&#x17d;" horiz-adv-x="2048" 
d="M1988 700l-672 -672q-44 -44 -104 -20t-60 88v384h-544q-40 0 -68 28t-28 68v384q0 40 28 68t68 28h544v384q0 64 60 88t104 -20l672 -672q28 -28 28 -68t-28 -68zM768 48q0 -48 -48 -48h-336q-160 0 -272 112t-112 272v768q0 160 112 272t272 112h336q48 0 48 -48v-160
q0 -48 -48 -48h-336q-52 0 -90 -38t-38 -90v-768q0 -52 38 -90t90 -38h336q48 0 48 -48v-160z" />
    <glyph glyph-name="zcaron" unicode="&#x17e;" horiz-adv-x="2048" 
d="M1664 0h-336q-48 0 -48 48v160q0 48 48 48h336q52 0 90 38t38 90v768q0 52 -38 90t-90 38h-336q-48 0 -48 48v160q0 48 48 48h336q160 0 272 -112t112 -272v-768q0 -160 -112 -272t-272 -112zM1476 804q28 -28 28 -68t-28 -68l-672 -672q-44 -44 -104 -20t-60 88v384
h-544q-40 0 -68 28t-28 68v384q0 40 28 68t68 28h544v384q0 64 60 88t104 -20z" />
    <glyph glyph-name="longs" unicode="&#x17f;" horiz-adv-x="2304" 
d="M2112 1664q80 0 136 -56t56 -136v-1408q0 -80 -56 -136t-136 -56h-1920q-80 0 -136 56t-56 136v1408q0 80 56 136t136 56h1920zM704 1280q-104 0 -180 -76t-76 -180t76 -180t180 -76t180 76t76 180t-76 180t-180 76zM1152 332v76q0 96 -78 164t-190 68h-20
q-76 -32 -160 -32t-160 32h-20q-112 0 -190 -68t-78 -164v-76q0 -32 26 -54t62 -22h720q36 0 62 22t26 54zM2048 544v64q0 32 -32 32h-576q-32 0 -32 -32v-64q0 -32 32 -32h576q32 0 32 32zM2048 800v64q0 32 -32 32h-576q-32 0 -32 -32v-64q0 -32 32 -32h576q32 0 32 32z
M2048 1056v64q0 32 -32 32h-576q-32 0 -32 -32v-64q0 -32 32 -32h576q32 0 32 32z" />
    <glyph glyph-name="uni0180" unicode="&#x180;" horiz-adv-x="1536" 
d="M728 768q-8 28 -12 74t-4 80t8 34q24 0 24 -80t-16 -108zM720 580q56 -104 140 -164q-48 -8 -252 -88q52 96 112 252zM344 80q16 44 140 160q-24 -40 -48 -70t-40 -48t-28 -28t-18 -12zM992 1152h544v-1312q0 -40 -28 -68t-68 -28h-1344q-40 0 -68 28t-28 68v1856
q0 40 28 68t68 28h800v-544q0 -40 28 -68t68 -28zM960 464q-116 72 -172 216q48 188 28 256q-12 56 -54 78t-86 6t-52 -56q-24 -88 32 -308q-92 -216 -164 -344q-116 -56 -192 -132t-28 -140q32 -40 88 -40q100 0 244 248q248 80 316 92q144 -76 256 -76q80 0 100 68
t-20 104q-64 60 -296 28zM1508 1372q28 -28 28 -68v-24h-512v512h24q40 0 68 -28zM1212 352q-24 -28 -172 36q172 4 172 -36z" />
    <glyph glyph-name="uni0181" unicode="&#x181;" horiz-adv-x="1536" 
d="M896 1248q0 -40 28 -68t68 -28h544v-1312q0 -40 -28 -68t-68 -28h-1344q-40 0 -68 28t-28 68v1856q0 40 28 68t68 28h800v-544zM1124 768q-40 0 -44 -40q-88 -404 -88 -516q-8 60 -120 520q-8 36 -44 36h-116q-40 0 -48 -36q-112 -460 -120 -492q-4 108 -80 488
q-8 40 -48 40h-100q-24 0 -38 -18t-6 -42l148 -672q8 -36 48 -36h148q36 0 48 36q96 396 100 444h4q16 -92 100 -444q12 -36 48 -36h152q40 0 48 36l152 672q4 16 -2 30t-18 22t-28 8h-96zM1536 1304v-24h-512v512h24q40 0 68 -28l392 -392q28 -28 28 -68z" />
    <glyph glyph-name="uni0182" unicode="&#x182;" horiz-adv-x="1536" 
d="M896 1248q0 -40 28 -68t68 -28h544v-1312q0 -40 -28 -68t-68 -28h-1344q-40 0 -68 28t-28 68v1856q0 40 28 68t68 28h800v-544zM1136 824q16 24 2 48t-42 24h-140q-28 0 -40 -24l-148 -276q0 4 -148 276q-12 24 -40 24h-140q-28 0 -42 -26t2 -50l240 -372l-240 -376
q-16 -24 -2 -48t42 -24h140q28 0 40 24q136 244 148 276q68 -132 144 -276q16 -24 44 -24h140q28 0 42 24t-2 48l-240 376zM1536 1304v-24h-512v512h24q40 0 68 -28l392 -392q28 -28 28 -68z" />
    <glyph glyph-name="uni0183" unicode="&#x183;" horiz-adv-x="1536" 
d="M776 708q52 0 80 -34t28 -88t-30 -88t-82 -34h-108v244h112zM1508 1372q28 -28 28 -68v-24h-512v512h24q40 0 68 -28zM896 1248q0 -40 28 -68t68 -28h544v-1312q0 -40 -28 -68t-68 -28h-1344q-40 0 -68 28t-28 68v1856q0 40 28 68t68 28h800v-544zM1108 588
q0 132 -80 220t-212 88h-324q-8 0 -18 -4t-16 -10t-10 -16t-4 -18v-800q0 -20 14 -34t34 -14h124q20 0 34 14t14 34v228h44h64t70 4t78 16t70 34t62 56t40 84t16 118z" />
    <glyph glyph-name="uni0184" unicode="&#x184;" horiz-adv-x="1536" 
d="M1536 1304v-24h-512v512h24q40 0 68 -28l392 -392q28 -28 28 -68zM992 1152h544v-1312q0 -40 -28 -68t-68 -28h-1344q-40 0 -68 28t-28 68v1856q0 40 28 68t68 28h800v-544q0 -40 28 -68t68 -28zM450 1088q-78 0 -134 -56t-56 -136t56 -136t134 -56t136 56t58 136
t-58 136t-136 56zM1284 128v448l-160 160q-32 32 -68 0l-412 -416l-160 160q-32 32 -64 0l-160 -160v-192h1024z" />
    <glyph glyph-name="uni0185" unicode="&#x185;" horiz-adv-x="1536" 
d="M1508 1372q28 -28 28 -68v-24h-512v512h24q40 0 68 -28zM514 448q34 0 64 -14t48 -40t18 -54q0 -44 -38 -76t-92 -32t-92 32t-38 76q0 28 18 54t48 40t64 14zM896 1248q0 -40 28 -68t68 -28h544v-1312q0 -40 -28 -68t-68 -28h-1344q-40 0 -68 28t-28 68v1856q0 40 28 68
t68 28h416v-128h128v128h256v-544zM384 1664v-128h128v128h-128zM512 128q100 0 162 76t46 176l-72 348q-8 40 -48 40h-88v128h128v128h-128v128h128v128h-128v128h128v128h-128v-128h-128v-128h128v-128h-128v-128h128v-128h-128v-128l-76 -388q-20 -96 42 -174t162 -78z
" />
    <glyph glyph-name="uni0186" unicode="&#x186;" horiz-adv-x="1536" 
d="M896 1248q0 -40 28 -68t68 -28h544v-1312q0 -40 -28 -68t-68 -28h-1344q-40 0 -68 28t-28 68v1856q0 40 28 68t68 28h800v-544zM640 176v544q0 32 -30 44t-50 -12l-144 -144h-112q-48 0 -48 -48v-224q0 -48 48 -48h112l144 -144q20 -24 50 -12t30 44zM772 368
q-40 -44 -22 -96t66 -64t96 24q80 84 80 202t-80 198q-44 44 -96 28t-66 -64t22 -96q28 -28 28 -66t-28 -66zM1116 836q-40 40 -94 24t-66 -64t24 -96q108 -112 108 -268t-108 -268q-44 -44 -24 -96t68 -62t92 26q164 168 164 402t-164 402zM1536 1304v-24h-512v512h24
q40 0 68 -28l392 -392q28 -28 28 -68z" />
    <glyph glyph-name="uni0187" unicode="&#x187;" horiz-adv-x="1536" 
d="M1536 1304v-24h-512v512h24q40 0 68 -28l392 -392q28 -28 28 -68zM896 1248q0 -40 28 -68t68 -28h544v-1312q0 -40 -28 -68t-68 -28h-1344q-40 0 -68 28t-28 68v1856q0 40 28 68t68 28h800v-544zM1280 672q0 64 -60 88t-104 -20l-220 -220v152q0 40 -28 68t-68 28h-448
q-40 0 -68 -28t-28 -68v-448q0 -40 28 -68t68 -28h448q40 0 68 28t28 68v152l220 -220q44 -44 104 -20t60 88v448z" />
    <glyph glyph-name="uni0188" unicode="&#x188;" horiz-adv-x="1536" 
d="M1536 1304v-24h-512v512h24q40 0 68 -28l392 -392q28 -28 28 -68zM992 1152h544v-1312q0 -40 -28 -68t-68 -28h-1344q-40 0 -68 28t-28 68v1856q0 40 28 68t68 28h800v-544q0 -40 28 -68t68 -28zM492 188l80 84q4 8 4 16q0 12 -8 16l-160 144l160 144q8 4 8 16q0 8 -4 16
l-80 84q-4 4 -16 4q-8 0 -12 -4l-260 -244q-8 -8 -8 -16t8 -16l260 -244q4 -4 12 -4q12 0 16 4zM700 -12h4q16 0 20 16l248 844v8q0 16 -16 20l-112 32h-4q-16 0 -20 -16l-248 -844v-8q0 -16 16 -20zM1340 432q8 8 8 16t-8 16l-260 244q-4 4 -12 4q-12 0 -16 -4l-80 -84
q-4 -8 -4 -16q0 -12 8 -16l160 -144l-160 -144q-8 -4 -8 -16q0 -8 4 -16l80 -84q4 -4 16 -4q8 0 12 4z" />
    <glyph glyph-name="uni0189" unicode="&#x189;" horiz-adv-x="1536" 
d="M896 1248q0 -40 28 -68t68 -28h544v-1312q0 -40 -28 -68t-68 -28h-1344q-40 0 -68 28t-28 68v1856q0 40 28 68t68 28h800v-544zM1536 1304v-24h-512v512h24q40 0 68 -28l392 -392q28 -28 28 -68z" />
    <glyph glyph-name="uni018A" unicode="&#x18a;" horiz-adv-x="1536" 
d="M896 1248q0 -40 28 -68t68 -28h544v-1312q0 -40 -28 -68t-68 -28h-1344q-40 0 -68 28t-28 68v1856q0 40 28 68t68 28h800v-544zM1152 304v32q0 48 -48 48h-672q-48 0 -48 -48v-32q0 -48 48 -48h672q48 0 48 48zM1152 560v32q0 48 -48 48h-672q-48 0 -48 -48v-32
q0 -48 48 -48h672q48 0 48 48zM1152 848q0 48 -48 48h-672q-48 0 -48 -48v-32q0 -48 48 -48h672q48 0 48 48v32zM1536 1304v-24h-512v512h24q40 0 68 -28l392 -392q28 -28 28 -68z" />
    <glyph glyph-name="uni018B" unicode="&#x18b;" horiz-adv-x="2227" 
d="M1645 -105q-104 -106 -210 0l-945 945q-106 105 0 211l945 945q106 106 210 0l105 -105q106 -104 0 -210l-630 -630q-105 -106 0 -211l630 -630q106 -106 0 -211l-105 -104v0z" />
    <glyph glyph-name="uni018C" unicode="&#x18c;" horiz-adv-x="2227" 
d="M596 1997q104 106 210 0l946 -947q106 -105 0 -211l-946 -947q-106 -105 -210 0l-106 106q-106 104 0 210l631 631q106 106 0 211l-631 631q-106 106 0 212l106 104v0z" />
    <glyph glyph-name="uni018D" unicode="&#x18d;" horiz-adv-x="3999" 
d="M3999 -757v-91q0 -72 -52 -124t-124 -52h-3647q-72 0 -124 52t-52 124v91q0 71 52 123.5t124 52.5h3647q72 0 124 -52.5t52 -123.5zM3999 792v-91q0 -71 -52 -123.5t-124 -52.5h-3647q-72 0 -124 52.5t-52 123.5v91q0 72 52 124t124 52h3647q72 0 124 -52t52 -124z
M3999 2385v-92q0 -71 -52 -123t-124 -52h-3647q-72 0 -124 52t-52 123v92q0 71 52 123t124 52h3647q72 0 124 -52t52 -123z" />
    <glyph glyph-name="uni018E" unicode="&#x18e;" horiz-adv-x="2048" 
d="M560 1648l68 -64q12 -16 12 -34t-12 -34l-292 -288l-60 -64q-16 -12 -36 -12t-36 12l-188 192q-16 12 -16 32t16 36l60 60q16 16 36 16t32 -16l92 -88l256 252q12 16 32 16t36 -16zM560 1012l68 -68q12 -12 12 -32t-16 -36l-288 -288l-60 -60q-16 -16 -36 -16t-36 16
l-188 188q-16 16 -16 34t16 34l60 64q16 12 36 12t32 -12l92 -88l256 252q12 16 32 16t36 -16zM256 320q80 0 136 -56t56 -136t-56 -136t-136 -56t-138 56t-58 136t58 136t138 56zM1984 256q28 0 46 -18t18 -46v-128q0 -28 -18 -46t-46 -18h-1152q-28 0 -46 18t-18 46v128
q0 28 18 46t46 18h1152zM1984 1536q28 0 46 -18t18 -46v-128q0 -28 -18 -46t-46 -18h-1152q-28 0 -46 18t-18 46v128q0 28 18 46t46 18h1152zM1984 896q28 0 46 -18t18 -46v-128q0 -28 -18 -46t-46 -18h-1152q-28 0 -46 18t-18 46v128q0 28 18 46t46 18h1152z" />
    <glyph glyph-name="uni018F" unicode="&#x18f;" horiz-adv-x="1536" 
d="M1152 768v-256h-768v256h768zM1508 1372q28 -28 28 -68v-24h-512v512h24q40 0 68 -28zM896 1248q0 -40 28 -68t68 -28h544v-1312q0 -40 -28 -68t-68 -28h-1344q-40 0 -68 28t-28 68v1856q0 40 28 68t68 28h800v-544zM256 1504v-64q0 -32 32 -32h320q32 0 32 32v64
q0 32 -32 32h-320q-32 0 -32 -32zM256 1248v-64q0 -32 32 -32h320q32 0 32 32v64q0 32 -32 32h-320q-32 0 -32 -32zM1280 32v64q0 32 -32 32h-320q-32 0 -32 -32v-64q0 -32 32 -32h320q32 0 32 32zM1280 832q0 28 -18 46t-46 18h-896q-28 0 -46 -18t-18 -46v-384
q0 -28 18 -46t46 -18h896q28 0 46 18t18 46v384z" />
    <glyph glyph-name="uni0190" unicode="&#x190;" horiz-adv-x="1536" 
d="M1508 1372q28 -28 28 -68v-24h-512v512h24q40 0 68 -28zM896 1248q0 -40 28 -68t68 -28h544v-1312q0 -40 -28 -68t-68 -28h-1344q-40 0 -68 28t-28 68v1856q0 40 28 68t68 28h800v-544zM256 1504v-64q0 -32 32 -32h320q32 0 32 32v64q0 32 -32 32h-320q-32 0 -32 -32z
M256 1184q0 -32 32 -32h320q32 0 32 32v64q0 32 -32 32h-320q-32 0 -32 -32v-64zM832 128q72 4 122 56t50 124q0 40 -16 76t-46 62t-66 38l-180 52q-36 12 -36 52q0 20 14 36t34 16h112q28 0 52 -16q24 -12 40 4l48 44q28 28 -4 48q-56 44 -124 48v96q0 32 -32 32h-64
q-32 0 -32 -32v-96q-72 -4 -122 -56t-50 -124q0 -60 36 -108t92 -68l180 -52q36 -12 36 -52q0 -20 -14 -36t-34 -16h-112q-28 0 -52 16q-24 12 -40 -4l-48 -44q-28 -28 4 -48q56 -44 124 -48v-96q0 -32 32 -32h64q32 0 32 32v96z" />
    <glyph glyph-name="uni0191" unicode="&#x191;" horiz-adv-x="1536" 
d="M896 1248q0 -40 28 -68t68 -28h544v-1312q0 -40 -28 -68t-68 -28h-1344q-40 0 -68 28t-28 68v1856q0 40 28 68t68 28h800v-544zM1200 404q32 28 16 68t-60 40h-260v320q0 28 -18 46t-46 18h-128q-28 0 -46 -18t-18 -46v-320h-260q-44 0 -60 -40t16 -68l384 -384
q20 -20 48 -20t48 20zM1508 1372q28 -28 28 -68v-24h-512v512h24q40 0 68 -28z" />
    <glyph glyph-name="florin" unicode="&#x192;" horiz-adv-x="1536" 
d="M896 1248q0 -40 28 -68t68 -28h544v-1312q0 -40 -28 -68t-68 -28h-1344q-40 0 -68 28t-28 68v1856q0 40 28 68t68 28h800v-544zM1156 384q44 0 60 40t-16 68l-384 384q-20 20 -48 20t-48 -20l-384 -384q-32 -28 -16 -68t60 -40h260v-320q0 -28 18 -46t46 -18h128
q28 0 46 18t18 46v320h260zM1508 1372q28 -28 28 -68v-24h-512v512h24q40 0 68 -28z" />
    <glyph glyph-name="uni0193" unicode="&#x193;" horiz-adv-x="1536" 
d="M896 1248q0 -40 28 -68t68 -28h544v-1312q0 -40 -28 -68t-68 -28h-1344q-40 0 -68 28t-28 68v1856q0 40 28 68t68 28h800v-544zM256 1504v-64q0 -32 32 -32h320q32 0 32 32v64q0 32 -32 32h-320q-32 0 -32 -32zM256 1248v-64q0 -32 32 -32h320q32 0 32 32v64q0 32 -32 32
h-320q-32 0 -32 -32zM1028 256q-28 0 -40 24q-36 72 -122 90t-142 -30l-56 164q-24 68 -92 68t-92 -68l-72 -216q-12 -32 -44 -32h-48q-28 0 -46 -18t-18 -46t18 -46t46 -18h48q56 0 102 32t62 88l44 124l68 -200q12 -40 56 -44h4q40 0 56 36l32 60q12 24 40 24t40 -24
q48 -96 156 -96h188q28 0 46 18t18 46t-18 46t-46 18h-188zM1508 1372q28 -28 28 -68v-24h-512v512h24q40 0 68 -28z" />
    <glyph glyph-name="uni0194" unicode="&#x194;" horiz-adv-x="1536" 
d="M1508 1372q28 -28 28 -68v-24h-512v512h24q40 0 68 -28zM896 1248q0 -40 28 -68t68 -28h544v-1312q0 -40 -28 -68t-68 -28h-1344q-40 0 -68 28t-28 68v1856q0 40 28 68t68 28h800v-544zM1152 608q0 32 -32 32h-224v224q0 32 -32 32h-192q-32 0 -32 -32v-224h-224
q-32 0 -32 -32v-192q0 -32 32 -32h224v-224q0 -32 32 -32h192q32 0 32 32v224h224q32 0 32 32v192z" />
    <glyph glyph-name="glyph333" 
 />
    <glyph glyph-name="glyph334" 
 />
    <glyph glyph-name="glyph335" 
 />
    <glyph glyph-name="glyph336" 
 />
    <glyph glyph-name="glyph337" 
 />
    <glyph glyph-name="glyph338" 
 />
    <glyph glyph-name="glyph339" 
 />
    <glyph glyph-name="glyph340" 
 />
    <glyph glyph-name="glyph341" 
 />
    <glyph glyph-name="glyph342" 
 />
    <glyph glyph-name="glyph343" 
 />
    <glyph glyph-name="glyph344" 
 />
    <glyph glyph-name="glyph345" 
 />
    <glyph glyph-name="glyph346" 
 />
    <glyph glyph-name="glyph347" 
 />
    <glyph glyph-name="glyph348" 
 />
    <glyph glyph-name="glyph349" 
 />
    <glyph glyph-name="glyph350" 
 />
    <glyph glyph-name="glyph351" 
 />
    <glyph glyph-name="glyph352" 
 />
    <glyph glyph-name="glyph353" 
 />
    <glyph glyph-name="glyph354" 
 />
    <glyph glyph-name="glyph355" 
 />
    <glyph glyph-name="glyph356" 
 />
    <glyph glyph-name="glyph357" 
 />
    <glyph glyph-name="uni2648" unicode="&#x2648;" 
 />
    <glyph glyph-name="uni2649" unicode="&#x2649;" 
 />
    <glyph glyph-name="uni264A" unicode="&#x264a;" 
 />
    <glyph glyph-name="uni264B" unicode="&#x264b;" 
 />
    <glyph glyph-name="uni264C" unicode="&#x264c;" 
 />
    <glyph glyph-name="uni264D" unicode="&#x264d;" 
 />
    <glyph glyph-name="uni264E" unicode="&#x264e;" 
 />
    <glyph glyph-name="uni264F" unicode="&#x264f;" 
 />
    <glyph glyph-name="uni2650" unicode="&#x2650;" 
 />
    <glyph glyph-name="uni2651" unicode="&#x2651;" 
 />
    <glyph glyph-name="uni2652" unicode="&#x2652;" 
 />
    <glyph glyph-name="uni2653" unicode="&#x2653;" 
 />
    <glyph glyph-name="uni23E9" unicode="&#x23e9;" 
 />
    <glyph glyph-name="uni23EA" unicode="&#x23ea;" 
 />
    <glyph glyph-name="uni23EB" unicode="&#x23eb;" 
 />
    <glyph glyph-name="uni23EC" unicode="&#x23ec;" 
 />
    <glyph glyph-name="uni24EB" unicode="&#x24eb;" 
 />
    <glyph glyph-name="uni24EC" unicode="&#x24ec;" 
 />
    <glyph glyph-name="uni24ED" unicode="&#x24ed;" 
 />
    <glyph glyph-name="uni24EE" unicode="&#x24ee;" 
 />
    <glyph glyph-name="uni24EF" unicode="&#x24ef;" 
 />
    <glyph glyph-name="uni24F0" unicode="&#x24f0;" 
 />
    <glyph glyph-name="uni24F1" unicode="&#x24f1;" 
 />
    <glyph glyph-name="uni24F2" unicode="&#x24f2;" 
 />
    <glyph glyph-name="uni24F3" unicode="&#x24f3;" 
 />
    <glyph glyph-name="uni24F4" unicode="&#x24f4;" 
 />
    <glyph glyph-name="uni24F5" unicode="&#x24f5;" 
 />
    <glyph glyph-name="uni24F6" unicode="&#x24f6;" 
 />
    <glyph glyph-name="uni24F7" unicode="&#x24f7;" 
 />
    <glyph glyph-name="uni24F8" unicode="&#x24f8;" 
 />
    <glyph glyph-name="uni24F9" unicode="&#x24f9;" 
 />
    <glyph glyph-name="uni24FA" unicode="&#x24fa;" 
 />
    <glyph glyph-name="uni24FB" unicode="&#x24fb;" 
 />
    <glyph glyph-name="uni24FC" unicode="&#x24fc;" 
 />
    <glyph glyph-name="uni24FD" unicode="&#x24fd;" 
 />
    <glyph glyph-name="uni24FE" unicode="&#x24fe;" 
 />
    <glyph glyph-name="uni24FF" unicode="&#x24ff;" 
 />
  </font>
</defs>
</svg>
